SplineFontDB: 3.2
FontName: Pointless-BoldItalic
FullName: Pointless Bold Italic
FamilyName: Pointless
Weight: Bold
Copyright: Based on Pointfree by wrp, whoever he/she/they is/are, I thank you.\nTadhg O'Brien 2020 released under the terms of the Unlicense.
Version: 1.0
ItalicAngle: 0
UnderlinePosition: -143
UnderlineWidth: 20
Ascent: 656
Descent: 164
InvalidEm: 0
sfntRevision: 0x00010000
LayerCount: 2
Layer: 0 1 "Back" 1
Layer: 1 1 "Fore" 0
XUID: [1021 796 -163880829 2966828]
StyleMap: 0x0040
FSType: 0
OS2Version: 3
OS2_WeightWidthSlopeOnly: 0
OS2_UseTypoMetrics: 0
CreationTime: 1316413706
ModificationTime: 1606909879
PfmFamily: 17
TTFWeight: 400
TTFWidth: 5
LineGap: 0
VLineGap: 0
Panose: 2 0 5 3 0 0 0 0 0 0
OS2TypoAscent: 891
OS2TypoAOffset: 0
OS2TypoDescent: -256
OS2TypoDOffset: 0
OS2TypoLinegap: 0
OS2WinAscent: 891
OS2WinAOffset: 0
OS2WinDescent: 256
OS2WinDOffset: 0
HheadAscent: 891
HheadAOffset: 0
HheadDescent: -256
HheadDOffset: 0
OS2SubXSize: 585
OS2SubYSize: 543
OS2SubXOff: 0
OS2SubYOff: 120
OS2SupXSize: 585
OS2SupYSize: 543
OS2SupXOff: 0
OS2SupYOff: 379
OS2StrikeYSize: 42
OS2StrikeYPos: 209
OS2CapHeight: 613
OS2XHeight: 454
OS2Vendor: '    '
OS2CodePages: 00000001.00000000
OS2UnicodeRanges: 00000001.00000000.00000000.00000000
MarkAttachClasses: 1
DEI: 91125
ShortTable: maxp 16
  1
  0
  98
  112
  5
  0
  0
  0
  0
  0
  0
  0
  0
  0
  0
  0
EndShort
LangName: 1033 "" "" "" "" "" "1.0"
Encoding: UnicodeBmp
UnicodeInterp: none
NameList: AGL For New Fonts
DisplaySize: -48
AntiAlias: 1
FitToEm: 0
WinInfo: 22 22 6
BeginPrivate: 0
EndPrivate
TeXData: 1 0 0 639376 319687 213126 549863 1048576 213126 783286 444596 497025 792723 393216 433062 380633 303038 157286 324010 404750 52429 2506097 1059062 262144
BeginChars: 65539 94

StartChar: exclam
Encoding: 33 33 0
Width: 500
Flags: W
LayerCount: 2
Fore
SplineSet
314 580 m 1,0,1
 322 600 322 600 341 610 c 0,2,3
 360 619 360 619 374 619 c 0,4,5
 385 619 385 619 394 612 c 0,6,7
 411 601 411 601 410 583 c 2,8,-1
 330 238 l 2,9,10
 323 216 323 216 305 204.5 c 128,-1,11
 287 193 287 193 271.5 192.5 c 128,-1,12
 256 192 256 192 247 200 c 0,13,14
 232 214 232 214 235 235 c 2,15,-1
 314 580 l 1,0,1
258 125 m 256,16,17
 280 125 280 125 294.5 106 c 128,-1,18
 309 87 309 87 303 60 c 256,19,20
 297 33 297 33 273.5 14.5 c 128,-1,21
 250 -4 250 -4 228 -4 c 256,22,23
 206 -4 206 -4 191.5 14.5 c 128,-1,24
 177 33 177 33 183 60 c 256,25,26
 189 87 189 87 212.5 106 c 128,-1,27
 236 125 236 125 258 125 c 256,16,17
EndSplineSet
EndChar

StartChar: quotedbl
Encoding: 34 34 1
Width: 500
Flags: W
LayerCount: 2
Fore
SplineSet
465 630 m 0,0,1
 483.874042147 630 483.874042147 630 498.704733322 619.214042782 c 0,2,3
 519 604.717423726 519 604.717423726 519 578 c 2,4,-1
 519 576.229568045 l 1,5,-1
 484.297243114 430.45283901 l 1,6,7
 475.670543832 403.34035555 475.670543832 403.34035555 452.647344013 388.4063881 c 0,8,9
 430.437495692 374 430.437495692 374 412 374 c 0,10,11
 393.664605953 374.571289752 393.664605953 374.571289752 377.179530246 389.555920579 c 0,12,13
 360 406 360 406 359.526315789 426.415512465 c 0,14,15
 359.526315789 430.411266456 359.526315789 430.411266456 360.280069221 434.933787045 c 2,16,-1
 394.066695647 580.562133664 l 1,17,18
 407.590656484 614.372035756 407.590656484 614.372035756 446.583243037 626.96616068 c 0,19,20
 455.976292813 630 455.976292813 630 465 630 c 0,0,1
226 375 m 2,21,-1
 224.746628281 375 l 1,22,23
 209.040332088 377.617716032 209.040332088 377.617716032 201.458445805 382.357869509 c 128,-1,24
 193.876559522 387.098022985 193.876559522 387.098022985 189.95522184 391.806285359 c 0,25,26
 172.764706384 408.369991486 172.764706384 408.369991486 172.764705882 429.041522491 c 0,27,28
 172.764705882 431.889950566 172.764705882 431.889950566 173.199248765 435.58356507 c 2,29,-1
 207.066695647 581.562133664 l 1,30,31
 217.050364286 606.521305262 217.050364286 606.521305262 238.945960499 618.68552538 c 128,-1,32
 260.841556713 630.849745499 260.841556713 630.849745499 277.536018215 630.997939276 c 0,33,34
 279.644439265 631.111110952 279.644439265 631.111110952 281.654320988 631.111111111 c 0,35,36
 302.216903801 631.111111111 302.216903801 631.111111111 312.922364025 619.284990922 c 0,37,38
 330.630466185 601.38802061 330.630466185 601.38802061 331.97045727 579.948166125 c 2,39,-1
 332.107982108 577.747768716 l 1,40,-1
 298.297243114 431.45283901 l 1,41,42
 289.670543832 404.34035555 289.670543832 404.34035555 266.647344013 389.4063881 c 0,43,44
 244.437495692 375 244.437495692 375 226 375 c 2,21,-1
EndSplineSet
EndChar

StartChar: numbersign
Encoding: 35 35 2
Width: 500
Flags: W
LayerCount: 2
Fore
SplineSet
483.09168242 628.347826087 m 0,0,1
 507.084055274 628.347826087 507.084055274 628.347826087 520.371931946 606.201364967 c 0,2,3
 526.666666667 595.710140433 526.666666667 595.710140433 526.666666667 583.734074468 c 128,-1,4
 526.666666667 571.758008503 526.666666667 571.758008503 523.311749338 559.456644965 c 1,5,6
 511.12349358 525.938941629 511.12349358 525.938941629 501.427119413 498.536129825 c 128,-1,7
 491.730745245 471.133318021 491.730745245 471.133318021 483.579581477 449 c 1,8,-1
 510.727632657 449 l 1,9,10
 535.059553675 439.875529618 535.059553675 439.875529618 543.143820565 422.23712913 c 0,11,12
 548.058823529 411.5134863 548.058823529 411.5134863 548.058823529 400.261245675 c 0,13,14
 548.058823529 376.492781166 548.058823529 376.492781166 527.374802009 356.670593876 c 0,15,16
 512.275383689 342.200317986 512.275383689 342.200317986 487.573873256 337 c 1,17,-1
 443.424221251 337 l 1,18,19
 433.530523896 310.229467593 433.530523896 310.229467593 425.54820078 286.662300536 c 128,-1,20
 417.565877665 263.09513348 417.565877665 263.09513348 410.189968757 242 c 1,21,-1
 437.727632657 242 l 1,22,23
 470.450897396 229.728775723 470.450897396 229.728775723 475.162115738 201.242923981 c 0,24,25
 475.789473684 197.449674733 475.789473684 197.449674733 475.789473684 193.883226852 c 0,26,27
 475.789473684 170.192987565 475.789473684 170.192987565 454.374802009 149.670593876 c 0,28,29
 439.275383689 135.200317986 439.275383689 135.200317986 414.573873256 130 c 1,30,-1
 369.712979497 130 l 1,31,32
 358.354258346 97.0248020654 358.354258346 97.0248020654 345.756421233 62.0307959587 c 128,-1,33
 333.158273652 27.0359274368 333.158273652 27.0359274368 319.666073278 -12.4028121179 c 1,34,35
 299.015102449 -46.1953098369 299.015102449 -46.1953098369 269.41743845 -52.6479481826 c 0,36,37
 264.422781268 -53.7368421053 264.422781268 -53.7368421053 260.56515453 -53.7368421053 c 0,38,39
 238.523177777 -53.7368421053 238.523177777 -53.7368421053 225.285957218 -35.2047333224 c 0,40,41
 217.142857143 -23.8043932168 217.142857143 -23.8043932168 217.142857143 -6.65306122449 c 0,42,43
 217.142857143 4.3957981374 217.142857143 4.3957981374 218.933420925 9.21654678229 c 0,44,45
 231.85625818 44.0088009293 231.85625818 44.0088009293 242.127050778 74.3931913857 c 128,-1,46
 252.397843377 104.777581842 252.397843377 104.777581842 261.522334189 130 c 1,47,-1
 214.704120468 130 l 1,48,49
 203.259088668 96.9419408958 203.259088668 96.9419408958 190.1946452 61.9478761941 c 128,-1,50
 177.129958117 26.9531589505 177.129958117 26.9531589505 163.666073278 -12.4028121179 c 1,51,52
 143.015102449 -46.1953098369 143.015102449 -46.1953098369 113.41743845 -52.6479481826 c 0,53,54
 108.422781268 -53.7368421053 108.422781268 -53.7368421053 104.56515453 -53.7368421053 c 0,55,56
 82.5231777774 -53.7368421053 82.5231777774 -53.7368421053 69.2859572183 -35.2047333224 c 0,57,58
 61.1428571429 -23.8043932168 61.1428571429 -23.8043932168 61.1428571429 -6.65306122449 c 0,59,60
 61.1428571429 4.3957981374 61.1428571429 4.3957981374 62.9334209252 9.21654678229 c 0,61,62
 75.8562581799 44.0088009293 75.8562581799 44.0088009293 86.1270507783 74.3931913857 c 128,-1,63
 96.3978433768 104.777581842 96.3978433768 104.777581842 105.522334189 130 c 1,64,-1
 93.8696099683 130 l 1,65,66
 58.1630551414 135.355983224 58.1630551414 135.355983224 50.7736275478 165.255768082 c 0,67,68
 49.275 171.319653369 49.275 171.319653369 49.275 175.577499175 c 128,-1,69
 49.275 179.835344981 49.275 179.835344981 49.4639776412 182.099305425 c 0,70,71
 51.501726907 206.511631154 51.501726907 206.511631154 72.5413093244 225.213482191 c 0,72,73
 89.9990989871 240.731517447 89.9990989871 240.731517447 116.276008836 241.982798868 c 2,74,-1
 116.637232601 242 l 1,75,-1
 145.68281563 242 l 1,76,77
 155.5164327 267.90938865 155.5164327 267.90938865 163.521173934 291.542631291 c 128,-1,78
 171.525915168 315.175873933 171.525915168 315.175873933 179.465229179 337 c 1,79,-1
 170.869609968 337 l 1,80,81
 137.720932781 341.972301578 137.720932781 341.972301578 128.420331301 367.807074136 c 0,82,83
 125.545454545 375.792771327 125.545454545 375.792771327 125.545454545 383.530997719 c 128,-1,84
 125.545454545 391.269224111 125.545454545 391.269224111 127.848743008 399.618644787 c 0,85,86
 132.714245794 417.256092386 132.714245794 417.256092386 149.541309324 432.213482191 c 0,87,88
 166.999098987 447.731517447 166.999098987 447.731517447 193.276008836 448.982798868 c 2,89,-1
 193.637232601 449 l 1,90,-1
 219.551271368 449 l 1,91,92
 230.558826985 478.899348332 230.558826985 478.899348332 241.719602354 510.986645403 c 128,-1,93
 252.879259387 543.070727257 252.879259387 543.070727257 266.11763674 578.712512438 c 1,94,95
 278.139779155 605.16122575 278.139779155 605.16122575 295.071658359 616.254525918 c 128,-1,96
 312.003537564 627.347826087 312.003537564 627.347826087 327.09168242 627.347826087 c 0,97,98
 351.084055274 627.347826087 351.084055274 627.347826087 364.371931946 605.201364967 c 0,99,100
 370.666666667 594.710140433 370.666666667 594.710140433 370.666666667 582.734074468 c 128,-1,101
 370.666666667 570.758008503 370.666666667 570.758008503 367.310529153 558.452170953 c 0,102,-1
 327.432606403 449 l 1,103,-1
 374.557483521 449 l 1,104,105
 385.647869956 479.020514004 385.647869956 479.020514004 397.274372895 511.574727291 c 0,106,107
 418.192133145 570.14446509 418.192133145 570.14446509 422.336750722 580.194563197 c 0,108,109
 434.139779155 606.16122575 434.139779155 606.16122575 451.071658359 617.254525918 c 128,-1,110
 468.003537564 628.347826087 468.003537564 628.347826087 483.09168242 628.347826087 c 0,0,1
254.241889082 242 m 1,111,-1
 301.68281563 242 l 1,112,113
 310.857673311 266.173704525 310.857673311 266.173704525 335.028505406 337 c 1,114,-1
 287.699624286 337 l 1,115,116
 278.420585932 310.13996385 278.420585932 310.13996385 254.241889082 242 c 1,111,-1
EndSplineSet
EndChar

StartChar: dollar
Encoding: 36 36 3
Width: 500
Flags: W
LayerCount: 2
Fore
SplineSet
113.068359375 48.8466796875 m 0,0,1
 89.80859375 68.6953125 89.80859375 68.6953125 69.6826171875 107.526367188 c 1,2,3
 66 125.287109375 66 125.287109375 66 135.317382812 c 128,-1,4
 66 145.348632812 66 145.348632812 73.5517578125 161.131835938 c 0,5,6
 88.0869140625 191.512695312 88.0869140625 191.512695312 118.118164062 191.512695312 c 0,7,8
 124.510742188 191.512695312 124.510742188 191.512695312 129.838867188 189.456054688 c 128,-1,9
 135.16796875 187.400390625 135.16796875 187.400390625 142.114257812 181.146484375 c 0,10,11
 153.435546875 170.952148438 153.435546875 170.952148438 157.611328125 165.09375 c 128,-1,12
 161.787109375 159.234375 161.787109375 159.234375 167.429450046 153.6953125 c 0,13,14
 173.325702292 148.155273438 173.325702292 148.155273438 181.819177044 141.126953125 c 0,15,16
 198.237180527 127.541015625 198.237180527 127.541015625 208.35070496 123.393554688 c 2,17,-1
 215.078411276 120.565429688 l 1,18,-1
 257.070056159 280.5546875 l 1,19,20
 243.057483584 287.552734375 243.057483584 287.552734375 225.415871148 296.514648438 c 0,21,22
 198.754696398 310.05859375 198.754696398 310.05859375 175.956140101 330.630859375 c 0,23,24
 154.153320312 351.203125 154.153320312 351.203125 142.548828125 379.45703125 c 0,25,26
 135.541015625 396.51953125 135.541015625 396.51953125 135.541015625 413.564453125 c 0,27,28
 135.541015625 458.806640625 135.541015625 458.806640625 163.284179688 501.461914062 c 0,29,30
 202.906609437 557.134765625 202.906609437 557.134765625 274.599165145 585.6015625 c 0,31,32
 305.98655626 598.064453125 305.98655626 598.064453125 342.489104239 603.559570312 c 1,33,-1
 348.722866836 626.85546875 l 2,34,35
 357.89243375 661.118164062 357.89243375 661.118164062 371.788217028 687.079101562 c 0,36,37
 389.408400236 720 389.408400236 720 429.477843314 720 c 0,38,39
 447.026238606 720 447.026238606 720 456.579388711 713.655273438 c 0,40,41
 473.500979067 702.818359375 473.500979067 702.818359375 474.447079509 683.2734375 c 0,42,43
 475.706046689 657.27734375 475.706046689 657.27734375 466.204326732 625.323242188 c 0,44,45
 461.044168488 608.696289062 461.044168488 608.696289062 458.680524575 599.557617188 c 1,46,47
 493.451590884 591.03125 493.451590884 591.03125 523.595703125 575.82421875 c 0,48,49
 545.282226562 564.564453125 545.282226562 564.564453125 573.399414062 535.444335938 c 128,-1,50
 601.516601562 506.323242188 601.516601562 506.323242188 601.516601562 484.327148438 c 0,51,52
 601.516601562 469.877929688 601.516601562 469.877929688 594.356445312 460.551757812 c 128,-1,53
 587.196289062 451.2265625 587.196289062 451.2265625 578.03515625 445.4296875 c 0,54,55
 560.041015625 434.04296875 560.041015625 434.04296875 542.120117188 434.04296875 c 0,56,57
 538.615234375 434.04296875 538.615234375 434.04296875 532.388671875 434.79296875 c 1,58,59
 512.875 444.829101562 512.875 444.829101562 496.615616485 460.439453125 c 0,60,61
 465.829315232 488.369140625 465.829315232 488.369140625 430.389656991 499.180664062 c 1,62,63
 420.521497225 463.403320312 420.521497225 463.403320312 413.264488963 433.03515625 c 0,64,65
 400.990898289 381.666992188 400.990898289 381.666992188 389.712695282 343.28515625 c 1,66,67
 412.870191157 334.357421875 412.870191157 334.357421875 436.365197383 325.72265625 c 0,68,69
 506.666015625 299.758789062 506.666015625 299.758789062 527.59375 244.528320312 c 0,70,71
 533.377929688 229.263671875 533.377929688 229.263671875 533.377929688 212.08984375 c 128,-1,72
 533.377929688 194.916015625 533.377929688 194.916015625 528.573242188 176.349609375 c 0,73,74
 517.864257812 133.03515625 517.864257812 133.03515625 493.867317919 102.890625 c 0,75,76
 457.88978604 60.240234375 457.88978604 60.240234375 399.599069892 34.833984375 c 0,77,78
 359.137471931 17.1982421875 359.137471931 17.1982421875 300.452457977 6.380859375 c 1,79,80
 290.225358632 -32.12890625 290.225358632 -32.12890625 286.245950883 -53.1123046875 c 1,81,82
 268.450048001 -86.1298828125 268.450048001 -86.1298828125 238.903427622 -95.8232421875 c 0,83,84
 229.565641264 -99 229.565641264 -99 219.917131091 -99 c 0,85,86
 191.30589654 -99 191.30589654 -99 180.641640933 -81.1005859375 c 0,87,88
 173.666427027 -69.392578125 173.666427027 -69.392578125 173.666427027 -53.4609375 c 0,89,90
 173.666427027 -36.73046875 173.666427027 -36.73046875 178.561934298 -17.6015625 c 128,-1,91
 183.457441569 1.52734375 183.457441569 1.52734375 185.941089163 13.1455078125 c 1,92,93
 137.87109375 27.6806640625 137.87109375 27.6806640625 113.068359375 48.8466796875 c 0,0,1
341.024416465 105.41015625 m 1,94,95
 362.335784298 113.272460938 362.335784298 113.272460938 388.038001068 128.196289062 c 0,96,97
 417.300684168 149.877929688 417.300684168 149.877929688 422.467271181 166.751953125 c 0,98,99
 424.836272402 174.487304688 424.836272402 174.487304688 424.836272402 182.326171875 c 128,-1,100
 424.836272402 190.165039062 424.836272402 190.165039062 421.993685229 198.043945312 c 0,101,102
 410.816199597 216.99609375 410.816199597 216.99609375 391.896333675 227.798828125 c 0,103,104
 380.600987286 234.248046875 380.600987286 234.248046875 363.390102344 241.240234375 c 1,105,106
 355.100205264 207.467773438 355.100205264 207.467773438 345.384193022 170.120117188 c 128,-1,107
 335.667109318 132.771484375 335.667109318 132.771484375 327.77579589 101.291992188 c 1,108,-1
 341.024416465 105.41015625 l 1,94,95
256.513967677 413.846679688 m 128,-1,110
 270.17295798 400.791015625 270.17295798 400.791015625 286.653106226 388.264648438 c 1,111,-1
 317.62691323 506.978515625 l 1,112,113
 306.55657374 504.760742188 306.55657374 504.760742188 298.705975847 501.397460938 c 128,-1,114
 290.856449414 498.033203125 290.856449414 498.033203125 284.119099946 494.579101562 c 128,-1,115
 277.382821939 491.125976562 277.382821939 491.125976562 272.559102583 488.329101562 c 0,116,117
 256.79361911 479.189453125 256.79361911 479.189453125 252.240979496 473.290039062 c 0,118,119
 242.9792669 461.2890625 242.9792669 461.2890625 242.9792669 444.037109375 c 128,-1,109
 242.9792669 426.78515625 242.9792669 426.78515625 256.513967677 413.846679688 c 128,-1,110
EndSplineSet
EndChar

StartChar: percent
Encoding: 37 37 4
Width: 500
Flags: W
LayerCount: 2
Fore
SplineSet
144.845494103 491.706054688 m 0,0,1
 159.122365865 544.6796875 159.122365865 544.6796875 212.233472158 582.2890625 c 128,-1,2
 265.487495378 620 265.487495378 620 320.07435128 620 c 128,-1,3
 374.662265827 620 374.662265827 620 409.907697504 579.322265625 c 0,4,5
 434.506347383 550.931640625 434.506347383 550.931640625 434.506347383 514.70703125 c 0,6,7
 434.506347383 499.592773438 434.506347383 499.592773438 430.188138877 483.344726562 c 0,8,9
 428.756852311 477.850585938 428.756852311 477.850585938 426.932808855 472.518554688 c 1,10,11
 528.206054688 574.376953125 528.206054688 574.376953125 535.865234375 583.43359375 c 1,12,13
 535.04296875 580.840820312 535.04296875 580.840820312 534.935546875 579.790039062 c 128,-1,14
 534.828125 578.740234375 534.828125 578.740234375 534.755859375 578.0390625 c 2,15,-1
 549.706054688 563.696289062 l 1,16,-1
 557.994140625 566.356445312 l 1,17,-1
 539.231445312 588.48828125 l 1,18,19
 561.15234375 603.68359375 561.15234375 603.68359375 583.0390625 603.68359375 c 128,-1,20
 604.92578125 603.68359375 604.92578125 603.68359375 616.90234375 586.825195312 c 0,21,22
 624.391601562 576.283203125 624.391601562 576.283203125 624.391601562 562.508789062 c 0,23,24
 624.391601562 555.885742188 624.391601562 555.885742188 622.229492188 546.787109375 c 128,-1,25
 620.06640625 537.6875 620.06640625 537.6875 610.107421875 522.153320312 c 0,26,27
 534.375 439.776367188 534.375 439.776367188 513.957572786 417.478515625 c 0,28,29
 478.739665851 380.301757812 478.739665851 380.301757812 404.350875623 304.825195312 c 0,30,31
 372.82446 272.595703125 372.82446 272.595703125 344.615834389 243.786132812 c 1,32,33
 381.40053431 262 381.40053431 262 418.828889728 262 c 0,34,35
 473.399865972 262 473.399865972 262 508.100096035 221.790039062 c 0,36,37
 532.142578125 193.331054688 532.142578125 193.331054688 532.142578125 156.908203125 c 0,38,39
 532.142578125 142.197265625 532.142578125 142.197265625 528.616210938 127.24609375 c 0,40,41
 514.588524556 73.33984375 514.588524556 73.33984375 461.517646732 35.244140625 c 0,42,43
 408.24139199 -3 408.24139199 -3 354.720590505 -3 c 0,44,45
 299.025334429 -3 299.025334429 -3 263.237877071 38.134765625 c 0,46,47
 238.648754986 66.3974609375 238.648754986 66.3974609375 238.648754986 103.379882812 c 0,48,49
 238.648754986 119.732421875 238.648754986 119.732421875 243.49416816 137.5546875 c 0,50,51
 245.241989254 144.12890625 245.241989254 144.12890625 247.569947211 150.454101562 c 1,52,53
 167.792659484 70.1787109375 167.792659484 70.1787109375 133.100585938 35.310546875 c 0,54,55
 120.678710938 22.1962890625 120.678710938 22.1962890625 107.223632812 17.2763671875 c 128,-1,56
 93.767578125 12.3564453125 93.767578125 12.3564453125 83 12.3564453125 c 0,57,58
 61.5732421875 12.3564453125 61.5732421875 12.3564453125 49.0615234375 28.1181640625 c 0,59,60
 40.6669921875 38.693359375 40.6669921875 38.693359375 40.6669921875 53.041015625 c 0,61,62
 40.6669921875 76.509765625 40.6669921875 76.509765625 60.5087890625 100.315429688 c 0,63,64
 135.720703125 182.126953125 135.720703125 182.126953125 192.294972768 240.135742188 c 0,65,66
 227.810358641 276.534179688 227.810358641 276.534179688 319.703825912 369.23828125 c 1,67,68
 288.282216036 355 288.282216036 355 257.155967811 355 c 0,69,70
 201.460711736 355 201.460711736 355 165.673254377 395.5625 c 0,71,72
 140.560103557 424.026367188 140.560103557 424.026367188 140.560103557 460.528320312 c 0,73,74
 140.560103557 475.4921875 140.560103557 475.4921875 144.845494103 491.706054688 c 0,0,1
271.504827359 504.963867188 m 0,75,76
 251.17674701 492.927734375 251.17674701 492.927734375 251.17674701 474.180664062 c 0,77,78
 251.17674701 469.301757812 251.17674701 469.301757812 255.957582905 464.749023438 c 128,-1,79
 260.737360157 460.1953125 260.737360157 460.1953125 264.892537501 458.59765625 c 128,-1,80
 269.047714846 457 269.047714846 457 274.7220462 457 c 0,81,82
 287.169581287 457 287.169581287 457 302.754936922 466.228515625 c 128,-1,83
 318.496971855 475.549804688 318.496971855 475.549804688 322.640504117 488.256835938 c 0,84,85
 323.842064954 491.94140625 323.842064954 491.94140625 323.842064954 495.139648438 c 0,86,87
 323.119011164 502.01953125 323.119011164 502.01953125 318.501206431 506.784179688 c 0,88,89
 310.926609259 514 310.926609259 514 298.845364965 514 c 128,-1,90
 286.765179314 514 286.765179314 514 271.504827359 504.963867188 c 0,75,76
421.406687648 138.819335938 m 128,-1,92
 421.406687648 143.698242188 421.406687648 143.698242188 416.065829125 148.784179688 c 0,93,94
 408.491231953 156 408.491231953 156 396.472447649 156 c 128,-1,95
 384.452604701 156 384.452604701 156 369.456913724 146.874023438 c 0,96,97
 354.113987544 137.537109375 354.113987544 137.537109375 349.942930541 124.743164062 c 0,98,99
 348.741369704 121.05859375 348.741369704 121.05859375 348.741369704 116.180664062 c 128,-1,100
 348.741369704 111.301757812 348.741369704 111.301757812 353.48727035 106.782226562 c 128,-1,101
 358.232112352 102.262695312 358.232112352 102.262695312 362.623367289 100.630859375 c 128,-1,102
 367.014622225 99 367.014622225 99 373.14946368 99 c 0,103,104
 387.87520046 99 387.87520046 99 404.473678316 110.587890625 c 0,105,106
 416.537984308 119.010742188 416.537984308 119.010742188 420.205126811 130.256835938 c 0,107,91
 421.406687648 133.94140625 421.406687648 133.94140625 421.406687648 138.819335938 c 128,-1,92
EndSplineSet
EndChar

StartChar: ampersand
Encoding: 38 38 5
Width: 500
Flags: W
LayerCount: 2
Fore
SplineSet
381.421611688 -30 m 0,0,1
 368.062756972 -30 368.062756972 -30 362.716386762 -25.7791814129 c 0,2,3
 341.024119182 -8.65370700816 341.024119182 -8.65370700816 327.520504106 18.9161737738 c 0,4,5
 320.73658721 32.7666707687 320.73658721 32.7666707687 313.964088932 45.7868240051 c 1,6,7
 278.054485417 6.62810128433 278.054485417 6.62810128433 244.543303047 -11.244529313 c 0,8,9
 205.537509795 -32.0476190476 205.537509795 -32.0476190476 179.223356009 -32.0476190476 c 0,10,11
 137.06658189 -32.0476190476 137.06658189 -32.0476190476 115.012598554 -15.5071315638 c 0,12,13
 94.9711773654 -0.476065672113 94.9711773654 -0.476065672113 75.9661789383 27.759931991 c 128,-1,14
 56.9611805113 55.995929654 56.9611805113 55.995929654 48.8516363316 92.7591966018 c 0,15,16
 45.2857142857 108.924709876 45.2857142857 108.924709876 45.2857142857 120.560747481 c 128,-1,17
 45.2857142857 132.196785085 45.2857142857 132.196785085 45.6717799963 138.09418839 c 128,-1,18
 46.0578457069 143.991591695 46.0578457069 143.991591695 46.8259306639 149.987553423 c 0,19,20
 48.3568251946 161.938295244 48.3568251946 161.938295244 51.3840475879 174.388791687 c 0,21,22
 64.6136957669 234.668114961 64.6136957669 234.668114961 109.487591473 283.180434643 c 0,23,24
 141.085640483 317.340487626 141.085640483 317.340487626 171.87376258 337.362429437 c 1,25,26
 163.48 364.77470277 163.48 364.77470277 163.48 400.12 c 0,27,28
 163.48 445.365337481 163.48 445.365337481 173.391582599 489.416815698 c 0,29,30
 181.115930827 522.521165248 181.115930827 522.521165248 200.555748223 548.07063954 c 0,31,32
 226.065699442 581.598003998 226.065699442 581.598003998 266.031029809 605.621333634 c 0,33,34
 298.269475318 625 298.269475318 625 323 625 c 2,35,-1
 324.951877256 625 l 1,36,37
 347.026082981 619.190998493 347.026082981 619.190998493 364.712084731 611.203771897 c 128,-1,38
 382.39808648 603.2165453 382.39808648 603.2165453 397.52924923 584.593575763 c 128,-1,39
 412.660411979 565.970606225 412.660411979 565.970606225 420.486009267 536.904102013 c 0,40,41
 423.722222222 524.883882463 423.722222222 524.883882463 423.722222222 513.699562599 c 0,42,43
 423.722222222 493.045625889 423.722222222 493.045625889 416.385362014 472.660019577 c 0,44,45
 399.981845408 405.52328874 399.981845408 405.52328874 343.848191613 349.3896442 c 0,46,47
 316.766677168 322.308134221 316.766677168 322.308134221 288.930939435 306.802964904 c 1,48,-1
 320.990935192 251.499468316 l 2,49,50
 333.293708156 230.249224107 333.293708156 230.249224107 335.757872002 216.696322952 c 0,51,52
 336.082989523 214.908176588 336.082989523 214.908176588 337.399389568 212.075544751 c 1,53,54
 364.173035592 243.913081599 364.173035592 243.913081599 389.405125146 271.80118058 c 128,-1,55
 414.637214701 299.689279561 414.637214701 299.689279561 429.387409434 327.222976396 c 1,56,57
 455.140785122 360 455.140785122 360 485 360 c 0,58,59
 506.563495209 360 506.563495209 360 519.570068904 342.402870882 c 0,60,61
 527.482758621 331.697467148 527.482758621 331.697467148 527.482758621 321.065840495 c 128,-1,62
 527.482758621 310.434213841 527.482758621 310.434213841 524.56885591 302.788035032 c 128,-1,63
 521.654953199 295.141856222 521.654953199 295.141856222 516.710126892 287.35915329 c 0,64,65
 508.296100654 274.11624796 508.296100654 274.11624796 486.376530773 249.406915469 c 128,-1,66
 464.456960891 224.697582978 464.456960891 224.697582978 462.006411297 221.564986232 c 128,-1,67
 459.555861703 218.432389487 459.555861703 218.432389487 435.274678992 190.636825067 c 0,68,69
 400.676235045 151.030711602 400.676235045 151.030711602 394.179201153 141.927083273 c 128,-1,70
 387.68216726 132.823454945 387.68216726 132.823454945 385.443557627 128.932823378 c 0,71,72
 394.832834848 108.544473217 394.832834848 108.544473217 401.327113452 102.374908543 c 0,73,74
 411.931747207 92.3005064755 411.931747207 92.3005064755 432.091426595 67.1431586614 c 0,75,76
 447.559997965 52.1001329671 447.559997965 52.1001329671 447.56 34.3152 c 0,77,78
 447.56 26.3631186704 447.56 26.3631186704 444.366564942 18.4568616858 c 0,79,80
 439.956293846 -0.664373714043 439.956293846 -0.664373714043 422.737556799 -15.332186857 c 128,-1,81
 405.518819753 -30 405.518819753 -30 381.421611688 -30 c 0,0,1
196 80 m 2,82,83
 202.845415123 80 202.845415123 80 215.121635733 87.3657323661 c 1,84,85
 229.406174192 93.6152179418 229.406174192 93.6152179418 241.395478125 105.604521875 c 0,86,87
 251.895698764 116.104742514 251.895698764 116.104742514 264.472027219 126.548650256 c 1,88,89
 246.010101829 158.526390894 246.010101829 158.526390894 238.715046851 180.411555827 c 128,-1,90
 231.419991873 202.29672076 231.419991873 202.29672076 208.639732352 243.813124273 c 1,91,-1
 204.527754521 240.40643123 l 1,92,93
 198.792293429 233.52387792 198.792293429 233.52387792 186.140475021 222.331884712 c 128,-1,94
 173.488656613 211.139891505 173.488656613 211.139891505 166.932064688 200.977174022 c 0,95,96
 149.697074534 174.262939283 149.697074534 174.262939283 149.368421053 145.897506925 c 0,97,98
 149.368421053 125.492607714 149.368421053 125.492607714 162.089984821 98.3532716752 c 0,99,100
 169.044174088 83.5176679049 169.044174088 83.5176679049 189.345807839 78.8831203241 c 1,101,-1
 190.741907434 80 l 1,102,-1
 196 80 l 2,82,83
259 461 m 0,103,104
 259 429.380824387 259 429.380824387 259.981044589 409.759932604 c 0,105,106
 260.445315546 400.474513461 260.445315546 400.474513461 265.339390083 392.589467005 c 1,107,108
 305.571958095 419.725813695 305.571958095 419.725813695 316.224805758 480.599228915 c 0,109,110
 318 490.362797245 318 490.362797245 318 499.917787356 c 128,-1,111
 318 509.472777468 318 509.472777468 313.976954766 513.831076471 c 0,112,113
 307.44217403 520.910422268 307.44217403 520.910422268 303.851873699 521.983385586 c 0,114,115
 297.72598517 522 297.72598517 522 286.587654932 514.203168833 c 0,116,117
 274.576032421 505.795033076 274.576032421 505.795033076 266.774940324 491.01401647 c 128,-1,118
 259 476.282550593 259 476.282550593 259 461 c 0,103,104
EndSplineSet
EndChar

StartChar: quotesingle
Encoding: 39 39 6
Width: 500
Flags: W
LayerCount: 2
Fore
SplineSet
370 628 m 2,0,-1
 370.542944748 628 l 1,1,2
 388.845860441 626.692648879 388.845860441 626.692648879 404.020595908 616.678580019 c 0,3,4
 418.673056958 607.720328123 418.673056958 607.720328123 422.880865826 591.249584358 c 0,5,6
 425.207721529 582.1415081 425.207721529 582.1415081 423.618213106 572.625444019 c 2,7,-1
 388.761123438 421.246083175 l 1,8,9
 384.623121827 393.055477425 384.623121827 393.055477425 362.081513759 378.027738712 c 128,-1,10
 339.53990569 363 339.53990569 363 316 363 c 0,11,12
 293.875846071 363.648925886 293.875846071 363.648925886 279.272566293 377.540024916 c 0,13,14
 262.470590678 390.325808582 262.470590678 390.325808582 262.470588235 413.60899654 c 0,15,16
 262.470588235 418.146961371 262.470588235 418.146961371 263.229794751 423.714475818 c 2,17,-1
 299.110351474 578.670048806 l 1,18,19
 310.246437436 605.89159227 310.246437436 605.89159227 327.731248572 616.121796532 c 0,20,21
 349.112014815 628 349.112014815 628 370 628 c 2,0,-1
EndSplineSet
EndChar

StartChar: parenleft
Encoding: 40 40 7
Width: 500
Flags: W
LayerCount: 2
Fore
SplineSet
341.666666667 -42.8888888889 m 0,0,1
 341.666666667 -49.7386045598 341.666666667 -49.7386045598 340.108417401 -56.4168156975 c 0,2,3
 335.591887266 -75.7733734195 335.591887266 -75.7733734195 322.327113452 -88.3749085426 c 128,-1,4
 309.220377799 -100.826307414 309.220377799 -100.826307414 290.550042987 -104.689135306 c 1,5,-1
 280.21875 -105.75 l 1,6,7
 265.095415123 -105.75 265.095415123 -105.75 248.049756125 -95.5226046012 c 1,8,9
 237.739778666 -82.9215210398 237.739778666 -82.9215210398 227.650949502 -72.3017008677 c 128,-1,10
 217.562120338 -61.6818806955 217.562120338 -61.6818806955 211.516502459 -46.7027283978 c 0,11,12
 181.343584316 3.02668014644 181.343584316 3.02668014644 171.58920405 92.3562883102 c 0,13,14
 167.576086957 129.107992216 167.576086957 129.107992216 167.576086957 167.899492271 c 128,-1,15
 167.576086957 206.690992325 167.576086957 206.690992325 175.889740635 242.408911833 c 0,16,17
 186.40345698 287.578952427 186.40345698 287.578952427 191.566098374 302.489097334 c 128,-1,18
 196.728739769 317.399242242 196.728739769 317.399242242 202.574176188 330.389100951 c 128,-1,19
 208.419612607 343.37895966 208.419612607 343.37895966 240.533835581 408.610975076 c 0,20,21
 253.076901048 432.655257262 253.076901048 432.655257262 272.437067701 461.695507242 c 128,-1,22
 291.797234354 490.735757221 291.797234354 490.735757221 310.61332244 515.145817441 c 0,23,24
 339.015647438 551.992076898 339.015647438 551.992076898 392.911941435 613.23786553 c 1,25,26
 416.824965267 630.117647059 416.824965267 630.117647059 435.346820249 630.117647059 c 128,-1,27
 453.868675231 630.117647059 453.868675231 630.117647059 465.823308034 618.910178806 c 0,28,29
 478.523346413 607.003892825 478.523346413 607.003892825 478.522542772 587.000630597 c 128,-1,30
 478.52173913 566.997368369 478.52173913 566.997368369 465.218803209 545.228927769 c 1,31,32
 443.383446927 519.234456006 443.383446927 519.234456006 429.899276251 503.877483847 c 0,33,34
 376.342673291 442.882463809 376.342673291 442.882463809 346.936077865 393.904638381 c 0,35,36
 339.678926435 381.817571152 339.678926435 381.817571152 332.396676681 368.240464203 c 0,37,38
 292.05861808 283.603225906 292.05861808 283.603225906 282.916938541 251.847916765 c 0,39,40
 272.153846154 214.460332684 272.153846154 214.460332684 272.153846154 186.972503157 c 128,-1,41
 272.153846154 159.48467363 272.153846154 159.48467363 275.933170797 119.423832414 c 0,42,43
 280.633756705 69.5976217887 280.633756705 69.5976217887 309.121796532 19.2687514282 c 0,44,45
 314.867892242 8.9257791489 314.867892242 8.9257791489 334.822084468 -13.8790119664 c 1,46,47
 341.666666667 -29.5237712772 341.666666667 -29.5237712772 341.666666667 -42.8888888889 c 0,0,1
EndSplineSet
EndChar

StartChar: parenright
Encoding: 41 41 8
Width: 500
Flags: W
LayerCount: 2
Fore
SplineSet
301.325564057 266.62023811 m 0,0,1
 311.24 313.403982715 311.24 313.403982715 311.24 340.549322193 c 0,2,3
 311.24 360.181905525 311.24 360.181905525 308.136335356 372.596564102 c 0,4,5
 306.154856782 399.346524844 306.154856782 399.346524844 300.393772035 419.51032146 c 128,-1,6
 294.632687287 439.674118076 294.632687287 439.674118076 288.238588953 459.839962869 c 0,7,8
 276.678137323 496.299563761 276.678137323 496.299563761 254.344581871 547.057644332 c 1,9,10
 253.555555556 554.158881174 253.555555556 554.158881174 253.555555556 558.827160494 c 0,11,12
 253.555555556 575.656989495 253.555555556 575.656989495 261.429974653 591.968286196 c 128,-1,13
 269.30439375 608.279582898 269.30439375 608.279582898 283.746909607 617.698614978 c 128,-1,14
 298.189425464 627.117647059 298.189425464 627.117647059 314.351211073 627.117647059 c 0,15,16
 336.570172216 627.117647059 336.570172216 627.117647059 353.058560659 609.130314212 c 2,17,-1
 354.907692317 607.113081591 l 1,18,19
 380.4896895 543.485969631 380.4896895 543.485969631 384.7347977 531.624637841 c 128,-1,20
 388.979905899 519.763306051 388.979905899 519.763306051 392.820362575 507.473844689 c 128,-1,21
 396.693463484 495.079921781 396.693463484 495.079921781 399.918127081 482.310254188 c 128,-1,22
 403.142790678 469.540586595 403.142790678 469.540586595 405.719743375 456.398127839 c 0,23,24
 410.849987761 430.233881474 410.849987761 430.233881474 413.958087942 400.188913052 c 1,25,26
 415.515151515 371.227530595 415.515151515 371.227530595 415.515151515 354.552095459 c 128,-1,27
 415.515151515 337.876660323 415.515151515 337.876660323 415.29321696 329.318341685 c 128,-1,28
 415.071282405 320.760023047 415.071282405 320.760023047 414.617652195 312.746778271 c 128,-1,29
 414.164021984 304.733533495 414.164021984 304.733533495 413.467460268 297.394619458 c 128,-1,30
 412.770898552 290.05570542 412.770898552 290.05570542 411.828218679 283.29802066 c 0,31,32
 407.926304349 255.326799731 407.926304349 255.326799731 391.849821636 207.100684538 c 0,33,34
 388.129449949 195.940340779 388.129449949 195.940340779 384.485859667 186.571108624 c 0,35,36
 373.611634242 158.608814673 373.611634242 158.608814673 336.993268668 93.000909687 c 128,-1,37
 300.374903094 27.3930047008 300.374903094 27.3930047008 233.454761806 -50.6804934688 c 0,38,39
 221.155461388 -65.2160303263 221.155461388 -65.2160303263 205.001418363 -76.3567496539 c 0,40,41
 190.887275364 -86.0906413775 190.887275364 -86.0906413775 175.928519699 -97.8439494 c 1,42,43
 157.126857321 -106.75 157.126857321 -106.75 143.15625 -106.75 c 1,44,-1
 132.991730745 -105.58677363 l 1,45,46
 114.575284648 -101.166826567 114.575284648 -101.166826567 105.30830011 -86.4941010477 c 0,47,48
 99.2105263158 -76.8392925403 99.2105263158 -76.8392925403 99.2105263158 -64.3060941828 c 0,49,50
 99.2105263158 -38.841742499 99.2105263158 -38.841742499 122.592385996 -12.1196171505 c 1,51,52
 133.865347557 -3.10124790155 133.865347557 -3.10124790155 144.858504194 5.02412874336 c 128,-1,53
 155.851660831 13.1495053883 155.851660831 13.1495053883 163.867321162 21.0792138557 c 0,54,55
 203.167938561 69.2957195622 203.167938561 69.2957195622 244.541691344 131.599727127 c 128,-1,56
 285.915444128 193.903734693 285.915444128 193.903734693 301.325564057 266.62023811 c 0,0,1
EndSplineSet
EndChar

StartChar: asterisk
Encoding: 42 42 9
Width: 500
Flags: W
LayerCount: 2
Fore
SplineSet
134.933333333 380.471111111 m 0,0,1
 134.933333333 387.234135724 134.933333333 387.234135724 136.44663671 393.644641315 c 0,2,3
 141.536190555 414.002856695 141.536190555 414.002856695 156.869685788 428.058560659 c 0,4,5
 173.169437797 443 173.169437797 443 195 443 c 2,6,-1
 195.689672643 443 l 1,7,8
 219.276204483 440.855769833 219.276204483 440.855769833 247.861890582 410.840799429 c 0,9,10
 257.825633721 400.378869133 257.825633721 400.378869133 266.837914729 388.535120312 c 1,11,12
 281.242694039 425.271147863 281.242694039 425.271147863 292.597528418 464.202008592 c 0,13,14
 300.55279428 491.477205832 300.55279428 491.477205832 317.438051655 510.238602916 c 128,-1,15
 334.323309031 529 334.323309031 529 357 529 c 0,16,17
 378.563495209 529 378.563495209 529 391.570068904 511.402870882 c 0,18,19
 399.851851852 500.198105718 399.851851852 500.198105718 399.851851852 483.855967078 c 0,20,21
 399.851851852 469.622669539 399.851851852 469.622669539 388.535663651 430.451249145 c 0,22,23
 383.231593327 412.091005858 383.231593327 412.091005858 368.488715184 370.690115187 c 1,24,25
 372.750210041 372.64341513 372.750210041 372.64341513 377.266101481 374.578797176 c 0,26,27
 386.988778279 378.745658661 386.988778279 378.745658661 401.632850131 385.310242594 c 128,-1,28
 416.276921983 391.874826528 416.276921983 391.874826528 432.260105196 397.937413264 c 128,-1,29
 448.243288409 404 448.243288409 404 460 404 c 0,30,31
 485.313210107 404 485.313210107 404 497.229392931 384.934107482 c 0,32,33
 504.857142857 372.7297076 504.857142857 372.7297076 504.857142857 358.326530612 c 0,34,35
 504.857142857 331.940364308 504.857142857 331.940364308 479.905940958 311.818427292 c 0,36,37
 463.372902521 298.485331779 463.372902521 298.485331779 442.212963086 286.847365089 c 128,-1,38
 421.175213264 275.276602688 421.175213264 275.276602688 400.562895729 267.877309213 c 0,39,40
 384.208714463 262.006577477 384.208714463 262.006577477 368.95631719 255.421374713 c 1,41,-1
 384.802792396 212.924009387 l 1,42,43
 390.454545455 201.184282037 390.454545455 201.184282037 390.454545455 190.80669914 c 128,-1,44
 390.454545455 180.429116244 390.454545455 180.429116244 388.276171555 171.171027173 c 0,45,46
 383.46516072 150.724231122 383.46516072 150.724231122 366.962642195 136.862115561 c 128,-1,47
 350.46012367 123 350.46012367 123 330 123 c 0,48,49
 320.09286898 123 320.09286898 123 310.631811619 129.342270883 c 0,50,51
 297.186495191 138.355411342 297.186495191 138.355411342 290.412036479 148.032961604 c 128,-1,52
 283.637577767 157.710511867 283.637577767 157.710511867 278.98009784 169.742335014 c 128,-1,53
 274.322617912 181.774158161 274.322617912 181.774158161 269.593435125 190.707058981 c 128,-1,54
 264.864252337 199.639959801 264.864252337 199.639959801 264.059110455 201.268480528 c 0,55,56
 262.432885485 204.557765472 262.432885485 204.557765472 261.065587087 207.801507667 c 1,57,-1
 178.337950047 145.916887073 l 1,58,59
 158.930150805 135 158.930150805 135 142 135 c 0,60,61
 117.570359089 135 117.570359089 135 106.177511069 153.716821747 c 0,62,63
 99.5454545455 164.612343179 99.5454545455 164.612343179 99.5454545455 177.553719008 c 0,64,65
 99.5454545455 196.130536525 99.5454545455 196.130536525 111.914169264 215.159327496 c 0,66,67
 119.897754763 227.441766725 119.897754763 227.441766725 133.073003321 237.05294651 c 2,68,-1
 197.264965282 285.588332384 l 1,69,70
 187.082471394 294.638818191 187.082471394 294.638818191 178.64221935 305.189133246 c 128,-1,71
 170.201967307 315.7394483 170.201967307 315.7394483 163.853070413 323.95566781 c 2,72,-1
 145.397236538 346.866781962 l 1,73,74
 134.933333333 363.038268733 134.933333333 363.038268733 134.933333333 380.471111111 c 0,0,1
EndSplineSet
EndChar

StartChar: plus
Encoding: 43 43 10
Width: 500
Flags: W
LayerCount: 2
Fore
SplineSet
89.412454344 306.543428181 m 0,0,1
 93.5063609641 325.944630034 93.5063609641 325.944630034 110.673582075 341.840204741 c 128,-1,2
 127.840803187 357.735779449 127.840803187 357.735779449 155.308706351 358.984320502 c 1,3,-1
 257.99185048 359.895253439 l 1,4,-1
 284.700146441 477.780145958 l 1,5,6
 295.799990756 502.446466657 295.799990756 502.446466657 311.770949095 515.223233329 c 128,-1,7
 327.741907434 528 327.741907434 528 346 528 c 128,-1,8
 364.20904375 528 364.20904375 528 377.604521875 514.604521875 c 128,-1,9
 391 501.20904375 391 501.20904375 391 476 c 2,10,-1
 391 474.292532684 l 1,11,-1
 364.826137553 360 l 1,12,-1
 474.170546279 360 l 1,13,14
 499.647503463 352.506777299 499.647503463 352.506777299 508.040329026 334.958142031 c 0,15,16
 513.058823529 324.464926251 513.058823529 324.464926251 513.058823529 312.989619377 c 0,17,18
 513.058823529 287.125904218 513.058823529 287.125904218 492.130314212 267.941439341 c 0,19,20
 477.392448759 254.431729343 477.392448759 254.431729343 452.951877256 248 c 1,21,-1
 338.942515749 248 l 1,22,-1
 312.570191215 133.416796855 l 2,23,24
 305.253441114 105.3692548 305.253441114 105.3692548 286.810018727 90.7417129065 c 128,-1,25
 268.222641584 76 268.222641584 76 248.534779663 76 c 128,-1,26
 228.846917742 76 228.846917742 76 215.836054479 92.0722428542 c 0,27,28
 205.619047619 104.693251328 205.619047619 104.693251328 205.619047619 126.036281179 c 0,29,30
 205.619047619 130.499196453 205.619047619 130.499196453 206.155724724 136.402644602 c 2,31,-1
 232.070843191 247.837654013 l 1,32,-1
 132.93406893 246.990331156 l 1,33,34
 97.1348317812 252.360216728 97.1348317812 252.360216728 89.2170642496 280.83173875 c 0,35,36
 87.5454545455 286.842684679 87.5454545455 286.842684679 87.5454545455 293.289200068 c 128,-1,37
 87.5454545455 299.735715457 87.5454545455 299.735715457 89.412454344 306.543428181 c 0,0,1
EndSplineSet
EndChar

StartChar: comma
Encoding: 44 44 11
Width: 500
Flags: W
LayerCount: 2
Fore
SplineSet
228 55 m 0,0,1
 188 16 l 0,2,3
 169 -8 l 4,4,5
 150 -38 150 -38 132 -68 c 0,6,7
 118 -85 l 0,8,9
 79 -127 79 -127 112.5 -143 c 128,-1,10
 146 -159 146 -159 157.344726562 -161.254882812 c 256,11,12
 172 -163 172 -163 188.837890625 -155.450195312 c 0,13,14
 206 -148 206 -148 212.594726562 -138.03515625 c 0,15,16
 241 -100 241 -100 286.629882812 -44.1875 c 0,17,18
 333 12 333 12 359.559570312 49.66015625 c 0,19,20
 368 62 368 62 370.610351562 70.9453125 c 0,21,22
 375 90 375 90 358.455078125 100.9375 c 0,23,24
 346 110 346 110 282 99 c 0,25,26
 259 95 259 95 228 55 c 0,0,1
EndSplineSet
EndChar

StartChar: hyphen
Encoding: 45 45 12
Width: 500
Flags: W
LayerCount: 2
Fore
SplineSet
195.5 359 m 1,0,-1
 340.5 360 l 1,1,-1
 472.170546279 360 l 1,2,3
 497.647503463 352.506777299 497.647503463 352.506777299 506.040329026 334.958142031 c 0,4,5
 511.058823529 324.464926251 511.058823529 324.464926251 511.058823529 315.694437292 c 128,-1,6
 511.058823529 306.923948332 511.058823529 306.923948332 509.844790114 301.490519551 c 128,-1,7
 508.6307567 296.05709077 508.6307567 296.05709077 506.839507691 291.587009113 c 128,-1,8
 505.048258682 287.116927455 505.048258682 287.116927455 502.564621849 283.006723928 c 0,9,10
 487.170808375 257.531297888 487.170808375 257.531297888 450.974277482 248.005894784 c 1,11,-1
 134.895177032 246.996166979 l 1,12,13
 98.9440096746 252.388777517 98.9440096746 252.388777517 90.8670609757 281.698268104 c 0,14,15
 89.1 288.110548158 89.1 288.110548158 89.1 292.394316837 c 128,-1,16
 89.1 296.678085516 89.1 296.678085516 89.2413672551 298.593547415 c 0,17,18
 90.9220280574 321.365735567 90.9220280574 321.365735567 110.436091097 340.182867783 c 128,-1,19
 129.950154136 359 129.950154136 359 158 359 c 2,20,-1
 195.5 359 l 1,0,-1
EndSplineSet
EndChar

StartChar: period
Encoding: 46 46 13
Width: 500
Flags: W
LayerCount: 2
Fore
SplineSet
315.346594378 129.697584447 m 0,0,1
 331 109.571777218 331 109.571777218 331 84.5306122449 c 0,2,3
 331 74.8344990522 331 74.8344990522 328.632237972 64.6869475049 c 0,4,5
 320.478166387 28.5760590569 320.478166387 28.5760590569 288.859809689 3.28137369856 c 128,-1,6
 257.258092566 -22 257.258092566 -22 224.380204959 -22 c 128,-1,7
 191.502317352 -22 191.502317352 -22 170.492868436 6.01259855437 c 0,8,9
 155.914893617 25.4498983132 155.914893617 25.4498983132 155.914893617 50.3304662743 c 0,10,11
 155.914893617 60.4486216354 155.914893617 60.4486216354 158.391582599 71.4168156975 c 0,12,13
 166.512988443 106.222840743 166.512988443 106.222840743 196.800051144 131.938271338 c 0,14,15
 227.494976012 158 227.494976012 158 260.414290258 158 c 128,-1,16
 293.333604503 158 293.333604503 158 315.346594378 129.697584447 c 0,0,1
EndSplineSet
EndChar

StartChar: slash
Encoding: 47 47 14
Width: 500
Flags: W
LayerCount: 2
Fore
SplineSet
534 723 m 0,0,1
 555.363004461 723 555.363004461 723 568.375741929 706.159986807 c 0,2,3
 577.28 694.636829303 577.28 694.636829303 577.28 678.8032 c 0,4,5
 577.28 666.057408895 577.28 666.057408895 573.225014792 656.152035021 c 128,-1,6
 569.170029583 646.246661147 569.170029583 646.246661147 564.977427707 638.460400519 c 0,7,8
 454.681362254 462.989387299 454.681362254 462.989387299 344.163495625 289.961415111 c 2,9,-1
 121.97046148 -59.1274150583 l 1,10,11
 108.895996386 -73.5093266612 108.895996386 -73.5093266612 95.3979297873 -79.2942123466 c 128,-1,12
 82.0844252625 -85 82.0844252625 -85 71 -85 c 0,13,14
 49.0738427104 -85 49.0738427104 -85 37.097888044 -67.4352664893 c 0,15,16
 29.6086956522 -56.451117648 29.6086956522 -56.451117648 29.6086956522 -40.8241965974 c 0,17,18
 29.6086956522 -29.7306094226 29.6086956522 -29.7306094226 31.136175029 -25.1481712923 c 0,19,20
 33.5852091458 -17.8010689419 33.5852091458 -17.8010689419 36.0226996199 -8.05110704536 c 1,21,22
 147.318637746 169.010612701 147.318637746 169.010612701 257.836504375 342.038584889 c 0,23,24
 479.336504375 690.038584889 479.336504375 690.038584889 480.325547347 691.414763041 c 0,25,26
 505.836700275 723 505.836700275 723 534 723 c 0,0,1
EndSplineSet
EndChar

StartChar: zero
Encoding: 48 48 15
Width: 500
Flags: W
LayerCount: 2
Fore
SplineSet
454.457539383 312.6171875 m 1,0,1
 409.951719883 285.321289062 409.951719883 285.321289062 330.476663854 234.654296875 c 0,2,3
 266.133861894 194.170898438 266.133861894 194.170898438 195.072440829 148.377929688 c 1,4,5
 198.804653871 135.166015625 198.804653871 135.166015625 204.312396023 118.345703125 c 1,6,7
 222.061330824 90.724609375 222.061330824 90.724609375 257.49139979 86.009765625 c 1,8,9
 294.827302211 86.6142578125 294.827302211 86.6142578125 331.601730629 121.391601562 c 0,10,-1
 332.738450639 123.616210938 l 1,11,12
 387.253338778 166.203125 387.253338778 166.203125 408.487649936 203.395507812 c 0,13,14
 440.706723237 266.248046875 440.706723237 266.248046875 454.457539383 312.6171875 c 1,0,1
445.240890656 474.826171875 m 1,15,16
 431.581181613 486.577148438 431.581181613 486.577148438 420.045539316 491.944335938 c 0,17,18
 405.653795299 496.762695312 405.653795299 496.762695312 400.15770638 497.10546875 c 0,19,20
 399.464868648 497.10546875 399.464868648 497.10546875 398.779446611 497.094726562 c 0,21,22
 352.226895463 492.076171875 352.226895463 492.076171875 320.660403268 467.03125 c 1,23,24
 291.333450774 450.806640625 291.333450774 450.806640625 254.358798608 393.159179688 c 0,25,26
 223.176863135 337.224609375 223.176863135 337.224609375 206.094281444 267.349609375 c 1,27,28
 407.435680719 395.645507812 407.435680719 395.645507812 463.754701362 430.584960938 c 1,29,30
 460.674010041 449.922851562 460.674010041 449.922851562 445.240890656 474.826171875 c 1,15,16
277.833708852 -22.8779296875 m 1,31,32
 260.571031726 -25 260.571031726 -25 250.928510266 -25 c 128,-1,33
 241.28492942 -25 241.28492942 -25 237.463728046 -24.875 c 128,-1,34
 233.642526672 -24.75 233.642526672 -24.75 229.871116388 -24.4990234375 c 0,35,36
 191.337049632 -22.0712890625 191.337049632 -22.0712890625 168.422554006 -11.4150390625 c 0,37,38
 145.508058379 -0.2021484375 145.508058379 -0.2021484375 133.665039062 9.396484375 c 0,39,40
 122.319335938 18.4765625 122.319335938 18.4765625 116.048828125 26.6337890625 c 0,41,42
 109.778320312 35.177734375 109.778320312 35.177734375 105.229492188 45.3740234375 c 0,43,44
 92.75390625 76.1220703125 92.75390625 76.1220703125 86.830078125 110.584960938 c 1,45,46
 82.2822265625 110.080078125 82.2822265625 110.080078125 75.0615234375 110.080078125 c 128,-1,47
 67.8408203125 110.080078125 67.8408203125 110.080078125 59.470703125 112.4921875 c 0,48,49
 40.734375 116.755859375 40.734375 116.755859375 40.734375 127.197265625 c 0,50,51
 40.734375 150.943359375 40.734375 150.943359375 67.3955078125 177.604492188 c 0,52,53
 74.396484375 184.60546875 74.396484375 184.60546875 82 190.068359375 c 1,54,-1
 82 190.5703125 l 1,55,56
 87.90234375 269.272460938 87.90234375 269.272460938 120.9296875 355.209960938 c 0,57,58
 136.354492188 398.344726562 136.354492188 398.344726562 164.531433227 444.565429688 c 0,59,60
 192.944136543 485.381835938 192.944136543 485.381835938 231.100002885 520.095703125 c 0,61,62
 269.255869227 557.919921875 269.255869227 557.919921875 310.557049371 582.508789062 c 0,63,64
 357.843754262 609.22265625 357.843754262 609.22265625 419.311385573 609.22265625 c 0,65,66
 456.81678958 609.22265625 456.81678958 609.22265625 481.342609656 598.758789062 c 0,67,68
 540.780273438 568.557617188 540.780273438 568.557617188 562.733398438 514.115234375 c 0,69,70
 569.399414062 491.41015625 569.399414062 491.41015625 572.337890625 466.983398438 c 1,71,72
 578.020507812 467.76953125 578.020507812 467.76953125 586.083984375 467.76953125 c 128,-1,73
 594.1484375 467.76953125 594.1484375 467.76953125 602.727539062 465.127929688 c 0,74,75
 611.307617188 462.887695312 611.307617188 462.887695312 616.286132812 458.677734375 c 0,76,77
 621.265625 455.223632812 621.265625 455.223632812 621.265625 452.131835938 c 0,78,79
 621.265625 445.206054688 621.265625 445.206054688 620.345703125 441.130859375 c 128,-1,80
 619.424804688 437.055664062 619.424804688 437.055664062 618.31640625 433.948242188 c 128,-1,81
 617.208007812 430.83984375 617.208007812 430.83984375 615.771484375 427.875 c 128,-1,82
 614.333984375 424.909179688 614.333984375 424.909179688 612.510742188 421.931640625 c 128,-1,83
 610.686523438 418.954101562 610.686523438 418.954101562 608.60546875 416.111328125 c 128,-1,84
 606.5234375 413.26953125 606.5234375 413.26953125 604.06640625 410.377929688 c 0,85,86
 592.365234375 396.609375 592.365234375 396.609375 575.37109375 384.58984375 c 1,87,88
 571.984375 346.162109375 571.984375 346.162109375 562.614257812 308.600585938 c 0,89,90
 553.41796875 265.758789062 553.41796875 265.758789062 539.123046875 225.9375 c 1,91,-1
 538.637695312 224.75 l 2,92,93
 521.133106916 186.9453125 521.133106916 186.9453125 492.293471482 143.489257812 c 0,94,95
 463.453836048 105.348632812 463.453836048 105.348632812 426.509906043 71.833984375 c 0,96,97
 380.635361239 26.060546875 380.635361239 26.060546875 319.824548573 -6.9404296875 c 0,98,99
 295.43327038 -19.0927734375 295.43327038 -19.0927734375 277.833708852 -22.8779296875 c 1,31,32
EndSplineSet
EndChar

StartChar: one
Encoding: 49 49 16
Width: 500
Flags: W
LayerCount: 2
Fore
SplineSet
69.2216796875 91.4091796875 m 0,0,1
 80.8369140625 96.494140625 80.8369140625 96.494140625 98.1162109375 98.5546875 c 0,2,3
 137.406228641 103.1328125 137.406228641 103.1328125 248.604627904 97.919921875 c 1,4,5
 283.562621933 211.39453125 283.562621933 211.39453125 293.238289799 261.5078125 c 128,-1,6
 302.91286177 311.62109375 302.91286177 311.62109375 339.261548121 433.682617188 c 1,7,8
 264.399780352 383.823242188 264.399780352 383.823242188 238.360189891 375.5390625 c 0,9,10
 232.303171395 374.998046875 232.303171395 374.998046875 228.614384665 374.998046875 c 0,11,12
 202.842192886 374.998046875 202.842192886 374.998046875 190.139659616 391.165039062 c 0,13,14
 180.79276062 403.059570312 180.79276062 403.059570312 180.79276062 417.202148438 c 0,15,16
 180.79276062 428.26171875 180.79276062 428.26171875 185.185112733 436.588867188 c 128,-1,17
 189.57636895 444.916992188 189.57636895 444.916992188 193.049264122 449.450195312 c 128,-1,18
 196.522159294 453.983398438 196.522159294 453.983398438 201.595062969 458.009765625 c 128,-1,19
 206.667966645 462.037109375 206.667966645 462.037109375 210.087162901 464.618164062 c 0,20,21
 239.070330652 486.494140625 239.070330652 486.494140625 328.389161565 546.4296875 c 0,22,23
 328.823136475 546.7109375 328.823136475 546.7109375 411.729492188 599.27734375 c 1,24,25
 429.208007812 606 429.208007812 606 440 606 c 0,26,27
 464.163085938 606 464.163085938 606 475.783203125 589.307617188 c 0,28,29
 481.596679688 580.95703125 481.596679688 580.95703125 482.797851562 572.689453125 c 128,-1,30
 484 564.420898438 484 564.420898438 484 558.390625 c 2,31,-1
 484 556.529296875 l 1,32,33
 434.66796875 378.22265625 434.66796875 378.22265625 417.27734375 283.123046875 c 0,34,35
 400.573654831 194.278320312 400.573654831 194.278320312 368.456223845 96.9736328125 c 1,36,37
 397.951175138 95.4208984375 397.951175138 95.4208984375 421.584960938 97.46484375 c 0,38,39
 437.360351562 98.2978515625 437.360351562 98.2978515625 452.43359375 97.087890625 c 128,-1,40
 467.5078125 95.876953125 467.5078125 95.876953125 475.563476562 93.890625 c 0,41,42
 493.283203125 89.521484375 493.283203125 89.521484375 497.826171875 78.3642578125 c 0,43,44
 503 68.009765625 503 68.009765625 503.166992188 55.578125 c 128,-1,45
 503.166992188 43.189453125 503.166992188 43.189453125 495.458007812 32.43359375 c 128,-1,46
 487.75 21.677734375 487.75 21.677734375 472.58203125 8.4384765625 c 1,47,48
 462.483398438 0.865234375 462.483398438 0.865234375 448.5703125 -1.7548828125 c 128,-1,49
 434.657226562 -4.375 434.657226562 -4.375 412.935546875 -4.375 c 0,50,51
 389.557705867 -4.375 389.557705867 -4.375 354.723548114 -1 c 1,52,-1
 305.152873676 -1 l 2,53,54
 254.209041254 -1 254.209041254 -1 170.895721714 4.0087890625 c 0,55,56
 148.451766803 4.3330078125 148.451766803 4.3330078125 127.888671875 4.3330078125 c 0,57,58
 90.6572265625 4.3330078125 90.6572265625 4.3330078125 58.8759765625 2.98046875 c 1,59,60
 43.0625 3.8662109375 43.0625 3.8662109375 35.7080078125 15.138671875 c 0,61,62
 30.86328125 22.5625 30.86328125 22.5625 30.86328125 30.9912109375 c 0,63,64
 30.86328125 39.9375 30.86328125 39.9375 32.3330078125 46.94140625 c 0,65,66
 39.9736328125 80.8935546875 39.9736328125 80.8935546875 69.2216796875 91.4091796875 c 0,0,1
EndSplineSet
EndChar

StartChar: two
Encoding: 50 50 17
Width: 500
Flags: W
LayerCount: 2
Fore
SplineSet
209.9448256 115 m 1,0,-1
 375.273787895 115 l 1,1,-1
 432.123341988 116 l 2,2,3
 445.267841943 116 445.267841943 116 454.835296196 110.731445312 c 0,4,5
 473 99.912109375 473 99.912109375 473 69.625 c 0,6,7
 473 59.7470703125 473 59.7470703125 470.12890625 47.54296875 c 1,8,-1
 449.363047644 12.4580078125 l 2,9,10
 445.4028248 6.3662109375 445.4028248 6.3662109375 437.688119112 4.0625 c 128,-1,11
 429.973413424 1.7578125 429.973413424 1.7578125 419.489382031 0.3935546875 c 0,12,13
 398.908850672 -2.28515625 398.908850672 -2.28515625 355.957087961 -3.9853515625 c 2,14,-1
 355.583707962 -4 l 1,15,-1
 114.134765625 -4 l 1,16,17
 89.9375 -1.3291015625 89.9375 -1.3291015625 78.677734375 14.3994140625 c 0,18,19
 70.1220703125 26.3505859375 70.1220703125 26.3505859375 70.1220703125 44.537109375 c 0,20,21
 70.1220703125 57.0576171875 70.1220703125 57.0576171875 72.28515625 61.7587890625 c 0,22,23
 88.2451171875 96.4443359375 88.2451171875 96.4443359375 97.4423828125 117.172851562 c 128,-1,24
 106.639648438 137.901367188 106.639648438 137.901367188 116.012695312 152.692382812 c 128,-1,25
 125.385742188 167.484375 125.385742188 167.484375 137.578125 182.518554688 c 0,26,27
 161.91796875 212.53125 161.91796875 212.53125 185.706694254 232.317382812 c 0,28,29
 210.252891314 252.102539062 210.252891314 252.102539062 226.264688402 263.9296875 c 128,-1,30
 242.27648549 275.756835938 242.27648549 275.756835938 245.199299766 278.03515625 c 128,-1,31
 248.123202613 280.313476562 248.123202613 280.313476562 251.08520546 282.58984375 c 128,-1,32
 254.048296879 284.8671875 254.048296879 284.8671875 257.052754012 287.143554688 c 128,-1,33
 260.056122573 289.420898438 260.056122573 289.420898438 263.099768277 291.696289062 c 128,-1,34
 266.143413981 293.971679688 266.143413981 293.971679688 269.228425399 296.247070312 c 128,-1,35
 272.313436817 298.522460938 272.313436817 298.522460938 275.438725378 300.795898438 c 128,-1,36
 278.562925367 303.0703125 278.562925367 303.0703125 281.729579642 305.34375 c 0,37,38
 319.608599513 332.549804688 319.608599513 332.549804688 354.251296538 352.392578125 c 128,-1,39
 388.893993563 372.235351562 388.893993563 372.235351562 414.262062049 396.049804688 c 0,40,41
 437.87753054 418.638671875 437.87753054 418.638671875 445.849139084 451.063476562 c 0,42,43
 447.368784793 456.670898438 447.368784793 456.670898438 447.368784793 460.018554688 c 0,44,45
 447.368784793 487.9609375 447.368784793 487.9609375 434.879604836 501.40625 c 0,46,47
 428.199042001 508.59765625 428.199042001 508.59765625 420.65741917 509.993164062 c 0,48,49
 380.35741645 509.6328125 380.35741645 509.6328125 341.526985153 488.642578125 c 0,50,51
 299.48309101 465.915039062 299.48309101 465.915039062 260.753896856 434.149414062 c 1,52,53
 238.768019788 421 238.768019788 421 216.986794148 421 c 0,54,55
 200.026851348 421 200.026851348 421 187.646528533 428.668945312 c 0,56,57
 169.663328594 439.810546875 169.663328594 439.810546875 169.663328594 461.626953125 c 0,58,59
 169.663328594 486.384765625 169.663328594 486.384765625 193.61081137 511.311523438 c 1,60,61
 255.275116875 557.993164062 255.275116875 557.993164062 307.418776698 582.5703125 c 0,62,63
 376.219756464 615 376.219756464 615 434.352736266 615 c 0,64,65
 471.154296875 615 471.154296875 615 497.201171875 600.256835938 c 128,-1,66
 523.186523438 585.547851562 523.186523438 585.547851562 538.3984375 559.50390625 c 0,67,68
 558.48046875 525.123046875 558.48046875 525.123046875 558.48046875 478.669921875 c 0,69,70
 558.48046875 452.8515625 558.48046875 452.8515625 551.616210938 424.07421875 c 0,71,72
 548.086914062 409.645507812 548.086914062 409.645507812 541.653320312 395.927734375 c 0,73,74
 519.584960938 350.32421875 519.584960938 350.32421875 490.15234375 321.565429688 c 128,-1,75
 460.719726562 292.806640625 460.719726562 292.806640625 426.620613435 273.043945312 c 128,-1,76
 392.448179266 253.28125 392.448179266 253.28125 373.396002188 242.434570312 c 128,-1,77
 354.344913681 231.587890625 354.344913681 231.587890625 347.233276562 227.188476562 c 128,-1,78
 340.122728015 222.790039062 340.122728015 222.790039062 333.286499467 218.196289062 c 0,79,80
 319.624928085 209.015625 319.624928085 209.015625 307.03124527 199.038085938 c 2,81,-1
 249.654822608 153.306640625 l 2,82,83
 229.388888391 137.07421875 229.388888391 137.07421875 209.9448256 115 c 1,0,-1
EndSplineSet
EndChar

StartChar: three
Encoding: 51 51 18
Width: 500
Flags: W
LayerCount: 2
Fore
SplineSet
93.0576171875 147.953125 m 128,-1,1
 109.540039062 161.115234375 109.540039062 161.115234375 131 161.115234375 c 2,2,-1
 132.252929688 161.115234375 l 1,3,4
 142.409179688 159.506835938 142.409179688 159.506835938 160.934570312 148.499023438 c 0,5,6
 180.900333446 137.446289062 180.900333446 137.446289062 190.692237702 125.547851562 c 0,7,8
 196.898543308 118.006835938 196.898543308 118.006835938 212.242940814 108.514648438 c 128,-1,9
 227.587338319 99.0224609375 227.587338319 99.0224609375 258.204093906 96.4716796875 c 0,10,11
 281.757711331 96.6201171875 281.757711331 96.6201171875 304.149965907 106.142578125 c 128,-1,12
 326.542220483 115.666015625 326.542220483 115.666015625 344.295572697 132.060546875 c 128,-1,13
 362.050016418 148.456054688 362.050016418 148.456054688 374.990916747 169.58984375 c 128,-1,14
 388.016954578 190.862304688 388.016954578 190.862304688 394.211253614 212.815429688 c 0,15,16
 395.957663915 219.251953125 395.957663915 219.251953125 395.957663915 227.068359375 c 128,-1,17
 395.957663915 234.883789062 395.957663915 234.883789062 389.766639398 242.044921875 c 0,18,19
 367.587228578 267.702148438 367.587228578 267.702148438 312.26640778 275.383789062 c 0,20,21
 286.227430195 279 286.227430195 279 267.481898629 279 c 2,22,-1
 265.055479817 279 l 1,23,24
 236.580259862 286.004882812 236.580259862 286.004882812 227.199853534 302.409179688 c 0,25,26
 221.590601949 312.217773438 221.590601949 312.217773438 221.590601949 320.442382812 c 128,-1,27
 221.590601949 328.666992188 221.590601949 328.666992188 223.534574915 335.711914062 c 0,28,29
 227.675750341 350.720703125 227.675750341 350.720703125 244.469668396 364.180664062 c 128,-1,30
 261.263586451 377.641601562 261.263586451 377.641601562 287.812297543 383.484375 c 1,31,32
 362.832626534 390.866210938 362.832626534 390.866210938 407.876914218 416.350585938 c 0,33,34
 423.028115084 424.922851562 423.028115084 424.922851562 433.112543064 437.272460938 c 1,35,-1
 439.717248521 457.002929688 l 1,36,-1
 440.88516041 477.231445312 l 2,37,38
 440.88516041 484.041015625 440.88516041 484.041015625 428.083972905 488.548828125 c 0,39,40
 412.604228601 494 412.604228601 494 387.700417711 494 c 128,-1,41
 362.795515315 494 362.795515315 494 335.375782086 489.833984375 c 128,-1,42
 307.956048856 485.66796875 307.956048856 485.66796875 279.428436593 472.099609375 c 0,43,44
 265.821717336 464.013671875 265.821717336 464.013671875 252.599208346 457.506835938 c 128,-1,45
 239.376699356 451 239.376699356 451 225.467632817 451 c 0,46,47
 197.633127141 451 197.633127141 451 184.356042829 470.798828125 c 0,48,49
 176.947988634 481.938476562 176.947988634 481.938476562 176.947988634 494.600585938 c 0,50,51
 176.947988634 513.374023438 176.947988634 513.374023438 179.850304253 532.01171875 c 1,52,53
 189.967477427 564.875976562 189.967477427 564.875976562 210.84690408 586.5 c 0,54,55
 245.735815864 591.9609375 245.735815864 591.9609375 307.09703329 595.444335938 c 0,56,57
 340.929366842 603.940429688 340.929366842 603.940429688 361.646159036 604.470703125 c 128,-1,58
 382.361859723 605 382.361859723 605 392.664588991 605 c 2,59,-1
 398.253101954 605 l 2,60,61
 479.599609375 605 479.599609375 605 519.453125 568.055664062 c 0,62,63
 551.225585938 538.602539062 551.225585938 538.602539062 551.225585938 492.103515625 c 0,64,65
 551.225585938 471.338867188 551.225585938 471.338867188 545.424804688 450.416992188 c 2,66,-1
 539.424804688 430.393554688 l 2,67,68
 529.135742188 396.0546875 529.135742188 396.0546875 495.397460938 362.047851562 c 0,69,70
 482.059570312 348.604492188 482.059570312 348.604492188 462.512695312 335.711914062 c 1,71,72
 488.227539062 313.372070312 488.227539062 313.372070312 499.775390625 287.91015625 c 0,73,74
 512.235351562 260.436523438 512.235351562 260.436523438 512.235351562 231.041015625 c 0,75,76
 512.235351562 213.9375 512.235351562 213.9375 507.596679688 195.509765625 c 0,77,78
 497.985351562 156.81640625 497.985351562 156.81640625 472.209960938 119.700195312 c 0,79,80
 445.682331205 82.5849609375 445.682331205 82.5849609375 408.278588587 54.166015625 c 128,-1,81
 370.703479458 25.6171875 370.703479458 25.6171875 326.669926736 7.8505859375 c 128,-1,82
 282.63746552 -9.9150390625 282.63746552 -9.9150390625 243.265736795 -10 c 0,83,84
 239.413810575 -10.142578125 239.413810575 -10.142578125 235.584805991 -10.142578125 c 0,85,86
 183.303830623 -10.142578125 183.303830623 -10.142578125 140.47265625 15.6474609375 c 0,87,88
 99.2578125 41.4375 99.2578125 41.4375 75.90234375 74.21484375 c 0,89,90
 69.5458984375 87.1650390625 69.5458984375 87.1650390625 69.5458984375 99.79296875 c 1,91,-1
 71.421875 114.098632812 l 1,92,0
 76.5751953125 134.791015625 76.5751953125 134.791015625 93.0576171875 147.953125 c 128,-1,1
EndSplineSet
EndChar

StartChar: four
Encoding: 52 52 19
Width: 500
InSpiro: 1
Flags: W
LayerCount: 2
Fore
SplineSet
229.109340524 280.43359375 m 1,0,-1
 240.353465814 279 l 1,1,-1
 318.275287706 279 l 1,2,-1
 336.479581487 348.592773438 l 1,3,-1
 350.231744295 368.95703125 l 1,4,-1
 365.729555031 383.682617188 l 1,5,-1
 385.567380625 394.31640625 l 1,6,-1
 405.492656789 397.208984375 l 1,7,-1
 425.320391931 394.330078125 l 1,8,-1
 443.220703125 384.881835938 l 1,9,-1
 453.708007812 366.904296875 l 1,10,-1
 456.416992188 345.229492188 l 1,11,-1
 440.882108854 278 l 1,12,-1
 502.186523438 278 l 1,13,-1
 521.73046875 266.83203125 l 1,14,-1
 534.310546875 252.854492188 l 1,15,-1
 540.408203125 236.0859375 l 1,16,-1
 538.952148438 217.158203125 l 1,17,-1
 531.000976562 199.931640625 l 1,18,-1
 518.486328125 184.9140625 l 1,19,-1
 501.376953125 172.693359375 l 1,20,-1
 479.0234375 164 l 1,21,-1
 430.750175437 164 l 1,22,-1
 410.996436931 164.583984375 l 1,23,-1
 369.826277916 23.5712890625 l 1,24,-1
 359.696586821 3.1328125 l 1,25,-1
 342.375768035 -14.33984375 l 1,26,-1
 319.942454353 -25.203125 l 1,27,-1
 295.816187317 -29.40625 l 1,28,-1
 275.838216578 -24.66015625 l 1,29,-1
 257.910849604 -12.765625 l 1,30,-1
 249.514473665 5.3408203125 l 1,31,-1
 248.106295246 28.697265625 l 1,32,-1
 288.573486213 171.555664062 l 1,33,-1
 256.656270265 172.130859375 l 1,34,-1
 187.279296875 176.045898438 l 1,35,-1
 143.052734375 181.4453125 l 1,36,-1
 111 213.237304688 l 1,37,-1
 112.341796875 249.297851562 l 1,38,-1
 122.439453125 319.397460938 l 1,39,-1
 140.608398438 415.510742188 l 1,40,-1
 165.227539062 489.744140625 l 1,41,-1
 207.836914062 572.916992188 l 1,42,-1
 229.819035539 583.3359375 l 1,43,-1
 245.789976286 585.865234375 l 1,44,-1
 260.152050766 587.116210938 l 1,45,-1
 281.645831395 584.236328125 l 1,46,-1
 299.104553004 572.408203125 l 1,47,-1
 309.217426681 552.294921875 l 1,48,-1
 290.970528776 512.333007812 l 1,49,-1
 274.072387749 463.790039062 l 1,50,-1
 261.551259896 418.5078125 l 1,51,-1
 246.725024695 367.473632812 l 1,52,-1
 229.109340524 280.43359375 l 1,0,-1
EndSplineSet
EndChar

StartChar: five
Encoding: 53 53 20
Width: 500
Flags: W
LayerCount: 2
Fore
SplineSet
289.077160149 442.280273438 m 128,-1,1
 283.371329446 419.866210938 283.371329446 419.866210938 278.804285651 399.875976562 c 1,2,3
 308.134807735 405 308.134807735 405 337.507507113 405 c 0,4,5
 392.426668371 405 392.426668371 405 432.097116036 387.446289062 c 0,6,7
 488.66015625 361.844726562 488.66015625 361.844726562 510.67578125 308.296875 c 0,8,9
 523.400390625 277.34765625 523.400390625 277.34765625 523.400390625 243.348632812 c 0,10,11
 523.400390625 162.248046875 523.400390625 162.248046875 455.907820093 88.3193359375 c 0,12,13
 404.373656958 35.7841796875 404.373656958 35.7841796875 334.982276883 8.1572265625 c 0,14,15
 286.863393006 -11 286.863393006 -11 237.545159953 -11 c 128,-1,16
 188.2269269 -11 188.2269269 -11 148.715820312 3.4580078125 c 0,17,18
 111.231445312 17.9169921875 111.231445312 17.9169921875 80.59765625 44.0126953125 c 1,19,20
 68.93359375 62.0380859375 68.93359375 62.0380859375 68.93359375 80.546875 c 0,21,22
 68.93359375 87.712890625 68.93359375 87.712890625 70.3974609375 94.443359375 c 0,23,24
 75.486328125 116.068359375 75.486328125 116.068359375 92.404296875 131.034179688 c 128,-1,25
 109.321289062 146 109.321289062 146 133 146 c 0,26,27
 145.700195312 145.635742188 145.700195312 145.635742188 157.706054688 141.1328125 c 1,28,29
 191.611925024 114.315429688 191.611925024 114.315429688 227.078702494 108.21484375 c 0,30,31
 239.955754464 106 239.955754464 106 258.951758314 106 c 128,-1,32
 277.948843633 106 277.948843633 106 301.376707646 113.485351562 c 128,-1,33
 324.805653129 120.970703125 324.805653129 120.970703125 346.083556673 134.91796875 c 0,34,35
 391.424146563 164.63671875 391.424146563 164.63671875 403.214322138 210.537109375 c 0,36,37
 405.799033165 220.600585938 405.799033165 220.600585938 405.799033165 229.759765625 c 128,-1,38
 405.799033165 238.918945312 405.799033165 238.918945312 402.285340224 246.540039062 c 0,39,40
 389.442895265 274.395507812 389.442895265 274.395507812 349.255505395 283.390625 c 0,41,42
 328.66109029 288 328.66109029 288 310.929323758 288 c 0,43,44
 279.834925654 288 279.834925654 288 245.537216227 279.106445312 c 0,45,46
 239.986035597 276.1171875 239.986035597 276.1171875 236.772991052 273.743164062 c 128,-1,47
 233.559946506 271.369140625 233.559946506 271.369140625 231.568961987 269.908203125 c 128,-1,48
 229.577977467 268.448242188 229.577977467 268.448242188 227.645392276 267.041015625 c 128,-1,49
 225.712807085 265.633789062 225.712807085 265.633789062 223.840784161 264.28125 c 128,-1,50
 222.073663734 263.004882812 222.073663734 263.004882812 220.24706251 261.838867188 c 128,-1,51
 218.420461286 260.672851562 218.420461286 260.672851562 216.52789045 259.61328125 c 0,52,53
 212.722200865 257.484375 212.722200865 257.484375 206.040885079 254.7421875 c 128,-1,54
 199.360650762 252 199.360650762 252 186.897801438 252 c 0,55,56
 163.89453125 252 163.89453125 252 150.385742188 268.51171875 c 0,57,58
 140.25 280.661132812 140.25 280.661132812 140.25 301.170898438 c 0,59,60
 140.25 308.474609375 140.25 308.474609375 141.280273438 314.602539062 c 0,61,62
 151.307617188 363.366210938 151.307617188 363.366210938 161.98828125 410.584960938 c 0,63,64
 173.241010285 457.8046875 173.241010285 457.8046875 183.706386274 505.186523438 c 1,65,66
 176.279938313 515.280273438 176.279938313 515.280273438 176.279938313 527.38671875 c 0,67,68
 176.279938313 555.588867188 176.279938313 555.588867188 202.839736693 578.458984375 c 0,69,70
 223.211369174 596 223.211369174 596 253.343259824 596 c 0,71,72
 260.884343505 596 260.884343505 596 282.951719454 596.498046875 c 0,73,74
 309.182751244 597.090820312 309.182751244 597.090820312 398.464510073 598.54296875 c 0,75,76
 486.665039062 599.99609375 486.665039062 599.99609375 506.737304688 600.498046875 c 128,-1,77
 526.809570312 601 526.809570312 601 533 601 c 2,78,-1
 535.170898438 601 l 1,79,80
 560.49609375 594.081054688 560.49609375 594.081054688 569.424804688 577.4921875 c 0,81,82
 575 567.135742188 575 567.135742188 575 558.575195312 c 128,-1,83
 575 550.015625 575 550.015625 573.688476562 544.286132812 c 0,84,85
 569.712890625 525.989257812 569.712890625 525.989257812 553.530273438 512.11328125 c 128,-1,86
 537.34765625 498.236328125 537.34765625 498.236328125 512.137695312 492.3828125 c 1,87,88
 455.22865753 490.459960938 455.22865753 490.459960938 402.570848053 490.459960938 c 128,-1,89
 349.911957108 490.459960938 349.911957108 490.459960938 300.415281662 489.021484375 c 1,90,0
 294.782990853 464.501953125 294.782990853 464.501953125 289.077160149 442.280273438 c 128,-1,1
EndSplineSet
EndChar

StartChar: six
Encoding: 54 54 21
Width: 500
Flags: W
LayerCount: 2
Fore
SplineSet
348.378301498 435.702148438 m 0,0,1
 310.54216089 400.18359375 310.54216089 400.18359375 279.829088409 362.134765625 c 1,2,3
 326.558467691 377.045898438 326.558467691 377.045898438 371.022430224 377.045898438 c 128,-1,4
 415.485277336 377.045898438 415.485277336 377.045898438 448.227539062 364.80859375 c 0,5,6
 479.48828125 352.5703125 479.48828125 352.5703125 498.870117188 328.120117188 c 0,7,8
 525.786132812 294.166992188 525.786132812 294.166992188 525.786132812 243.677734375 c 0,9,10
 525.786132812 220.161132812 525.786132812 220.161132812 519.643554688 192.840820312 c 0,11,12
 504.313476562 127.08984375 504.313476562 127.08984375 461.771484375 78.02734375 c 0,13,14
 421.059027952 31.9814453125 421.059027952 31.9814453125 356.376973834 11.93359375 c 0,15,16
 313.529253976 -2 313.529253976 -2 262.535626424 -2 c 128,-1,17
 211.541998873 -2 211.541998873 -2 168.999023438 17.0673828125 c 0,18,19
 129.586914062 36.134765625 129.586914062 36.134765625 111.393554688 74.0263671875 c 0,20,21
 102.158203125 92.6337890625 102.158203125 92.6337890625 97.2998046875 104.994140625 c 128,-1,22
 92.4423828125 117.354492188 92.4423828125 117.354492188 90.7685546875 126.936523438 c 0,23,24
 88 142.786132812 88 142.786132812 88 156.899414062 c 128,-1,25
 88 171.013671875 88 171.013671875 89.0146484375 193.2734375 c 0,26,-1
 89.0263671875 193.494140625 l 2,27,28
 90.140625 211.563476562 90.140625 211.563476562 94.3974609375 229.322265625 c 0,29,30
 106.790039062 279.571289062 106.790039062 279.571289062 133.94921875 331.888671875 c 128,-1,31
 161.109375 384.205078125 161.109375 384.205078125 200.620927775 433.840820312 c 0,32,33
 243.596920862 483.32421875 243.596920862 483.32421875 294.699859512 527.46875 c 128,-1,34
 345.786066872 571.598632812 345.786066872 571.598632812 399.265964209 606.560546875 c 0,35,36
 423.84423013 622 423.84423013 622 445.9609375 622 c 0,37,38
 467.63671875 622 467.63671875 622 480.138671875 605.615234375 c 0,39,40
 488.333007812 594.875976562 488.333007812 594.875976562 488.333007812 581.12109375 c 0,41,42
 488.333007812 554.446289062 488.333007812 554.446289062 461.92578125 529.276367188 c 1,43,44
 406.7035806 490.458007812 406.7035806 490.458007812 348.378301498 435.702148438 c 0,0,1
237.076179198 122.572265625 m 128,-1,46
 258.56473345 111 258.56473345 111 286.455794914 111 c 0,47,48
 322.829620722 111 322.829620722 111 345.109007311 121.68359375 c 128,-1,49
 367.38950932 132.366210938 367.38950932 132.366210938 380.950778077 146.416015625 c 0,50,51
 400.683662235 166.857421875 400.683662235 166.857421875 409.077193029 197.04296875 c 0,52,53
 413.238822716 212.0078125 413.238822716 212.0078125 413.238822716 223.4765625 c 2,54,-1
 412.317486312 233.391601562 l 1,55,56
 405.937287489 264.8359375 405.937287489 264.8359375 360.299903775 267.76171875 c 0,57,58
 356.578864741 268 356.578864741 268 348.762005763 268 c 128,-1,59
 340.945146786 268 340.945146786 268 329.115008898 266.260742188 c 0,60,61
 287.274512735 260.108398438 287.274512735 260.108398438 243.85012106 232.291992188 c 0,62,63
 226.275573393 221.034179688 226.275573393 221.034179688 210.043990653 206.766601562 c 0,64,65
 204.549434813 202.161132812 204.549434813 202.161132812 196.231752536 197.280273438 c 1,66,67
 195.865894981 191.568359375 195.865894981 191.568359375 196.658958157 187.133789062 c 0,68,69
 198.279662508 178.065429688 198.279662508 178.065429688 198.479322576 168.420898438 c 0,70,45
 215.588740364 134.14453125 215.588740364 134.14453125 237.076179198 122.572265625 c 128,-1,46
EndSplineSet
EndChar

StartChar: seven
Encoding: 55 55 22
Width: 500
Flags: W
LayerCount: 2
Fore
SplineSet
377.996534254 245.780273438 m 0,0,1
 296.220414542 130.716796875 296.220414542 130.716796875 254.642884075 17.6396484375 c 1,2,3
 241.110351562 -3.0908203125 241.110351562 -3.0908203125 225.249023438 -12.8486328125 c 0,4,5
 209.387695312 -23 209.387695312 -23 193.075195312 -23 c 0,6,7
 184.131835938 -23 184.131835938 -23 175.454101562 -18.5615234375 c 0,8,9
 166.77734375 -17.119140625 166.77734375 -17.119140625 160.624023438 -14.5322265625 c 0,10,11
 151.217773438 -10.578125 151.217773438 -10.578125 151.217773438 -4.5 c 0,12,13
 151.217773438 6.412109375 151.217773438 6.412109375 152.743164062 11.34375 c 0,14,15
 173.013671875 76.875 173.013671875 76.875 204.37890625 148.727539062 c 0,16,17
 226.189453125 198.692382812 226.189453125 198.692382812 251.844668965 247 c 1,18,-1
 205.869140625 247 l 1,19,20
 177.666992188 251.23046875 177.666992188 251.23046875 167.034179688 269.458007812 c 0,21,22
 160.545898438 280.581054688 160.545898438 280.581054688 160.545898438 293.083007812 c 0,23,24
 160.545898438 318.754882812 160.545898438 318.754882812 182.895507812 341.104492188 c 0,25,26
 200.791015625 359 200.791015625 359 229 359 c 2,27,-1
 268.824722242 359 l 1,28,-1
 328.44294615 359.533203125 l 1,29,30
 349.189198571 384.26953125 349.189198571 384.26953125 371.416858991 408.44140625 c 0,31,32
 409.048328415 449.365234375 409.048328415 449.365234375 447.669583316 484 c 1,33,-1
 193.869140625 484 l 1,34,35
 165.666992188 488.23046875 165.666992188 488.23046875 155.034179688 506.458007812 c 0,36,37
 148.099609375 518.344726562 148.099609375 518.344726562 148.099609375 531.780273438 c 0,38,39
 148.099609375 558.23046875 148.099609375 558.23046875 171.016601562 578.69140625 c 0,40,41
 188.98046875 594.73046875 188.98046875 594.73046875 215.276367188 595.982421875 c 2,42,-1
 215.637695312 596 l 1,43,-1
 595.211914062 596 l 1,44,45
 633 585.340820312 633 585.340820312 633 553.427734375 c 0,46,47
 633 541.053710938 633 541.053710938 628.6953125 532.158203125 c 0,48,49
 621.50390625 517.296875 621.50390625 517.296875 617.604492188 513.630859375 c 0,50,51
 571.1484375 469.951171875 571.1484375 469.951171875 563.283203125 461.822265625 c 0,52,53
 514.960824815 413.989257812 514.960824815 413.989257812 467.367186366 360 c 1,54,-1
 516.261280844 360 l 1,55,56
 543.647460938 352.796875 543.647460938 352.796875 552.040039062 335.926757812 c 0,57,58
 557.05859375 325.838867188 557.05859375 325.838867188 557.05859375 317.408203125 c 128,-1,59
 557.05859375 308.9765625 557.05859375 308.9765625 555.9453125 304.200195312 c 128,-1,60
 554.83203125 299.423828125 554.83203125 299.423828125 553.516601562 295.942382812 c 128,-1,61
 552.200195312 292.459960938 552.200195312 292.459960938 550.443359375 289.2109375 c 128,-1,62
 548.686523438 285.961914062 548.686523438 285.961914062 546.481445312 282.87890625 c 0,63,64
 530.144439253 260.68359375 530.144439253 260.68359375 491.488302044 252.360351562 c 1,65,66
 445.791389069 251.725585938 445.791389069 251.725585938 382.077764239 251.498046875 c 0,67,68
 380.032788958 248.645507812 380.032788958 248.645507812 377.996534254 245.780273438 c 0,0,1
EndSplineSet
EndChar

StartChar: eight
Encoding: 56 56 23
Width: 500
Flags: W
LayerCount: 2
Fore
SplineSet
186.150209278 298.62890625 m 128,-1,1
 208.521734647 310.577148438 208.521734647 310.577148438 226.697724491 319.67578125 c 1,2,3
 199.714123769 346.549804688 199.714123769 346.549804688 185.691692568 376.181640625 c 128,-1,4
 171.668185037 405.813476562 171.668185037 405.813476562 171.668185037 433.697265625 c 0,5,6
 171.668185037 457.529296875 171.668185037 457.529296875 177.585849048 479.84375 c 0,7,8
 188.497685671 519.725585938 188.497685671 519.725585938 216.881592118 546.385742188 c 0,9,10
 271.850857076 598.017578125 271.850857076 598.017578125 360.373642931 612.248046875 c 0,11,12
 400.446496481 619 400.446496481 619 437.251611228 619 c 0,13,14
 467.956085811 619 467.956085811 619 497.64453125 612.053710938 c 0,15,16
 562.97265625 596.466796875 562.97265625 596.466796875 581.643554688 546.157226562 c 0,17,18
 586.87890625 532.051757812 586.87890625 532.051757812 586.87890625 519.6328125 c 0,19,20
 586.87890625 486.8828125 586.87890625 486.8828125 573.469726562 451.30078125 c 0,21,22
 548.647460938 385.436523438 548.647460938 385.436523438 475.302040136 337.78515625 c 0,23,24
 454.684933162 325.42578125 454.684933162 325.42578125 430.789324082 313.1015625 c 1,25,26
 443.943156728 303.3046875 443.943156728 303.3046875 456.891410285 292.66796875 c 0,27,28
 506.584960938 250.326171875 506.584960938 250.326171875 518.5703125 203.623046875 c 0,29,30
 521.76953125 191.158203125 521.76953125 191.158203125 521.76953125 176.57421875 c 0,31,32
 521.76953125 129.59765625 521.76953125 129.59765625 488.360079384 88.3955078125 c 0,33,34
 439.699186339 33.9306640625 439.699186339 33.9306640625 368.381540393 4.083984375 c 0,35,36
 333.281332849 -10.60546875 333.281332849 -10.60546875 303.445456821 -14.77734375 c 0,37,38
 261.272682848 -22 261.272682848 -22 223.214719627 -22 c 128,-1,39
 185.156756407 -22 185.156756407 -22 152.520507812 -10.4677734375 c 0,40,41
 121.768554688 0.5341796875 121.768554688 0.5341796875 93.5166015625 27.447265625 c 0,42,43
 67.1123046875 51.5771484375 67.1123046875 51.5771484375 66.501953125 84.16796875 c 0,44,45
 65.98828125 111.658203125 65.98828125 111.658203125 69.0576171875 141.036132812 c 2,46,-1
 70.236328125 155.658203125 l 1,47,48
 84.34765625 186.725585938 84.34765625 186.725585938 94.5166015625 206.875976562 c 128,-1,49
 104.686523438 227.026367188 104.686523438 227.026367188 116.047851562 240.484375 c 128,-1,50
 127.408203125 253.942382812 127.408203125 253.942382812 142.791015625 266.6484375 c 0,51,0
 163.875 286.6796875 163.875 286.6796875 186.150209278 298.62890625 c 128,-1,1
178.219807597 137.962890625 m 128,-1,53
 177.311384821 130.547851562 177.311384821 130.547851562 177.170385551 124.452148438 c 0,54,55
 182.470235968 111.0625 182.470235968 111.0625 190.256409388 103.25390625 c 128,-1,56
 198.042582807 95.4462890625 198.042582807 95.4462890625 206.16134229 92.205078125 c 128,-1,57
 214.281178104 88.962890625 214.281178104 88.962890625 222.680859797 86.9814453125 c 128,-1,58
 231.08161782 85 231.08161782 85 261.030508529 85 c 0,59,60
 272.366419292 85 272.366419292 85 293.520615087 89.1123046875 c 0,61,62
 339.372286039 98.02734375 339.372286039 98.02734375 373.046355931 129.453125 c 0,63,64
 389.46900371 144.779296875 389.46900371 144.779296875 401.167637785 167.815429688 c 0,65,66
 401.232217603 169.466796875 401.232217603 169.466796875 401.233293933 170.028320312 c 0,67,68
 401.233293933 190.4296875 401.233293933 190.4296875 368.417059293 222.2578125 c 0,69,70
 353.276320907 236.94140625 353.276320907 236.94140625 335.502878596 249.747070312 c 2,71,-1
 310.352268382 267.782226562 l 1,72,73
 252.089432694 235.548828125 252.089432694 235.548828125 229.452053739 217.138671875 c 0,74,75
 211.286827198 202.365234375 211.286827198 202.365234375 193.396064884 181.94140625 c 0,76,77
 189.674114693 175.0703125 189.674114693 175.0703125 187.4687139 170.209960938 c 128,-1,78
 185.262236777 165.349609375 185.262236777 165.349609375 184.107334361 162.939453125 c 0,79,80
 181.795376867 158.11328125 181.795376867 158.11328125 179.305824874 153.4375 c 0,81,52
 179.127154044 145.37890625 179.127154044 145.37890625 178.219807597 137.962890625 c 128,-1,53
472.089194178 476.102539062 m 0,82,83
 471.969721515 477.60546875 471.969721515 477.60546875 471.969721515 479.125 c 2,84,-1
 473.071883746 489.875 l 1,85,-1
 473.071883746 490.126953125 l 1,86,87
 464.565645353 502.866210938 464.565645353 502.866210938 451.440873626 506.728515625 c 0,88,89
 433.525355715 512 433.525355715 512 410.799717676 512 c 0,90,91
 376.47554428 512 376.47554428 512 342.153523545 500.43359375 c 0,92,93
 325.146428411 494.702148438 325.146428411 494.702148438 312.396219629 485.926757812 c 128,-1,94
 299.647087178 477.150390625 299.647087178 477.150390625 294.650761906 466.178710938 c 0,95,96
 293.825216563 460.520507812 293.825216563 460.520507812 293.382844808 454.489257812 c 128,-1,97
 292.925404429 448.270507812 292.925404429 448.270507812 292.11385138 442.354492188 c 0,98,99
 301.082911803 417.52734375 301.082911803 417.52734375 314.873931989 399.767578125 c 128,-1,100
 328.664952175 382.0078125 328.664952175 382.0078125 346.011091354 366.53515625 c 1,101,102
 376.632688504 382.7265625 376.632688504 382.7265625 405.25769294 402.095703125 c 128,-1,103
 433.882697376 421.463867188 433.882697376 421.463867188 460.723146168 451.153320312 c 0,104,105
 464.251356904 457.719726562 464.251356904 457.719726562 466.242567967 462.538085938 c 0,106,107
 469.517841082 470.462890625 469.517841082 470.462890625 472.089194178 476.102539062 c 0,82,83
EndSplineSet
EndChar

StartChar: nine
Encoding: 57 57 24
Width: 500
Flags: W
LayerCount: 2
Fore
SplineSet
138.861328125 -13.853515625 m 0,0,1
 130.666992188 -3.26953125 130.666992188 -3.26953125 130.666992188 9.8671875 c 0,2,3
 130.666992188 15.9521484375 130.666992188 15.9521484375 132.474609375 22.37109375 c 0,4,5
 138.826171875 46.046875 138.826171875 46.046875 166.375976562 64.8671875 c 1,6,7
 291.172975559 116.123046875 291.172975559 116.123046875 375.142707942 210.616210938 c 1,8,9
 319.116856373 201.9921875 319.116856373 201.9921875 302.758169396 201.9921875 c 0,10,11
 302.252207845 201.9921875 302.252207845 201.9921875 301.78380676 202 c 0,12,13
 244.327343384 202 244.327343384 202 207.391601562 220.122070312 c 0,14,15
 150.447265625 249.76171875 150.447265625 249.76171875 133.721679688 307.581054688 c 0,16,17
 127.666992188 328.514648438 127.666992188 328.514648438 127.666992188 351.806640625 c 128,-1,18
 127.666992188 375.099609375 127.666992188 375.099609375 133.423828125 397.354492188 c 0,19,20
 142.936523438 436.02734375 142.936523438 436.02734375 165.521484375 473.513671875 c 0,21,22
 188.250976562 511.240234375 188.250976562 511.240234375 223.59375 541.256835938 c 0,23,24
 263.199267319 571.235351562 263.199267319 571.235351562 314.678093253 590.1171875 c 128,-1,25
 366.155814468 609 366.155814468 609 426.219415963 609 c 0,26,27
 455.102308386 609 455.102308386 609 478.219669521 601.1640625 c 0,28,29
 520.397460938 588.586914062 520.397460938 588.586914062 543.474609375 564.950195312 c 0,30,31
 583.068359375 524.395507812 583.068359375 524.395507812 583.068359375 460.038085938 c 0,32,33
 583.068359375 424.6875 583.068359375 424.6875 571.72265625 369.190429688 c 0,34,-1
 571.616210938 368.715820312 l 1,35,36
 556.212890625 305.0078125 556.212890625 305.0078125 524.903320312 245.731445312 c 0,37,38
 459.141163032 126.8359375 459.141163032 126.8359375 332.550246002 43.7646484375 c 0,39,40
 269.922590451 2.6669921875 269.922590451 2.6669921875 197.001953125 -27.2138671875 c 1,41,42
 191.067382812 -28.697265625 191.067382812 -28.697265625 187.48046875 -29.2958984375 c 2,43,-1
 178 -30 l 1,44,45
 151.36328125 -30 151.36328125 -30 138.861328125 -13.853515625 c 0,0,1
471.221271223 435.538085938 m 0,46,47
 471.221271223 474.723632812 471.221271223 474.723632812 444.962087711 490.694335938 c 0,48,49
 429.659512616 500 429.659512616 500 402.428175908 500 c 0,50,51
 349.723111282 500 349.723111282 500 301.022654995 468.28515625 c 0,52,53
 278.329506165 453.5078125 278.329506165 453.5078125 262.314386966 433.20703125 c 0,54,55
 246.704699838 413.418945312 246.704699838 413.418945312 240.247614116 390.30859375 c 0,56,57
 237.07706903 379.279296875 237.07706903 379.279296875 237.07706903 368.900390625 c 2,58,-1
 237.27039495 363.814453125 l 2,59,60
 238.1155054 352.73828125 238.1155054 352.73828125 245.713766409 342.9296875 c 0,61,62
 272.894286019 312 272.894286019 312 322.145997357 312 c 0,63,64
 367.583112116 312 367.583112116 312 423.491863414 336.26953125 c 0,65,66
 439.704727411 343.307617188 439.704727411 343.307617188 454.792986915 351.663085938 c 0,67,68
 455.677867268 354.448242188 455.677867268 354.448242188 457.006844877 358.440429688 c 128,-1,69
 458.336927205 362.432617188 458.336927205 362.432617188 459.152210227 365.770507812 c 0,70,71
 460.59276451 371.666015625 460.59276451 371.666015625 461.911799643 375.052734375 c 0,72,73
 471.221271223 406.8671875 471.221271223 406.8671875 471.221271223 435.538085938 c 0,46,47
EndSplineSet
EndChar

StartChar: colon
Encoding: 58 58 25
Width: 500
Flags: W
LayerCount: 2
Fore
SplineSet
322.070068904 137.902870882 m 0,0,1
 337.041666667 117.647179792 337.041666667 117.647179792 337.041666667 92.4027777778 c 0,2,3
 337.041666667 82.3588032978 337.041666667 82.3588032978 334.653967784 71.7847082438 c 0,4,5
 326.526232326 34.6293461526 326.526232326 34.6293461526 294.385399874 8.8018915034 c 128,-1,6
 262.276379336 -17 262.276379336 -17 228.471387417 -17 c 128,-1,7
 194.666395497 -17 194.666395497 -17 172.653405622 11.3024155535 c 0,8,9
 157.490196078 30.797970681 157.490196078 30.797970681 157.490196078 55.8565936178 c 0,10,11
 157.490196078 66.7428302764 157.490196078 66.7428302764 160.40558207 78.4798958918 c 0,12,13
 168.574622557 114.380684038 168.574622557 114.380684038 200.603770702 140.690342019 c 128,-1,14
 232.632918846 167 232.632918846 167 266.598207027 167 c 128,-1,15
 300.563495209 167 300.563495209 167 322.070068904 137.902870882 c 0,0,1
226.256325815 369.879687801 m 0,16,17
 231.924014089 414.533745875 231.924014089 414.533745875 269.071380521 445.164030104 c 0,18,19
 301.617131642 472 301.617131642 472 335.215027967 472 c 0,20,21
 352.403847821 472 352.403847821 472 367.073323864 464.340075536 c 128,-1,22
 381.742799907 456.680151071 381.742799907 456.680151071 392.161191803 442.278256393 c 0,23,24
 407.041666667 421.708188198 407.041666667 421.708188198 407.041666667 395.943576389 c 0,25,26
 407.041666667 385.141018415 407.041666667 385.141018415 404.578777573 374.458581217 c 0,27,28
 395.357759562 336.421881921 395.357759562 336.421881921 363.256118745 311.199164136 c 128,-1,29
 331.184455299 286 331.184455299 286 297.539676557 286 c 128,-1,30
 263.894897815 286 263.894897815 286 241.385667297 313.511281744 c 0,31,32
 225.538461538 332.880088782 225.538461538 332.880088782 225.538461538 358.733727811 c 0,33,34
 225.538461538 364.223845146 225.538461538 364.223845146 226.256325815 369.879687801 c 0,16,17
EndSplineSet
EndChar

StartChar: semicolon
Encoding: 59 59 26
Width: 500
Flags: W
LayerCount: 2
Fore
SplineSet
228 55 m 4,0,1
 188 16 l 4,2,3
 169 -8 l 4,4,5
 150 -38 150 -38 132 -68 c 4,6,7
 118 -85 l 4,8,9
 79 -127 79 -127 112.5 -143 c 132,-1,10
 146 -159 146 -159 157.344726562 -161.254882812 c 260,11,12
 172 -163 172 -163 188.837890625 -155.450195312 c 4,13,14
 206 -148 206 -148 212.594726562 -138.03515625 c 4,15,16
 241 -100 241 -100 286.629882812 -44.1875 c 4,17,18
 333 12 333 12 359.559570312 49.66015625 c 4,19,20
 368 62 368 62 370.610351562 70.9453125 c 4,21,22
 375 90 375 90 358.455078125 100.9375 c 4,23,24
 346 110 346 110 282 99 c 4,25,26
 259 95 259 95 228 55 c 4,0,1
304.480633552 463.18966378 m 128,-1,28
 320.469571897 470 320.469571897 470 334.234970592 470 c 128,-1,29
 348.000369287 470 348.000369287 470 358.113314204 466.583844835 c 0,30,31
 378.192932306 459.80094513 378.192932306 459.80094513 392.444251777 441.07063954 c 0,32,33
 408 420.625941875 408 420.625941875 408 395.06122449 c 0,34,35
 408 385.174279488 408 385.174279488 405.653967784 374.784708244 c 0,36,37
 397.51060775 337.557919517 397.51060775 337.557919517 364.783613238 311.720818587 c 128,-1,38
 332.203909695 286 332.203909695 286 301 286 c 0,39,40
 266.262550351 286 266.262550351 286 245.767557449 314.821083769 c 0,41,42
 231.869565217 334.365135344 231.869565217 334.365135344 231.869565217 359.401701323 c 0,43,44
 232.719118319 373.776395539 232.719118319 373.776395539 234.367762028 381.313052495 c 0,45,46
 242.46476313 417.171200234 242.46476313 417.171200234 273.281394498 443.422404733 c 0,47,27
 288.491695208 456.379327559 288.491695208 456.379327559 304.480633552 463.18966378 c 128,-1,28
EndSplineSet
EndChar

StartChar: less
Encoding: 60 60 27
Width: 500
Flags: W
LayerCount: 2
Fore
SplineSet
458.555664062 535.142578125 m 6,0,1
 481.982421875 535.142578125 481.982421875 535.142578125 494.494140625 518.721679688 c 4,2,3
 502.888671875 507.703125 502.888671875 507.703125 502.888671875 493.198242188 c 4,4,5
 502.888671875 467.333984375 502.888671875 467.333984375 480.142578125 442.583007812 c 4,6,7
 474.799804688 435.57421875 474.799804688 435.57421875 450.66015625 423.772460938 c 132,-1,8
 426.520507812 411.970703125 426.520507812 411.970703125 374.618164062 391.209960938 c 4,9,10
 294.491210938 359.159179688 294.491210938 359.159179688 213.88671875 317.21875 c 5,11,12
 358.850585938 228.557617188 358.850585938 228.557617188 398.653320312 196.501953125 c 4,13,14
 412.202148438 185.58984375 412.202148438 185.58984375 415.802734375 179.189453125 c 4,15,16
 423.340820312 165.787109375 423.340820312 165.787109375 423.340820312 151.158203125 c 4,17,18
 423.340820312 143.192382812 423.340820312 143.192382812 421.03515625 135.204101562 c 4,19,20
 415.857421875 114.87109375 415.857421875 114.87109375 399.958007812 100.879882812 c 4,21,22
 388.606445312 90.890625 388.606445312 90.890625 363.62890625 86.1796875 c 4,23,24
 361.555664062 86.142578125 361.555664062 86.142578125 357.873046875 86 c 4,25,26
 349.833984375 85.6884765625 349.833984375 85.6884765625 319.495117188 98.2421875 c 5,27,28
 309.241210938 107.356445312 309.241210938 107.356445312 295.81640625 116.790039062 c 4,29,30
 273.096679688 132.755859375 273.096679688 132.755859375 214.267578125 171.974609375 c 4,31,32
 116.493164062 237.157226562 116.493164062 237.157226562 94.8017578125 255.75 c 4,33,34
 79.5615234375 268.813476562 79.5615234375 268.813476562 75.6982421875 274.7109375 c 4,35,36
 72.9697265625 280.498046875 l 5,37,38
 62.6669921875 294.638671875 62.6669921875 294.638671875 62.6669921875 311.500976562 c 4,39,40
 62.6669921875 340.000976562 62.6669921875 340.000976562 92.548828125 365.165039062 c 5,41,42
 121.158203125 384.237304688 121.158203125 384.237304688 405.282226562 518.770507812 c 4,43,44
 419.459960938 525.313476562 419.459960938 525.313476562 456.592773438 535.142578125 c 5,45,-1
 458.555664062 535.142578125 l 6,0,1
EndSplineSet
EndChar

StartChar: equal
Encoding: 61 61 28
Width: 500
Flags: W
LayerCount: 2
Fore
SplineSet
449 331 m 2,0,-1
 172 331 l 2,1,2
 143.509333488 331 143.509333488 331 126.319506531 345.545238194 c 0,3,4
 112.105263158 357.572674895 112.105263158 357.572674895 112.105263158 378.606648199 c 0,5,6
 112.105263158 389.759093095 112.105263158 389.759093095 114.765871556 397.74091829 c 0,7,8
 120.863594749 416.034087868 120.863594749 416.034087868 131.548280869 424.854545685 c 0,9,10
 150.187969425 445.999997309 150.187969425 445.999997309 192 446 c 2,11,-1
 469 446 l 2,12,13
 512.047946116 446 512.047946116 446 523.125546396 419.097256462 c 1,14,15
 528.166666667 402.965671595 528.166666667 402.965671595 528.166666667 397.650809464 c 0,16,17
 528.166666667 392.128673788 528.166666667 392.128673788 527.58677363 389.491730745 c 0,18,19
 520.162417927 358.556915317 520.162417927 358.556915317 498.24214438 344.778457658 c 128,-1,20
 476.321870832 331 476.321870832 331 449 331 c 2,0,-1
72.234375 207.1640625 m 0,21,22
 72.234375 213.735778754 72.234375 213.735778754 73.8833940641 220.881528032 c 0,23,24
 79.7582608263 246.339284002 79.7582608263 246.339284002 102.188306127 260.669590721 c 128,-1,25
 124.618351428 274.999897441 124.618351428 274.999897441 150.943995181 274.999897441 c 2,26,-1
 424 276 l 2,27,28
 470.414956118 276 470.414956118 276 483.192529945 249.374882385 c 0,29,30
 486.397508275 242.696546877 486.397508275 242.696546877 487.101448819 233.193349541 c 1,31,32
 479.631513484 192.108705197 479.631513484 192.108705197 455.882919785 176.062358104 c 0,33,34
 433.590782696 161.000103314 433.590782696 161.000103314 404.056210634 161.000103314 c 2,35,-1
 132 160 l 2,36,37
 100.79095625 160 100.79095625 160 84.895478125 175.895478125 c 0,38,39
 72.234375 188.55658125 72.234375 188.55658125 72.234375 207.1640625 c 0,21,22
EndSplineSet
EndChar

StartChar: greater
Encoding: 62 62 29
Width: 500
Flags: W
LayerCount: 2
Fore
SplineSet
107 86 m 2,0,1
 83.5733521233 86 83.5733521233 86 71.0617331266 102.421499933 c 0,2,3
 62.6666666667 113.440024662 62.6666666667 113.440024662 62.6666666667 127.944444444 c 0,4,5
 62.6666666667 153.809296558 62.6666666667 153.809296558 85.4132815663 178.560184464 c 0,6,7
 90.7555811742 185.568889646 90.7555811742 185.568889646 114.895272289 197.370516413 c 128,-1,8
 139.034963404 209.17214318 139.034963404 209.17214318 190.937866336 229.933304353 c 0,9,10
 271.064399366 261.983917565 271.064399366 261.983917565 351.668520076 303.924578394 c 1,11,12
 206.704758457 392.584829048 206.704758457 392.584829048 166.90211294 424.641029048 c 0,13,14
 153.353215679 435.553021321 153.353215679 435.553021321 149.752877799 441.953621997 c 0,15,16
 142.214285714 455.355563481 142.214285714 455.355563481 142.214285714 469.984693878 c 0,17,18
 142.214285714 477.950139291 142.214285714 477.950139291 144.520773637 485.938465686 c 0,19,20
 149.698606782 506.27215549 149.698606782 506.27215549 165.597738434 520.263390054 c 0,21,22
 176.948775739 530.252302883 176.948775739 530.252302883 201.926503986 534.963230876 c 0,23,24
 204 535 204 535 207.682827636 535.142857143 c 0,25,26
 215.721539515 535.454679342 215.721539515 535.454679342 246.060786394 522.90050822 c 1,27,28
 256.314450374 513.786140237 256.314450374 513.786140237 269.739416805 504.352380042 c 0,29,30
 292.458918604 488.387324724 292.458918604 488.387324724 351.287925053 449.167987091 c 0,31,32
 449.062167894 383.985158531 449.062167894 383.985158531 470.75371081 365.39240746 c 0,33,34
 485.994238277 352.329098203 485.994238277 352.329098203 489.85691674 346.431615907 c 0,35,36
 492.585460115 340.644598576 l 1,37,38
 502.888888889 326.50412268 502.888888889 326.50412268 502.888888889 309.641975309 c 0,39,40
 502.888888889 281.14172655 502.888888889 281.14172655 473.007183708 255.978185345 c 1,41,42
 444.397828631 236.90528196 444.397828631 236.90528196 160.273008135 102.372681443 c 0,43,44
 146.095537375 95.8292334 146.095537375 95.8292334 108.962877864 86 c 1,45,-1
 107 86 l 2,0,1
EndSplineSet
EndChar

StartChar: question
Encoding: 63 63 30
Width: 500
Flags: W
LayerCount: 2
Fore
SplineSet
308.037037037 183.476680384 m 2,0,-1
 308.790697674 174.798269335 l 2,1,2
 308.790697674 153.780161314 308.790697674 153.780161314 283.970835712 140.717076071 c 0,3,4
 279.47027482 138.348359812 279.47027482 138.348359812 274.787681987 136.87557797 c 1,5,6
 295.392333575 132.777328771 295.392333575 132.777328771 310.311961008 113.741942047 c 0,7,8
 323.756097561 96.5890781684 323.756097561 96.5890781684 323.756097561 74.5770374777 c 0,9,10
 323.756097561 65.8917910151 323.756097561 65.8917910151 321.643348681 56.7365458682 c 0,11,12
 314.480887212 24.5054692592 314.480887212 24.5054692592 287.233293468 3.18126545911 c 128,-1,13
 260.168343159 -18 260.168343159 -18 232.072973998 -18 c 128,-1,14
 203.977604837 -18 203.977604837 -18 184.472245479 5.40643122993 c 0,15,16
 170.285714286 22.4302686613 170.285714286 22.4302686613 170.285714286 45.306122449 c 0,17,18
 170.285714286 75.9168225269 170.285714286 75.9168225269 191.307701186 100.956630147 c 0,19,20
 198.237078585 109.21038265 198.237078585 109.21038265 207.232748539 116.292080273 c 0,21,22
 226.432052501 131.406425945 226.432052501 131.406425945 245.956488081 135.997264641 c 1,23,24
 236.834887656 138.122676797 236.834887656 138.122676797 227.148814517 143.17628019 c 0,25,26
 206.482758621 157.937748687 206.482758621 157.937748687 206.482758621 182.302021403 c 0,27,28
 206.482758621 202.063511391 206.482758621 202.063511391 220.103868977 236.172001568 c 0,29,30
 221.237147813 245.89562741 221.237147813 245.89562741 244.620869292 280.971209628 c 1,31,32
 261.525286307 295.762574516 261.525286307 295.762574516 279.935265944 315.1273664 c 0,33,34
 310.529241372 349.779963144 310.529241372 349.779963144 335.266002332 370.909275083 c 0,35,36
 358.032100278 390.355317078 358.032100278 390.355317078 376.050720376 414.064027734 c 0,37,38
 403.222895879 449.816890237 403.222895879 449.816890237 409.321624294 462.975474682 c 0,39,40
 413.673076923 472.364146054 413.673076923 472.364146054 413.673076923 482.013313609 c 0,41,42
 413.673076923 497.041388085 413.673076923 497.041388085 396.90838067 513.932994142 c 0,43,44
 395.366674534 514.495172785 395.366674534 514.495172785 393.792348857 515.124902847 c 128,-1,45
 392.21802318 515.754632909 392.21802318 515.754632909 390.1555329 516.462658432 c 0,46,47
 372.514320467 518.761771671 372.514320467 518.761771671 366.180122991 518.816901408 c 0,48,49
 336.29310636 518.816901408 336.29310636 518.816901408 311.619958866 502.88866695 c 0,50,51
 276.710742895 480.352337652 276.710742895 480.352337652 264.325967515 440.544131072 c 2,52,-1
 263.157683406 436.788932151 l 1,53,-1
 260.275968204 434.076729608 l 2,54,55
 237.111630496 412.275 237.111630496 412.275 207.88625 412.275 c 0,56,57
 186.690536092 412.275 186.690536092 412.275 174.082110151 424.182957833 c 128,-1,58
 161.473684211 436.090915666 161.473684211 436.090915666 161.473684211 457.78531856 c 0,59,60
 161.473684211 480.27450728 161.473684211 480.27450728 180.478001692 503.398156373 c 1,61,62
 199.477256425 538.77336337 199.477256425 538.77336337 227.215203414 564.37762304 c 128,-1,63
 254.953150403 589.98188271 254.953150403 589.98188271 293.667295687 604.831143914 c 0,64,65
 349.974874563 626.428571429 349.974874563 626.428571429 404.744897959 626.428571429 c 0,66,67
 424.967494689 626.428571429 424.967494689 626.428571429 435.470375197 623.746984916 c 128,-1,68
 445.973255706 621.065398403 445.973255706 621.065398403 451.578360301 618.71988927 c 128,-1,69
 457.183464895 616.374380137 457.183464895 616.374380137 462.468042633 613.268607822 c 128,-1,70
 467.752620371 610.162835506 467.752620371 610.162835506 472.880513373 606.245196072 c 0,71,72
 514.840161837 574.188604138 514.840161837 574.188604138 520.879431585 517.939230833 c 0,73,74
 525.283879059 488.772266249 525.283879059 488.772266249 516.514184832 459.174548233 c 128,-1,75
 507.744490606 429.576830218 507.744490606 429.576830218 491.489704743 405.194651424 c 0,76,77
 475.909460132 381.824284508 475.909460132 381.824284508 455.213482191 358.541309324 c 0,78,79
 392.054685846 287.487663436 392.054685846 287.487663436 367.286150434 266.135477736 c 0,80,81
 353.730045426 254.449180315 353.730045426 254.449180315 338.125507004 235.723734209 c 0,82,83
 328.900599292 229.573795735 328.900599292 229.573795735 323.795455469 222.028769036 c 0,84,85
 308.037037037 198.738986824 308.037037037 198.738986824 308.037037037 183.476680384 c 2,0,-1
EndSplineSet
EndChar

StartChar: at
Encoding: 64 64 31
Width: 500
Flags: W
LayerCount: 2
Fore
SplineSet
418.260869565 401.083175803 m 0,0,1
 418.260869565 392.152843846 418.260869565 392.152843846 416.530914307 382.349764051 c 128,-1,2
 414.800959049 372.546684256 414.800959049 372.546684256 413.650080125 365.304414794 c 0,3,4
 411.373832248 350.980405439 411.373832248 350.980405439 410.507854057 342.320623533 c 0,5,6
 408.887153302 326.113615977 408.887153302 326.113615977 403.710613771 291.948455073 c 1,7,8
 399.086382839 274.376377531 399.086382839 274.376377531 395.859082267 260.058217644 c 1,9,10
 399.574974671 265.752235953 399.574974671 265.752235953 407.92593338 279.051910935 c 128,-1,11
 416.27689209 292.351585917 416.27689209 292.351585917 418.107463112 298.104809129 c 128,-1,12
 419.938034134 303.858032341 419.938034134 303.858032341 420.842510759 306.533768089 c 128,-1,13
 421.746987384 309.209503836 421.746987384 309.209503836 422.812062306 312.227656325 c 128,-1,14
 423.877137228 315.245808814 423.877137228 315.245808814 425.121458903 318.660013088 c 0,15,16
 427.57771579 325.399558763 427.57771579 325.399558763 430.761277645 333.765807332 c 0,17,18
 440.315788686 366.801981271 440.315788686 366.801981271 440.315789474 399.736842105 c 0,19,20
 440.315789474 425.755055782 440.315789474 425.755055782 436.191309026 445.442825004 c 128,-1,21
 432.066828579 465.130594226 432.066828579 465.130594226 428.770547807 474.004985941 c 128,-1,22
 425.474267036 482.879377656 425.474267036 482.879377656 421.027043791 489.401971748 c 1,23,24
 415.285882197 500.884294936 415.285882197 500.884294936 410.374990295 506.79186836 c 128,-1,25
 405.464098394 512.699441783 405.464098394 512.699441783 402.817614656 513.911734917 c 0,26,27
 379.955765637 521.398658552 379.955765637 521.398658552 352.444318399 516.380449885 c 0,28,29
 324.530659479 508.236613084 324.530659479 508.236613084 290.605471681 473.394528319 c 0,30,31
 254.078644149 437.82893309 254.078644149 437.82893309 213.203180999 364.876347246 c 0,32,33
 184.358907511 309.613961651 184.358907511 309.613961651 172.536005409 238.675157866 c 0,34,35
 166.933333333 205.058466162 166.933333333 205.058466162 166.933333333 171.466666667 c 0,36,37
 166.933333333 134.114908936 166.933333333 134.114908936 188.901028244 108.153087678 c 0,38,39
 199.97279943 92.3362716981 199.97279943 92.3362716981 226.933910905 84.7549700215 c 0,40,41
 238.870737367 83.7837079864 238.870737367 83.7837079864 242.934911243 83.7692307692 c 0,42,43
 260.312509348 83.7692307692 260.312509348 83.7692307692 274.959852229 89.130835883 c 0,44,45
 303.017572546 99.151450282 303.017572546 99.151450282 331.485991305 107.583257939 c 128,-1,46
 359.954410063 116.015065595 359.954410063 116.015065595 365.517145591 116.015065595 c 0,47,48
 365.777722246 116.015065595 365.777722246 116.015065595 366 116 c 0,49,50
 391.905264518 116 391.905264518 116 402.177791543 97.1670337876 c 0,51,52
 408.5 85.576318283 408.5 85.576318283 408.5 71.25 c 0,53,54
 408.5 66.217778081 408.5 66.217778081 407.795555131 61.5199590697 c 0,55,56
 402.342087029 28.7991504536 402.342087029 28.7991504536 351.487814692 10.8505837464 c 0,57,58
 308.452347043 -4.33840483534 308.452347043 -4.33840483534 281.706895388 -11.5391033579 c 0,59,60
 249.782074033 -19.2010604831 249.782074033 -19.2010604831 225.841182507 -19.2005302415 c 128,-1,61
 201.900290982 -19.2 201.900290982 -19.2 180.838095195 -15.8466876698 c 0,62,63
 144.777977857 -11.1494458983 144.777977857 -11.1494458983 132.482035036 7.13273519934 c 1,64,65
 103.637848277 32.2825620457 103.637848277 32.2825620457 90.6574663829 58.1414482139 c 0,66,67
 68.5714308967 99.8742863527 68.5714308967 99.8742863527 68.5714285714 174.959183673 c 0,68,69
 68.5714285714 222.906693795 68.5714285714 222.906693795 84.5047790121 284.869723286 c 0,70,71
 105.076516105 362.013737383 105.076516105 362.013737383 146.253284849 426.907498825 c 0,72,73
 186.027067264 492.148354502 186.027067264 492.148354502 233.107103435 537.332996547 c 1,74,75
 278.650290896 589.994293658 278.650290896 589.994293658 346.854241082 613.439401534 c 1,76,77
 379.938488632 621.111111111 379.938488632 621.111111111 405.024691358 621.111111111 c 0,78,79
 438.523358393 621.111111111 438.523358393 621.111111111 459.934107482 607.729392931 c 0,80,81
 497.139784482 584.475844806 497.139784482 584.475844806 514.26457569 533.648571717 c 0,82,83
 529.0625 488.268270499 529.0625 488.268270499 529.0625 449.78125 c 0,84,85
 529.0625 447.594043004 529.0625 447.594043004 529.53125 440.297021502 c 128,-1,86
 530 433 530 433 530 419.8125 c 0,87,88
 530 379.502614 530 379.502614 520.590606388 332.455645941 c 1,89,90
 512.206544892 303.111430705 512.206544892 303.111430705 496.9074165 265.373580671 c 0,91,92
 496.338320234 264.135447898 l 1,93,94
 479.74030781 231.976798828 479.74030781 231.976798828 459.226860155 204.985420334 c 128,-1,95
 438.7134125 177.994041841 438.7134125 177.994041841 401.830062471 160.606176827 c 128,-1,96
 364.946712443 143.218311814 364.946712443 143.218311814 349.676296226 137.314316287 c 128,-1,97
 334.405880009 131.410320759 334.405880009 131.410320759 328.779079224 129.69718404 c 0,98,99
 302.361580597 121.654107935 302.361580597 121.654107935 289.643396321 120.327053967 c 128,-1,100
 276.925212046 119 276.925212046 119 264.102508407 119 c 128,-1,101
 251.279804767 119 251.279804767 119 230.964245385 122.294415035 c 1,102,103
 189.730368869 132.602884164 189.730368869 132.602884164 183.552280648 206.739942821 c 0,104,105
 183.037037037 212.922866151 183.037037037 212.922866151 183.037037037 219.454046639 c 0,106,107
 183.037037037 247.254406559 183.037037037 247.254406559 192.405356637 281.508585958 c 0,108,109
 201.149767525 323.750875613 201.149767525 323.750875613 221.236564656 356.879378668 c 0,110,111
 263.222379357 424.7026178 263.222379357 424.7026178 298.122371822 435.350073129 c 0,112,113
 329.386831239 444.888382781 329.386831239 444.888382781 352 446.019041219 c 1,114,115
 376.782389264 444.779921756 376.782389264 444.779921756 390.977893634 440.557669174 c 128,-1,116
 405.173398004 436.335416592 405.173398004 436.335416592 411.717133785 426.98722262 c 128,-1,117
 418.260869565 417.639028648 418.260869565 417.639028648 418.260869565 401.083175803 c 0,0,1
280.933304353 297.437866336 m 0,118,119
 265.2 258.104605454 265.2 258.104605454 265.2 242.054926019 c 0,120,121
 265.2 220.984763984 265.2 220.984763984 267.931860829 210.57065019 c 1,122,123
 272.830341781 210.069070472 272.830341781 210.069070472 279.296134554 210.007970632 c 0,124,125
 296.417135039 214.110273478 296.417135039 214.110273478 300.009986969 217.189861773 c 128,-1,126
 303.602838898 220.269450067 303.602838898 220.269450067 305.883047551 229.390284677 c 128,-1,127
 308.163256203 238.511119288 308.163256203 238.511119288 310.176177279 261.15648139 c 128,-1,128
 312.189098355 283.801843492 312.189098355 283.801843492 319.629100782 301.55029009 c 0,129,130
 323.198273167 318.53097083 323.198273167 318.53097083 325.190045675 334.465150887 c 128,-1,131
 327.181818182 350.399330945 327.181818182 350.399330945 327.181818182 351.128353146 c 0,132,133
 327.181818182 352.874566995 327.181818182 352.874566995 326.10538865 354.947482273 c 1,134,-1
 318.494101048 351.30830011 l 1,135,136
 310.85299289 346.482337063 310.85299289 346.482337063 302.539455849 338.321816512 c 0,137,138
 290.018021009 320.149661201 290.018021009 320.149661201 280.933304353 297.437866336 c 0,118,119
EndSplineSet
EndChar

StartChar: A
Encoding: 65 65 32
Width: 500
Flags: W
LayerCount: 2
Fore
SplineSet
394.252811533 620.33984375 m 0,0,1
 402.501807122 622.8828125 402.501807122 622.8828125 410.352539062 622.8828125 c 0,2,3
 426.481445312 622.8828125 426.481445312 622.8828125 441.0234375 612 c 1,4,-1
 444.686523438 612 l 1,5,-1
 447.206054688 606.420898438 l 2,6,7
 448.83203125 604.639648438 448.83203125 604.639648438 450.213867188 602.705078125 c 1,8,-1
 448.481445312 603.59765625 l 1,9,10
 477.736328125 541.926757812 477.736328125 541.926757812 482.948242188 481.883789062 c 0,11,12
 487.899414062 424.8515625 487.899414062 424.8515625 490.896484375 379.4296875 c 0,13,14
 493.966796875 365.978515625 493.966796875 365.978515625 495.16796875 348.541992188 c 128,-1,15
 496.369140625 331.10546875 496.369140625 331.10546875 496.73046875 325.642578125 c 128,-1,16
 497.090820312 320.1796875 497.090820312 320.1796875 497.413085938 315.0703125 c 128,-1,17
 497.734375 309.961914062 497.734375 309.961914062 498.015625 305.21484375 c 0,18,19
 498.856445312 291.032226562 498.856445312 291.032226562 501.98046875 207.7734375 c 1,20,21
 504.25 178.106445312 504.25 178.106445312 504.25 158.126953125 c 0,22,23
 504.25 98.333984375 504.25 98.333984375 497.776367188 45.333984375 c 1,24,25
 491.5234375 22.7109375 491.5234375 22.7109375 477.041015625 8.32421875 c 0,26,27
 458.37109375 -11.158203125 458.37109375 -11.158203125 436.059570312 -11.158203125 c 0,28,29
 422.697265625 -11.158203125 422.697265625 -11.158203125 411.194335938 -3.4892578125 c 0,30,31
 394.480392779 6.806640625 394.480392779 6.806640625 388.453337759 29.556640625 c 2,32,-1
 387.794781401 32.0439453125 l 1,33,34
 393.634933948 80.8056640625 393.634933948 80.8056640625 393.634933948 122.072265625 c 128,-1,35
 393.634933948 163.338867188 393.634933948 163.338867188 391.273366239 200.822265625 c 1,36,-1
 227.850242124 199.0078125 l 1,37,38
 182.536287416 118.731445312 182.536287416 118.731445312 140.842743541 32.3173828125 c 1,39,40
 125.559570312 6.2451171875 125.559570312 6.2451171875 105.000976562 -2.75 c 0,41,42
 91.9609375 -8.4541015625 91.9609375 -8.4541015625 82.5498046875 -8.4541015625 c 0,43,44
 50.8154296875 -8.4541015625 50.8154296875 -8.4541015625 41.2158203125 19.99609375 c 0,45,46
 39 26.564453125 39 26.564453125 39 37.0361328125 c 0,47,48
 39 48.1318359375 39 48.1318359375 46.26953125 64.421875 c 0,49,50
 110.461914062 202.96875 110.461914062 202.96875 195.68212778 347.196289062 c 2,51,-1
 347.184172439 594.94921875 l 1,52,53
 368.885748331 614.225585938 368.885748331 614.225585938 394.252811533 620.33984375 c 0,0,1
283.010658845 294.745117188 m 1,54,-1
 388.736989747 297.548828125 l 1,55,56
 388.64353851 304.388671875 388.64353851 304.388671875 390.25749633 360.77734375 c 0,57,58
 390.25749633 379.521484375 390.25749633 379.521484375 388.066339699 397.6875 c 0,59,60
 385.018729973 438.296875 385.018729973 438.296875 380.226330697 467.61328125 c 1,61,62
 364.430872931 438.193359375 364.430872931 438.193359375 283.010658845 294.745117188 c 1,54,-1
EndSplineSet
EndChar

StartChar: B
Encoding: 66 66 33
Width: 500
Flags: W
LayerCount: 2
Fore
SplineSet
476.10546875 607.46875 m 0,0,1
 543.412109375 575.958984375 543.412109375 575.958984375 558.38671875 508.25 c 0,2,3
 560.76953125 497.477539062 560.76953125 497.477539062 560.76953125 482.615234375 c 128,-1,4
 560.76953125 467.752929688 560.76953125 467.752929688 556.561523438 452.2265625 c 0,5,6
 546.849609375 413.334960938 546.849609375 413.334960938 519.109375 377.280273438 c 0,7,8
 497.658203125 349.400390625 497.658203125 349.400390625 467.891601562 327.3359375 c 1,9,10
 498.716796875 303.857421875 498.716796875 303.857421875 510.659179688 271.4375 c 0,11,12
 519.254882812 248.1015625 519.254882812 248.1015625 519.254882812 226.795898438 c 128,-1,13
 519.254882812 205.489257812 519.254882812 205.489257812 515.313476562 189.001953125 c 0,14,15
 501.521484375 131.305664062 501.521484375 131.305664062 451.38791825 81.34375 c 0,16,17
 397.523979656 31.837890625 397.523979656 31.837890625 329.59949946 13.69921875 c 0,18,19
 286.936386312 1.220703125 286.936386312 1.220703125 245.218937908 -2.3896484375 c 128,-1,20
 203.502571501 -6 203.502571501 -6 154 -6 c 2,21,-1
 128.5 -6 l 2,22,23
 113.646484375 -6 113.646484375 -6 101.4921875 -4.9248046875 c 0,24,25
 73.7314453125 -2.27734375 73.7314453125 -2.27734375 62.9033203125 16.16015625 c 0,26,27
 56.099609375 27.744140625 56.099609375 27.744140625 56.099609375 40.5224609375 c 1,28,-1
 57.5751953125 52.3359375 l 1,29,30
 59.9130859375 60.1396484375 59.9130859375 60.1396484375 65.908203125 69.98828125 c 0,31,32
 158.110663745 446.212890625 158.110663745 446.212890625 172.629971768 496.340820312 c 128,-1,33
 187.149279791 546.469726562 187.149279791 546.469726562 188.564530919 549.045898438 c 0,34,35
 207.872754458 590.75390625 207.872754458 590.75390625 281.801231988 611.279296875 c 0,36,37
 318.362968138 621.923828125 318.362968138 621.923828125 389.398187626 623.9921875 c 0,38,-1
 389.942431753 624 l 2,39,40
 440.346146257 624 440.346146257 624 476.10546875 607.46875 c 0,0,1
402.875533235 187.478515625 m 0,41,42
 403.938053578 193.137695312 403.938053578 193.137695312 403.938053578 198.951171875 c 0,43,44
 403.938053578 221.48828125 403.938053578 221.48828125 385.880617734 234.526367188 c 1,45,46
 368.251652415 248.669921875 368.251652415 248.669921875 344.772333234 255.432617188 c 128,-1,47
 321.293014052 262.196289062 321.293014052 262.196289062 293.286622454 265.043945312 c 0,48,49
 258.536148069 266.642578125 258.536148069 266.642578125 227.513150854 262.177734375 c 1,50,-1
 182.769358867 90.33203125 l 1,51,52
 200.560623627 90.814453125 200.560623627 90.814453125 232.969658072 92.353515625 c 128,-1,53
 265.378692516 93.8935546875 265.378692516 93.8935546875 301.263098998 102.811523438 c 128,-1,54
 337.147505479 111.73046875 337.147505479 111.73046875 365.022975528 130.268554688 c 0,55,56
 396.004856885 150.873046875 396.004856885 150.873046875 402.875533235 187.478515625 c 0,41,42
292.045572725 502.08984375 m 1,57,-1
 256.289923801 376.774414062 l 1,58,59
 264.430863779 376.333007812 264.430863779 376.333007812 276.745063392 376.333007812 c 128,-1,60
 289.060345001 376.333007812 289.060345001 376.333007812 300.58252334 376.720703125 c 128,-1,61
 312.104701679 377.108398438 312.104701679 377.108398438 315.757521106 377.5859375 c 128,-1,62
 319.411422529 378.064453125 319.411422529 378.064453125 323.78917946 378.825195312 c 0,63,64
 387.30236084 389.858398438 387.30236084 389.858398438 427.670559888 421.704101562 c 0,65,66
 443.455803553 434.158203125 443.455803553 434.158203125 447.935268134 450.891601562 c 0,67,68
 449.965093148 458.14453125 449.965093148 458.14453125 449.965093148 462.420898438 c 128,-1,69
 449.965093148 466.696289062 449.965093148 466.696289062 449.629674302 468.986328125 c 0,70,71
 448.243637073 478.4375 448.243637073 478.4375 440.157878905 487.361328125 c 0,72,73
 427.503932462 501.326171875 427.503932462 501.326171875 401.218996937 506.944335938 c 0,74,75
 382.239700266 511 382.239700266 511 363.351291283 511 c 0,76,77
 330.893567006 511 330.893567006 511 292.045572725 502.08984375 c 1,57,-1
EndSplineSet
EndChar

StartChar: C
Encoding: 67 67 34
Width: 500
Flags: W
LayerCount: 2
Fore
SplineSet
421.086984092 183.7890625 m 1,0,1
 447.198187834 199.919921875 447.198187834 199.919921875 467.123061416 199.919921875 c 0,2,3
 475.973294499 199.919921875 475.973294499 199.919921875 481.449753238 198.87109375 c 128,-1,4
 486.926211976 197.822265625 486.926211976 197.822265625 491.875922421 195.78125 c 0,5,6
 502.163133467 191.5390625 502.163133467 191.5390625 509.55915347 182.26171875 c 0,7,8
 516.391601562 172.984375 516.391601562 172.984375 516.391601562 159.4453125 c 0,9,10
 516.391601562 142.853515625 516.391601562 142.853515625 502.702808098 120.216796875 c 1,11,12
 442.529625251 59.390625 442.529625251 59.390625 388.411354789 28.2509765625 c 0,13,14
 356.519923355 9.900390625 356.519923355 9.900390625 321.132994554 -1.7021484375 c 0,15,16
 285.747142949 -14 285.747142949 -14 246.275491187 -14 c 0,17,18
 184.436523438 -14 184.436523438 -14 161.9765625 10.3310546875 c 0,19,20
 142.79296875 30.1123046875 142.79296875 30.1123046875 120.06640625 68.34375 c 0,21,22
 91.4052734375 116.557617188 91.4052734375 116.557617188 91.4052734375 184.19140625 c 0,23,24
 91.4052734375 269.239257812 91.4052734375 269.239257812 131.631835938 345.813476562 c 0,25,26
 156.092773438 391.40625 156.092773438 391.40625 181.670898438 426.462890625 c 0,27,28
 208.976541485 461.43359375 208.976541485 461.43359375 245.508528436 496.895507812 c 128,-1,29
 282.039438193 532.357421875 282.039438193 532.357421875 321.893494135 552.080078125 c 0,30,31
 359.682567504 570.78125 359.682567504 570.78125 385.956427672 582.610351562 c 1,32,33
 421.728992237 595.553710938 421.728992237 595.553710938 450.885425887 602.598632812 c 0,34,35
 480.042936732 610 480.042936732 610 506.594713178 610 c 0,36,37
 545.99609375 610 545.99609375 610 570.749023438 586.42578125 c 128,-1,38
 595.501953125 562.8515625 595.501953125 562.8515625 608.796875 509.671875 c 0,39,40
 609.333007812 504.840820312 609.333007812 504.840820312 609.333007812 501 c 2,41,-1
 607.643554688 485.736328125 l 1,42,43
 600.795898438 454.922851562 600.795898438 454.922851562 574.166992188 440.67578125 c 0,44,45
 561.69140625 434 561.69140625 434 550.653320312 434 c 128,-1,46
 539.616210938 434 539.616210938 434 531.923828125 436.69921875 c 0,47,48
 516.543945312 442.096679688 516.543945312 442.096679688 506.187533515 456.516601562 c 2,49,-1
 504.540502553 458.688476562 l 1,50,51
 493.749164307 496.423828125 493.749164307 496.423828125 484.930169875 498.643554688 c 0,52,53
 483.512581421 499 483.512581421 499 477.483521712 499 c 128,-1,54
 471.453384808 499 471.453384808 499 454.821495956 496.844726562 c 128,-1,55
 438.189607104 494.689453125 438.189607104 494.689453125 415.925066257 487.814453125 c 0,56,57
 368.036213751 468.140625 368.036213751 468.140625 339.842792318 445.365234375 c 0,58,59
 296.683902503 410.500976562 296.683902503 410.500976562 268.775937711 369.58203125 c 0,60,61
 230.425645813 313.353515625 230.425645813 313.353515625 207.118380328 250.953125 c 0,62,63
 200.608891705 225.611328125 200.608891705 225.611328125 200.608891705 201.203125 c 0,64,65
 200.608891705 163.546875 200.608891705 163.546875 215.144559333 137.24609375 c 128,-1,66
 229.68022696 110.946289062 229.68022696 110.946289062 240.874436089 97.8896484375 c 0,67,68
 246.611575987 91.1982421875 246.611575987 91.1982421875 260.958734512 91.1982421875 c 0,69,70
 280.87175895 91.1982421875 280.87175895 91.1982421875 304.675611272 98.955078125 c 128,-1,71
 328.479463594 106.7109375 328.479463594 106.7109375 347.443479348 119.516601562 c 0,72,73
 386.820337961 146.10546875 386.820337961 146.10546875 421.086984092 183.7890625 c 1,0,1
EndSplineSet
EndChar

StartChar: D
Encoding: 68 68 35
Width: 500
Flags: W
LayerCount: 2
Fore
SplineSet
56.396484375 7.1103515625 m 1,0,1
 53.3330078125 21.7939453125 53.3330078125 21.7939453125 53.3330078125 25.955078125 c 0,2,3
 53.3330078125 33.2763671875 53.3330078125 33.2763671875 54.37890625 39.7197265625 c 2,4,-1
 170.844455144 529.993164062 l 1,5,6
 191.715267354 572.85546875 191.715267354 572.85546875 278.157487394 590.000976562 c 0,7,8
 309.670422424 596.75 309.670422424 596.75 340.329433433 596.75 c 0,9,10
 350.417425583 596.75 350.417425583 596.75 360.398271372 595.985351562 c 0,11,12
 398.939574713 594.463867188 398.939574713 594.463867188 425.59953723 588.078125 c 0,13,14
 452.259499747 582.485351562 452.259499747 582.485351562 466.41796875 571.904296875 c 0,15,16
 491.961914062 548.662109375 491.961914062 548.662109375 518.051757812 504.984375 c 0,17,18
 544.311523438 460.991210938 544.311523438 460.991210938 553.762695312 411.012695312 c 0,19,20
 557.240234375 393.01171875 557.240234375 393.01171875 557.240234375 374.701171875 c 0,21,22
 557.240234375 336.837890625 557.240234375 336.837890625 546.569335938 295.4140625 c 0,23,24
 532.041015625 237.172851562 532.041015625 237.172851562 496.811523438 181.330078125 c 0,25,26
 461.58203125 123.995117188 461.58203125 123.995117188 402.04573687 81.0322265625 c 0,27,28
 360.627716103 51.033203125 360.627716103 51.033203125 315.082937041 31.4912109375 c 128,-1,29
 269.433176191 11.9580078125 269.433176191 11.9580078125 211.978916857 1.5 c 2,30,-1
 153.906671951 -10.541015625 l 1,31,32
 145.975585938 -13.91796875 145.975585938 -13.91796875 102.615234375 -18.197265625 c 1,33,34
 83.7060546875 -16.078125 83.7060546875 -16.078125 72.42578125 -9.4033203125 c 0,35,36
 61.1455078125 -2.9384765625 61.1455078125 -2.9384765625 56.396484375 7.1103515625 c 1,0,1
311.280864686 485.244140625 m 128,-1,38
 308.542679927 485.119140625 308.542679927 485.119140625 306.446291042 484.911132812 c 128,-1,39
 304.350984444 484.750976562 304.350984444 484.750976562 302.64638326 484.529296875 c 0,40,41
 300.881174034 484.080078125 300.881174034 484.080078125 299.072673349 483.639648438 c 128,-1,42
 297.264172665 483.200195312 297.264172665 483.200195312 295.415627381 482.76953125 c 128,-1,43
 293.56599981 482.33984375 293.56599981 482.33984375 291.675245354 481.918945312 c 128,-1,44
 289.784490898 481.499023438 289.784490898 481.499023438 287.850444983 481.087890625 c 0,45,46
 283.987764586 480.268554688 283.987764586 480.268554688 279.949753781 479.481445312 c 1,47,-1
 174.581590311 98.9404296875 l 1,48,49
 197.416752457 101.196289062 197.416752457 101.196289062 214.092622325 103.604492188 c 0,50,51
 244.790595647 107.766601562 244.790595647 107.766601562 280.795019511 125.921875 c 0,52,53
 316.799443376 144.73828125 316.799443376 144.73828125 335.573866702 160.857421875 c 0,54,55
 376.073026259 189.608398438 376.073026259 189.608398438 403.064168435 225.504882812 c 0,56,57
 430.022842017 267.479492188 430.022842017 267.479492188 440.555653904 311.196289062 c 0,58,59
 446.826421688 336.34375 446.826421688 336.34375 446.826421688 360 c 0,60,61
 446.826421688 403.588867188 446.826421688 403.588867188 421.01821862 433.28125 c 0,62,63
 399.611674608 459.631835938 399.611674608 459.631835938 383.353567316 474.129882812 c 0,64,65
 370.521978975 482.366210938 370.521978975 482.366210938 336.433202156 484.1328125 c 0,66,67
 325.360329322 485.384765625 325.360329322 485.384765625 319.690230527 485.384765625 c 128,-1,37
 314.020131731 485.384765625 314.020131731 485.384765625 311.280864686 485.244140625 c 128,-1,38
EndSplineSet
EndChar

StartChar: E
Encoding: 69 69 36
Width: 500
Flags: W
LayerCount: 2
Fore
SplineSet
548.091796875 490.97265625 m 1,0,1
 503.891631731 487.75 503.891631731 487.75 453.021448095 487.75 c 2,2,-1
 399.259280906 488.142578125 l 2,3,4
 347.528362357 488.142578125 347.528362357 488.142578125 298.365713858 484.32421875 c 1,5,-1
 259.512590122 341.114257812 l 1,6,7
 340.705725102 339.465820312 340.705725102 339.465820312 453.921843271 349.203125 c 0,8,9
 456.671264254 349.31640625 456.671264254 349.31640625 458.898670415 349.31640625 c 0,10,11
 486.820567957 349.31640625 486.820567957 349.31640625 500.824928638 334.594726562 c 0,12,13
 512.713867188 321.787109375 512.713867188 321.787109375 512.713867188 305.754882812 c 0,14,15
 512.713867188 285.260742188 512.713867188 285.260742188 495.089196989 267.922851562 c 0,16,17
 477.170261091 250.584960938 477.170261091 250.584960938 447.991026 244.610351562 c 1,18,19
 334.219664139 235.202148438 334.219664139 235.202148438 262.405645574 235.200195312 c 0,20,21
 246.58012846 235.200195312 246.58012846 235.200195312 230.962559755 235.59375 c 1,22,-1
 194.342201675 104.267578125 l 1,23,24
 224.45720461 101.018554688 224.45720461 101.018554688 250.953476457 101.018554688 c 0,25,26
 303.907431786 101.018554688 303.907431786 101.018554688 428.16196605 112.184570312 c 0,27,28
 431.279048397 112.361328125 431.279048397 112.361328125 433.958795944 112.361328125 c 0,29,30
 457.043213214 112.361328125 457.043213214 112.361328125 471.058292885 101.65625 c 0,31,32
 487.56017828 89.0517578125 487.56017828 89.0517578125 487.56017828 70.12109375 c 0,33,34
 487.56017828 55.193359375 487.56017828 55.193359375 477.006260541 39.9892578125 c 0,35,36
 465.942118868 24.0498046875 465.942118868 24.0498046875 440.57241289 12.017578125 c 1,37,38
 400.627024054 1.9091796875 400.627024054 1.9091796875 358.366333337 1.9091796875 c 2,39,-1
 315.025168409 2.400390625 l 2,40,41
 289.063774173 2.400390625 289.063774173 2.400390625 260.177167514 1.3876953125 c 0,42,43
 220.468668361 -0.00390625 220.468668361 -0.00390625 178.038617599 0.51171875 c 0,44,45
 138.881835938 1.02734375 138.881835938 1.02734375 101.983398438 11.08984375 c 1,46,-1
 100.154296875 12.2158203125 l 2,47,48
 74 27.5263671875 74 27.5263671875 74 53.7470703125 c 0,49,50
 74 60.2626953125 74 60.2626953125 76 66.62109375 c 1,51,-1
 76 66.91796875 l 1,52,-1
 181.649845393 499.029296875 l 1,53,54
 179.663616511 517.11328125 179.663616511 517.11328125 181.539439794 532.287109375 c 128,-1,55
 183.416334976 547.459960938 183.416334976 547.459960938 191.556336125 559.219726562 c 128,-1,56
 199.697409173 570.978515625 199.697409173 570.978515625 216.956055276 584.575195312 c 1,57,58
 293.251683639 597.799804688 293.251683639 597.799804688 358.272006223 597.799804688 c 1,59,-1
 422.280456134 596.333007812 l 2,60,61
 450.029777933 596.333007812 450.029777933 596.333007812 476.738285786 599 c 128,-1,62
 503.447865537 601.666992188 503.447865537 601.666992188 523.19140625 601.666992188 c 0,63,64
 542.37890625 601.666992188 542.37890625 601.666992188 549.567382812 601.375 c 128,-1,65
 556.755859375 601.083007812 556.755859375 601.083007812 558.416992188 601.083007812 c 0,66,67
 583.85546875 601.083007812 583.85546875 601.083007812 596.614257812 595.288085938 c 0,68,69
 608.099609375 590.0703125 608.099609375 590.0703125 608.099609375 583.5 c 0,70,71
 608.099609375 552.650390625 608.099609375 552.650390625 591.213867188 525.046875 c 0,72,73
 576.0078125 500.19140625 576.0078125 500.19140625 548.091796875 490.97265625 c 1,0,1
EndSplineSet
EndChar

StartChar: F
Encoding: 70 70 37
Width: 500
Flags: W
LayerCount: 2
Fore
SplineSet
165.297962842 35.8681640625 m 0,0,1
 157.367600789 9.5634765625 157.367600789 9.5634765625 138.809570312 -4.2578125 c 0,2,3
 120.22265625 -19 120.22265625 -19 100.53515625 -19 c 128,-1,4
 80.8466796875 -19 80.8466796875 -19 67.8359375 -2.927734375 c 0,5,6
 57.619140625 9.083984375 57.619140625 9.083984375 57.619140625 29.396484375 c 0,7,8
 57.619140625 33.6435546875 57.619140625 33.6435546875 58.1533203125 39.23828125 c 2,9,-1
 115.395507812 277.22265625 l 2,10,11
 134.3359375 354.071289062 134.3359375 354.071289062 135.326171875 357.87109375 c 128,-1,12
 136.31640625 361.669921875 136.31640625 361.669921875 136.994140625 364.287109375 c 128,-1,13
 137.671875 366.904296875 137.671875 366.904296875 138.389648438 369.693359375 c 0,14,15
 139.825195312 375.2734375 139.825195312 375.2734375 142.6328125 386.293945312 c 128,-1,16
 145.439453125 397.314453125 145.439453125 397.314453125 151.322265625 419.708984375 c 0,17,18
 161.458626722 456.5546875 161.458626722 456.5546875 161.458626722 481.21875 c 0,19,20
 161.458626722 493.426757812 161.458626722 493.426757812 157.506243482 502.612304688 c 1,21,22
 156 511.811523438 156 511.811523438 156 518.921875 c 0,23,24
 156 526.94140625 156 526.94140625 157.546769808 533.32421875 c 0,25,26
 167.34454229 568.69921875 167.34454229 568.69921875 209.943043026 580.674804688 c 1,27,-1
 212.26157545 581.166015625 l 1,28,29
 252.566072854 587.01953125 252.566072854 587.01953125 291.351899526 588.46875 c 0,30,31
 330.78188148 590.015625 330.78188148 590.015625 483.698373219 593.994140625 c 0,32,33
 520.740234375 594.970703125 520.740234375 594.970703125 556.952148438 600 c 1,34,-1
 558 600 l 2,35,36
 587.10546875 600 587.10546875 600 600.614257812 584.172851562 c 0,37,38
 610.23046875 572.90625 610.23046875 572.90625 610.23046875 557.720703125 c 0,39,40
 610.23046875 532.920898438 610.23046875 532.920898438 590.104492188 513.62890625 c 0,41,42
 575.659179688 499.782226562 575.659179688 499.782226562 550.846679688 493.836914062 c 1,43,44
 491.805771326 486.381835938 491.805771326 486.381835938 432.463499177 486.381835938 c 0,45,46
 428.751074445 486.381835938 428.751074445 486.381835938 424.565131592 486.4140625 c 128,-1,47
 420.379188739 486.447265625 420.379188739 486.447265625 411.162649086 486.447265625 c 128,-1,48
 401.946109433 486.447265625 401.946109433 486.447265625 386.650620923 486.169921875 c 128,-1,49
 371.355132413 485.891601562 371.355132413 485.891601562 354.290349841 485.336914062 c 0,50,51
 320.104261137 484.224609375 320.104261137 484.224609375 278.95191034 481.99609375 c 1,52,53
 276.468073167 444.420898438 276.468073167 444.420898438 255.918026583 376.779296875 c 0,54,55
 252.931876267 366.950195312 252.931876267 366.950195312 250.471501704 357.591796875 c 1,56,57
 350.46487799 358.62109375 350.46487799 358.62109375 484.624079816 367.032226562 c 0,58,-1
 485.805742156 367.069335938 l 2,59,60
 515.861328125 367.069335938 515.861328125 367.069335938 529.85546875 351.537109375 c 0,61,62
 540.185546875 340.072265625 540.185546875 340.072265625 540.185546875 324.458007812 c 0,63,64
 540.185546875 318.455078125 540.185546875 318.455078125 538.586914062 311.943359375 c 0,65,66
 530.849609375 281.041992188 530.849609375 281.041992188 494.01125663 266.185546875 c 0,67,68
 459.760112509 253 459.760112509 253 414.274644307 253 c 2,69,-1
 326.908417928 253 l 2,70,71
 285.880845555 253 285.880845555 253 222.639514279 251.438476562 c 1,72,73
 165.409943479 36.2646484375 165.409943479 36.2646484375 165.297962842 35.8681640625 c 0,0,1
EndSplineSet
EndChar

StartChar: G
Encoding: 71 71 38
Width: 500
Flags: W
LayerCount: 2
Fore
SplineSet
515.170898438 351 m 1,0,1
 540.647460938 343.763671875 540.647460938 343.763671875 549.040039062 326.817382812 c 0,2,3
 554.05859375 316.752929688 554.05859375 316.752929688 554.05859375 309.767578125 c 0,4,5
 554.05859375 284.377929688 554.05859375 284.377929688 536.625 265.896484375 c 0,6,7
 527.153320312 255.85546875 527.153320312 255.85546875 512.935546875 249.359375 c 1,8,-1
 480.402349484 112.646484375 l 2,9,10
 473.638757348 87.033203125 473.638757348 87.033203125 450.636014472 69.564453125 c 0,11,12
 431.635925156 55.134765625 431.635925156 55.134765625 415.945262017 43.44140625 c 128,-1,13
 400.254598877 31.748046875 400.254598877 31.748046875 384.227660602 22.783203125 c 0,14,15
 352.184666741 4.859375 352.184666741 4.859375 315.005042972 -5.2470703125 c 0,16,17
 277.824330934 -15.7822265625 277.824330934 -15.7822265625 244.269731365 -15.7822265625 c 0,18,19
 226.085843835 -15.7822265625 226.085843835 -15.7822265625 207.561328094 -12.4580078125 c 1,20,21
 156.64453125 5.6279296875 156.64453125 5.6279296875 138.55078125 28.24609375 c 128,-1,22
 120.45703125 50.865234375 120.45703125 50.865234375 106.1953125 94.525390625 c 128,-1,23
 91.93359375 138.185546875 91.93359375 138.185546875 91.93359375 180.368164062 c 0,24,25
 91.93359375 225.07421875 91.93359375 225.07421875 105.2734375 290.71875 c 0,26,27
 110.661132812 314.661132812 110.661132812 314.661132812 121.86328125 351.723632812 c 128,-1,28
 133.06640625 388.787109375 133.06640625 388.787109375 155.92578125 427.383789062 c 0,29,30
 178.23828125 465.056640625 178.23828125 465.056640625 202.905713105 497.7109375 c 0,31,32
 228.955609316 530.364257812 228.955609316 530.364257812 272.307895127 556.51171875 c 0,33,34
 294.034098409 571.829101562 294.034098409 571.829101562 335.682154891 588.143554688 c 0,35,36
 377.967937035 605.53515625 377.967937035 605.53515625 442.820066167 614 c 1,37,-1
 444.042192308 614 l 2,38,39
 462.092222745 614 462.092222745 614 487.58984375 610.278320312 c 0,40,41
 510.982421875 606.556640625 510.982421875 606.556640625 526.702148438 600.3515625 c 128,-1,42
 542.421875 594.146484375 542.421875 594.146484375 551.611328125 588.069335938 c 0,43,44
 581 568.634765625 581 568.634765625 581 541.125 c 128,-1,45
 581 513.623046875 581 513.623046875 558.40234375 493.736328125 c 0,46,47
 541.65625 479 541.65625 479 520 479 c 0,48,49
 509.232421875 479 509.232421875 479 497.41796875 483.500976562 c 128,-1,50
 485.604492188 488.000976562 485.604492188 488.000976562 473.342748167 492.427734375 c 0,51,52
 460.73623951 496.853515625 460.73623951 496.853515625 452.099736342 499.333984375 c 128,-1,53
 443.463233174 501.814453125 443.463233174 501.814453125 439.595524976 502.544921875 c 0,54,55
 431.900374535 504 431.900374535 504 424.482732701 504 c 128,-1,56
 417.065090868 504 417.065090868 504 404.269223397 499.81640625 c 128,-1,57
 391.473355926 495.633789062 391.473355926 495.633789062 381.460192412 492.76171875 c 0,58,59
 342.324949162 475.590820312 342.324949162 475.590820312 314.324874817 457.081054688 c 128,-1,60
 286.324800471 438.5703125 286.324800471 438.5703125 256.748912543 395.92578125 c 128,-1,61
 227.056579826 353.112304688 227.056579826 353.112304688 213.0777639 287.306640625 c 0,62,63
 201.019742844 231.483398438 201.019742844 231.483398438 201.019742844 200.833984375 c 0,64,65
 201.019742844 160.879882812 201.019742844 160.879882812 222.245342363 116.907226562 c 0,66,67
 232.589339668 95.478515625 232.589339668 95.478515625 240.454260081 91.1025390625 c 0,68,69
 264.846722532 79.6767578125 264.846722532 79.6767578125 299.969517799 90.5732421875 c 128,-1,70
 335.092313067 101.470703125 335.092313067 101.470703125 366.56070087 125.157226562 c 1,71,-1
 395.076614745 237.290039062 l 1,72,73
 371.728890581 236.626953125 371.728890581 236.626953125 363.508106189 236.17578125 c 128,-1,74
 355.288410067 235.724609375 355.288410067 235.724609375 349.361696829 235.540039062 c 128,-1,75
 343.434983592 235.35546875 343.434983592 235.35546875 336.11746251 235.235351562 c 0,76,77
 321.701162426 235 321.701162426 235 301.400591598 235 c 2,78,-1
 300.14037604 235 l 1,79,80
 268.386861746 239.274414062 268.386861746 239.274414062 257.161366512 257.87109375 c 0,81,82
 250.197532871 269.407226562 250.197532871 269.407226562 250.197532871 282.357421875 c 0,83,84
 250.197532871 307.563476562 250.197532871 307.563476562 275.314782508 329.296875 c 0,85,86
 295.773152349 347 295.773152349 347 325.91711672 347 c 0,87,88
 386.103836441 347 386.103836441 347 411.944784995 348.49609375 c 128,-1,89
 437.78464528 349.9921875 437.78464528 349.9921875 463.554856346 350.37109375 c 0,90,91
 503.875 351 503.875 351 513 351 c 2,92,-1
 515.170898438 351 l 1,0,1
EndSplineSet
EndChar

StartChar: H
Encoding: 72 72 39
Width: 500
Flags: W
LayerCount: 2
Fore
SplineSet
404.250272343 -14 m 128,-1,1
 381.184308633 -14 381.184308633 -14 366.473231178 5.4765625 c 0,2,3
 358.050159164 16.62890625 358.050159164 16.62890625 358.050159164 30.32421875 c 128,-1,4
 358.050159164 44.01953125 358.050159164 44.01953125 361.846188203 57.5322265625 c 2,5,-1
 411.177519274 258.296875 l 1,6,-1
 215.480129984 234.493164062 l 1,7,-1
 168.978507903 51.6865234375 l 2,8,9
 159.875709107 14.732421875 159.875709107 14.732421875 137.1328125 0.3974609375 c 0,10,11
 116.428710938 -13 116.428710938 -13 95.0234375 -13 c 128,-1,12
 73.6181640625 -13 73.6181640625 -13 61.2158203125 7.154296875 c 0,13,14
 54.4287109375 17.658203125 54.4287109375 17.658203125 54.4287109375 33.1298828125 c 0,15,16
 54.4287109375 43.2783203125 54.4287109375 43.2783203125 57.3876953125 55.9609375 c 2,17,-1
 179.632532711 548.391601562 l 2,18,19
 192.061518053 594.504882812 192.061518053 594.504882812 233.969124636 607.37890625 c 0,20,21
 248.295591796 612 248.295591796 612 266.476685132 612 c 0,22,23
 289.683281969 612 289.683281969 612 300.214785492 592.693359375 c 0,24,25
 305.076217012 583.782226562 305.076217012 583.782226562 305.076217012 574.931640625 c 0,26,27
 305.076217012 561.323242188 305.076217012 561.323242188 302.106940298 548.803710938 c 2,28,-1
 246.117909125 326.109375 l 1,29,-1
 440.818081693 344.805664062 l 1,30,-1
 491.650564858 545.443359375 l 2,31,32
 501.144366365 582.426757812 501.144366365 582.426757812 527.694335938 599.489257812 c 0,33,34
 546.459960938 612 546.459960938 612 574 612 c 0,35,36
 595.905273438 612 595.905273438 612 606.177734375 593.166992188 c 0,37,38
 611 584.751953125 611 584.751953125 611 573.955078125 c 128,-1,39
 611 563.158203125 611 563.158203125 607.571289062 550.572265625 c 2,40,-1
 483.178484331 48.2197265625 l 2,41,42
 474.075685535 13.04296875 474.075685535 13.04296875 449.904899452 -0.6025390625 c 0,43,0
 427.317301456 -14 427.317301456 -14 404.250272343 -14 c 128,-1,1
EndSplineSet
EndChar

StartChar: I
Encoding: 73 73 40
Width: 500
Flags: W
LayerCount: 2
Fore
SplineSet
244.645026733 598.982421875 m 1,0,-1
 244.695949594 598 l 2,1,2
 245.057714089 598 245.057714089 598 256.585376853 598 c 128,-1,3
 268.113039617 598 268.113039617 598 336.421814699 598.998046875 c 0,4,-1
 337.584553369 598.977539062 l 2,5,6
 362.742568719 597.713867188 362.742568719 597.713867188 384.462230026 597.713867188 c 0,7,8
 423.58159656 597.713867188 423.58159656 597.713867188 463.595295848 600.190429688 c 128,-1,9
 503.608995137 602.666992188 503.608995137 602.666992188 529.3515625 602.666992188 c 0,10,11
 553.047851562 602.666992188 553.047851562 602.666992188 569.088867188 601.864257812 c 1,12,13
 592.782226562 598.48046875 592.782226562 598.48046875 601.424804688 591.897460938 c 0,14,15
 606.7890625 587.811523438 606.7890625 587.811523438 606.7890625 583.5 c 0,16,17
 606.7890625 560.057617188 606.7890625 560.057617188 585.375 539.541015625 c 0,18,19
 570.275390625 525.075195312 570.275390625 525.075195312 545.708007812 519.905273438 c 1,20,-1
 437.701020794 518.090820312 l 1,21,-1
 335.441549616 110 l 1,22,-1
 370.361901865 110 l 2,23,24
 408.913690672 110 408.913690672 110 426.066207842 110.982421875 c 2,25,-1
 430.564393938 111.083007812 l 2,26,27
 458.199594319 111.083007812 458.199594319 111.083007812 472.060160674 95.48828125 c 0,28,29
 484.118269911 81.921875 484.118269911 81.921875 484.118269911 64.9384765625 c 0,30,31
 484.118269911 43.2294921875 484.118269911 43.2294921875 466.353617511 24.83203125 c 128,-1,32
 448.587904218 6.4345703125 448.587904218 6.4345703125 418.159372707 0.068359375 c 1,33,34
 380.839280611 -1.3330078125 380.839280611 -1.3330078125 344.945028637 -1.3330078125 c 128,-1,35
 309.051837555 -1.3330078125 309.051837555 -1.3330078125 255.47568283 -0.6669921875 c 128,-1,36
 201.900588998 -0 201.900588998 -0 100 0 c 2,37,-1
 98.869140625 0 l 1,38,39
 70.5048828125 4.2548828125 70.5048828125 4.2548828125 59.9033203125 23.1865234375 c 0,40,41
 53.5458984375 34.5400390625 53.5458984375 34.5400390625 53.5458984375 44.404296875 c 0,42,43
 53.5458984375 73.8837890625 53.5458984375 73.8837890625 77.541015625 95.2138671875 c 0,44,45
 94.984375 110.717773438 94.984375 110.717773438 120.240234375 111.981445312 c 2,46,-1
 120.619140625 112 l 1,47,-1
 175.361291032 112 l 2,48,49
 203.673341113 112 203.673341113 112 219.574004605 111.560546875 c 1,50,-1
 321.579922368 494.279296875 l 1,51,-1
 220.377100566 493.48828125 l 1,52,53
 189.17623899 497.546875 189.17623899 497.546875 178.275563958 515.723632812 c 0,54,55
 171.85822252 526.42578125 171.85822252 526.42578125 171.85822252 538.331054688 c 0,56,57
 171.85822252 563.705078125 171.85822252 563.705078125 197.132936094 583.186523438 c 0,58,59
 216.09851931 597.803710938 216.09851931 597.803710938 244.645026733 598.982421875 c 1,0,-1
245.190325707 588.596679688 m 1,60,-1
 245.73138111 578.274414062 l 1,61,-1
 250.319743107 583.25 l 1,62,-1
 245.190325707 588.596679688 l 1,60,-1
EndSplineSet
EndChar

StartChar: J
Encoding: 74 74 41
Width: 500
Flags: W
LayerCount: 2
Fore
SplineSet
370.789663487 342.173828125 m 0,0,1
 396.065896662 442.009765625 396.065896662 442.009765625 407.165890786 493.47265625 c 1,2,3
 360.375973492 492.166015625 360.375973492 492.166015625 325.339673303 492.166015625 c 2,4,-1
 316.429316162 492.166015625 l 1,5,6
 288.314039946 496.303710938 288.314039946 496.303710938 276.359064796 513.90234375 c 0,7,8
 269.204001626 524.434570312 269.204001626 524.434570312 269.204001626 536.060546875 c 0,9,10
 269.204001626 543.260742188 269.204001626 543.260742188 271.990333136 550.526367188 c 0,11,12
 280.71830838 581.92578125 280.71830838 581.92578125 324.581681492 597.876953125 c 2,13,-1
 327.440754914 598.966796875 l 1,14,15
 427.803509264 600 427.803509264 600 466.621334662 600 c 128,-1,16
 505.440214291 600 505.440214291 600 599.747070312 601.99609375 c 0,17,18
 601.915039062 616.99609375 601.915039062 616.99609375 604.083007812 601.99609375 c 2,19,-1
 604.881835938 601.979492188 l 1,20,21
 638.153320312 600.227539062 638.153320312 600.227539062 648.30859375 572.330078125 c 0,22,23
 651.005859375 564.921875 651.005859375 564.921875 651.005859375 557.168945312 c 1,24,-1
 648.572265625 542.043945312 l 1,25,26
 644.447265625 524.030273438 644.447265625 524.030273438 629.947265625 510.161132812 c 128,-1,27
 615.291015625 496.142578125 615.291015625 496.142578125 590.017578125 491.087890625 c 1,28,29
 571.530273438 490 571.530273438 490 549.342593936 490 c 2,30,-1
 521.781843022 490 l 1,31,-1
 436.111900725 161.546875 l 2,32,33
 421.235652546 105.581054688 421.235652546 105.581054688 381.111635418 62.533203125 c 0,34,35
 341.741393178 20.0615234375 341.741393178 20.0615234375 285.48237652 -3.9814453125 c 0,36,37
 228.08584503 -30 228.08584503 -30 175.284704782 -30 c 0,38,39
 135.860351562 -30 135.860351562 -30 118.263671875 -16.0439453125 c 0,40,41
 100.666992188 -2.73828125 100.666992188 -2.73828125 83.3515625 25.052734375 c 0,42,43
 73.9287109375 38.841796875 73.9287109375 38.841796875 55.98046875 85.8974609375 c 0,44,45
 51.814453125 96.8212890625 51.814453125 96.8212890625 51.3291015625 99.6748046875 c 0,46,47
 44.4267578125 115.951171875 44.4267578125 115.951171875 48.529296875 133.344726562 c 0,48,49
 53.619140625 152.75390625 53.619140625 152.75390625 69.435546875 166.577148438 c 128,-1,50
 85.251953125 180.400390625 85.251953125 180.400390625 106.583007812 180.400390625 c 128,-1,51
 127.913085938 180.400390625 127.913085938 180.400390625 145.573323418 164.977539062 c 1,52,53
 154.202200985 153.545898438 154.202200985 153.545898438 158.44231651 143.381835938 c 128,-1,54
 162.682432035 133.217773438 162.682432035 133.217773438 164.854147098 125.927734375 c 0,55,56
 168.490188482 113.7265625 168.490188482 113.7265625 169.483273719 108.02734375 c 128,-1,57
 170.475304726 102.328125 170.475304726 102.328125 174.877771765 91.2314453125 c 0,58,59
 180.568508614 83.4677734375 180.568508614 83.4677734375 193.915068174 76.32421875 c 0,60,61
 205.10678036 70.333984375 205.10678036 70.333984375 227.511289346 77.529296875 c 0,62,63
 254.190703467 86.09765625 254.190703467 86.09765625 277.224588129 104.670898438 c 0,64,65
 292.186228987 114.58203125 292.186228987 114.58203125 303.570865376 130.381835938 c 0,66,67
 306.986572562 135.122070312 306.986572562 135.122070312 311.753803394 141.8515625 c 0,68,69
 326.239986246 177.69140625 326.239986246 177.69140625 336.817081985 214.123046875 c 0,70,71
 348.953384801 255.92578125 348.953384801 255.92578125 370.789663487 342.173828125 c 0,0,1
EndSplineSet
EndChar

StartChar: K
Encoding: 75 75 42
Width: 500
Flags: W
LayerCount: 2
Fore
SplineSet
131.91015625 9.232421875 m 0,0,1
 113.3671875 -6 113.3671875 -6 93.7529296875 -6 c 128,-1,2
 74.138671875 -6 74.138671875 -6 60.14453125 10.203125 c 0,3,4
 48.65234375 23.52734375 48.65234375 23.52734375 48.65234375 45.7265625 c 0,5,6
 48.65234375 53.373046875 48.65234375 53.373046875 49.408203125 56.546875 c 0,7,8
 109.827148438 310.247070312 109.827148438 310.247070312 172.845210653 583.5 c 1,9,10
 184.968851262 587.930664062 184.968851262 587.930664062 202.396118425 590.223632812 c 0,11,12
 219.824451216 603 219.824451216 603 239.747417272 603 c 128,-1,13
 259.617101969 603 259.617101969 603 274.234310216 589.604492188 c 128,-1,14
 288.851518464 576.208984375 288.851518464 576.208984375 288.851518464 551 c 2,15,-1
 288.851518464 549.298828125 l 1,16,17
 273.705759127 488.443359375 273.705759127 488.443359375 239.534291833 358.455078125 c 1,18,19
 303.329129549 387.37890625 303.329129549 387.37890625 365.058781759 439.529296875 c 0,20,21
 399.555265348 468.672851562 399.555265348 468.672851562 423.772709004 492.19140625 c 128,-1,22
 447.991218288 515.709960938 447.991218288 515.709960938 461.293442575 528.236328125 c 0,23,24
 487.872316098 553.264648438 487.872316098 553.264648438 518.325195312 581.513671875 c 1,25,26
 541.15234375 598 541.15234375 598 563.0390625 598 c 128,-1,27
 584.92578125 598 584.92578125 598 596.90234375 581.27734375 c 0,28,29
 604.391601562 570.819335938 604.391601562 570.819335938 604.391601562 557.15625 c 0,30,31
 604.391601562 550.5859375 604.391601562 550.5859375 602.229492188 541.559570312 c 128,-1,32
 600.06640625 532.534179688 600.06640625 532.534179688 589.80078125 516.651367188 c 1,33,34
 552.666015625 482.278320312 552.666015625 482.278320312 523.655273438 453.228515625 c 0,35,36
 493.609652921 424.1796875 493.609652921 424.1796875 473.064360582 406.893554688 c 128,-1,37
 452.518002616 389.607421875 452.518002616 389.607421875 442.35831293 381.331054688 c 0,38,39
 389.058837467 337.908203125 389.058837467 337.908203125 350.549201858 314.896484375 c 1,40,41
 389.856992237 261.006835938 389.856992237 261.006835938 431.383418438 205.298828125 c 128,-1,42
 472.909844639 149.592773438 472.909844639 149.592773438 515.12109375 88.92578125 c 1,43,44
 521.454101562 76.8662109375 521.454101562 76.8662109375 521.454101562 66.771484375 c 0,45,46
 521.454101562 33.9853515625 521.454101562 33.9853515625 497.422467029 15.3388671875 c 0,47,48
 479.222620148 2 479.222620148 2 456.896664765 2 c 0,49,50
 445.829060707 2 445.829060707 2 433.337778715 7.0078125 c 128,-1,51
 420.846496724 12.0166015625 420.846496724 12.0166015625 411.489224316 24.87890625 c 0,52,53
 378.676431697 72.9912109375 378.676431697 72.9912109375 360.178209201 99.416015625 c 128,-1,54
 341.577686495 125.98828125 341.577686495 125.98828125 321.351016688 155.546875 c 0,55,56
 297.550233265 190.326171875 297.550233265 190.326171875 270.127383003 229.240234375 c 128,-1,57
 242.704532741 268.155273438 242.704532741 268.155273438 238.226767264 274.892578125 c 1,58,59
 223.986791043 269.456054688 223.986791043 269.456054688 206.860030749 263.69921875 c 1,60,61
 170.599934151 113.827148438 170.599934151 113.827148438 157.611004259 52.1455078125 c 0,62,63
 150.764349525 24.4638671875 150.764349525 24.4638671875 131.91015625 9.232421875 c 0,0,1
EndSplineSet
EndChar

StartChar: L
Encoding: 76 76 43
Width: 500
Flags: W
LayerCount: 2
Fore
SplineSet
445.260742188 111.61328125 m 2,0,1
 467.059570312 103.83984375 467.059570312 103.83984375 475.143554688 87.064453125 c 0,2,3
 480.05859375 76.8662109375 480.05859375 76.8662109375 480.05859375 68.59765625 c 128,-1,4
 480.05859375 60.330078125 480.05859375 60.330078125 478.586914062 54.49609375 c 0,5,6
 474.5625 38.5517578125 474.5625 38.5517578125 459.375 24.708984375 c 128,-1,7
 444.275390625 10.9482421875 444.275390625 10.9482421875 419.78125 6.0439453125 c 1,8,9
 340.849619073 4.001953125 340.849619073 4.001953125 260.091804131 3.5048828125 c 128,-1,10
 179.332863064 3.0078125 179.332863064 3.0078125 103.288085938 -8.1318359375 c 1,11,12
 82.900390625 -5.8017578125 82.900390625 -5.8017578125 71.763671875 4.28515625 c 0,13,14
 57.375 17.33203125 57.375 17.33203125 57.375 40.8408203125 c 0,15,16
 57.375 46.1435546875 57.375 46.1435546875 58.2138671875 52.6923828125 c 0,17,18
 88.392578125 185.639648438 88.392578125 185.639648438 119.915039062 316.88671875 c 2,19,-1
 187.364387839 583.5 l 1,20,21
 198.364378584 586.466796875 198.364378584 586.466796875 217.338461721 588.123046875 c 0,22,23
 237.424030409 601.522460938 237.424030409 601.522460938 257.169509292 601.526367188 c 128,-1,24
 276.749447775 601.526367188 276.749447775 601.526367188 291.65033614 588.604492188 c 0,25,26
 306.3631616 576.470703125 306.3631616 576.470703125 309.618789492 550.966796875 c 1,27,-1
 180.391420732 99.857421875 l 1,28,29
 241.233711888 101.827148438 241.233711888 101.827148438 307.700998312 106.211914062 c 128,-1,30
 374.159275735 110.596679688 374.159275735 110.596679688 442.499023438 112.598632812 c 1,31,-1
 445.260742188 111.61328125 l 2,0,1
EndSplineSet
EndChar

StartChar: M
Encoding: 77 77 44
Width: 500
Flags: W
LayerCount: 2
Fore
SplineSet
415.824614041 484.4375 m 128,-1,1
 435.208157831 524.008789062 435.208157831 524.008789062 471.261314032 577.512695312 c 1,2,3
 495.84765625 609 495.84765625 609 527.420898438 609 c 0,4,5
 542.666992188 609 542.666992188 609 555.127929688 598.005859375 c 0,6,7
 567.587890625 587.538085938 567.587890625 587.538085938 572.643554688 565.880859375 c 0,8,9
 573.865234375 559.08984375 573.865234375 559.08984375 573.865234375 542.172851562 c 0,10,11
 573.865234375 505.883789062 573.865234375 505.883789062 562.390625 415.850585938 c 2,12,-1
 548.483398438 305.720703125 l 1,13,-1
 533.487304688 319.96875 l 1,14,-1
 518.946289062 309.189453125 l 1,15,-1
 548.309570312 303.44140625 l 1,16,17
 514.862304688 105.142578125 514.862304688 105.142578125 509.989257812 80.0654296875 c 0,18,19
 503.057617188 44.3935546875 503.057617188 44.3935546875 500.6875 40.2900390625 c 0,20,21
 493.221679688 15.8671875 493.221679688 15.8671875 475.199615559 2.275390625 c 0,22,23
 455.489929502 -12 455.489929502 -12 434.206206018 -12 c 128,-1,24
 412.921413214 -12 412.921413214 -12 397.62266764 3.4423828125 c 0,25,26
 386.059053002 7.2841796875 386.059053002 7.2841796875 386.059053002 13.4921875 c 0,27,28
 386.059053002 15.9794921875 386.059053002 15.9794921875 387.729329131 18.5 c 0,29,30
 401.923468276 78.3271484375 401.923468276 78.3271484375 415.057912386 123.405273438 c 1,31,32
 423.738643257 174.838867188 423.738643257 174.838867188 434.549457386 226.266601562 c 1,33,34
 437.929574445 270.580078125 437.929574445 270.580078125 447.843230013 309.084960938 c 0,35,36
 449.523130013 320.1640625 449.523130013 320.1640625 451.821096339 336.411132812 c 1,37,38
 450.59031028 333.969726562 450.59031028 333.969726562 438.498452102 310.04296875 c 128,-1,39
 426.406593925 286.116210938 426.406593925 286.116210938 405.343150134 243.0859375 c 128,-1,40
 384.278637025 200.056640625 384.278637025 200.056640625 358.517675285 164.766601562 c 1,41,42
 333.189787701 141.63671875 333.189787701 141.63671875 306.109286433 140.334960938 c 2,43,-1
 302.717406866 140.171875 l 1,44,45
 271.160736661 150.7890625 271.160736661 150.7890625 263.273440418 173.83984375 c 2,46,-1
 262.731295733 175.424804688 l 1,47,48
 253.576856588 278.538085938 253.576856588 278.538085938 252.69573781 293.09375 c 128,-1,49
 251.814619032 307.649414062 251.814619032 307.649414062 250.807320624 328.520507812 c 1,50,-1
 207.012295551 200.771484375 l 2,51,52
 140.844980348 22.03125 140.844980348 22.03125 134.207717905 3.798828125 c 1,53,54
 115.967773438 -12.5361328125 115.967773438 -12.5361328125 89.892578125 -17.318359375 c 0,55,56
 82.0185546875 -20 82.0185546875 -20 74 -20 c 0,57,58
 53.63671875 -20 53.63671875 -20 40.6240234375 -3.16015625 c 0,59,60
 31.2177734375 8.427734375 31.2177734375 8.427734375 31.2177734375 26.23828125 c 0,61,62
 31.2177734375 35.82421875 31.2177734375 35.82421875 32.6796875 40.2783203125 c 2,63,-1
 212.47223788 557.725585938 l 1,64,65
 222.926968814 578.174804688 222.926968814 578.174804688 241.031607194 590.28125 c 0,66,67
 259.136245575 603 259.136245575 603 278.953932841 603 c 0,68,69
 311.88360852 603 311.88360852 603 325.917349829 571.669921875 c 1,70,-1
 326.928925513 568.368164062 l 1,71,72
 340.373472105 490.588867188 340.373472105 490.588867188 342.958015898 478.559570312 c 1,73,74
 340.343531176 482.548828125 340.343531176 482.548828125 339.220746326 483.502929688 c 0,75,76
 334.805528567 487.256835938 334.805528567 487.256835938 327.765132896 487.918945312 c 1,77,-1
 312.558348749 474.263671875 l 1,78,-1
 327.229404125 463.103515625 l 1,79,-1
 343.56218108 476.974609375 l 1,80,81
 343.557903804 469.176757812 343.557903804 469.176757812 345.598164275 427.8671875 c 128,-1,82
 347.639494065 386.557617188 347.639494065 386.557617188 349.547158991 341.37109375 c 1,83,0
 396.440000931 444.8671875 396.440000931 444.8671875 415.824614041 484.4375 c 128,-1,1
EndSplineSet
EndChar

StartChar: N
Encoding: 78 78 45
Width: 500
Flags: W
LayerCount: 2
Fore
SplineSet
562.181640625 626 m 128,-1,1
 580.461914062 626 580.461914062 626 593.23046875 612.479492188 c 0,2,3
 606 599.586914062 606 599.586914062 606 575.786132812 c 2,4,-1
 606 574.146484375 l 1,5,6
 572.598632812 436.12890625 572.598632812 436.12890625 540.533203125 310.056640625 c 128,-1,7
 508.466796875 183.983398438 508.466796875 183.983398438 465.345771704 51.6630859375 c 1,8,-1
 487.545044937 32.2509765625 l 1,9,-1
 458.706010185 32.2509765625 l 1,10,11
 458.047891081 30.1328125 458.047891081 30.1328125 456.857313153 25.96875 c 1,12,13
 444.124092869 6.173828125 444.124092869 6.173828125 427.936279743 -3.673828125 c 0,14,15
 411.749531535 -14 411.749531535 -14 394.626720716 -14 c 0,16,17
 367.486229609 -14 367.486229609 -14 350.605155096 8.5166015625 c 2,18,-1
 348.935364228 10.744140625 l 1,19,20
 347.987587524 14.21875 347.987587524 14.21875 347.716033525 15 c 2,21,-1
 331.083084823 15 l 1,22,-1
 341.117803794 33.4052734375 l 1,23,24
 319.362601219 101.146484375 319.362601219 101.146484375 311.348031021 156.510742188 c 128,-1,25
 303.307902799 212.057617188 303.307902799 212.057617188 290.397906185 256.452148438 c 128,-1,26
 277.487909572 300.84765625 277.487909572 300.84765625 265.228577639 337.198242188 c 128,-1,27
 252.969245707 373.547851562 252.969245707 373.547851562 245.02176532 403.025390625 c 1,28,29
 200.096084619 223.74609375 200.096084619 223.74609375 185.929485184 164.204101562 c 128,-1,30
 171.767145419 104.680664062 171.767145419 104.680664062 155.335466153 40.3876953125 c 0,31,32
 147.365622496 12.369140625 147.365622496 12.369140625 128.809570312 -2.2578125 c 128,-1,33
 110.22265625 -17 110.22265625 -17 90.53515625 -17 c 128,-1,34
 70.8466796875 -17 70.8466796875 -17 57.8359375 -0.927734375 c 0,35,36
 47.619140625 11.091796875 47.619140625 11.091796875 47.619140625 31.4169921875 c 0,37,38
 47.619140625 35.6669921875 47.619140625 35.6669921875 48.1533203125 41.26171875 c 2,39,-1
 176.202527412 564.44921875 l 1,40,41
 187.187152923 586.033203125 187.187152923 586.033203125 204.618789859 598.211914062 c 0,42,43
 222.050426794 611 222.050426794 611 241.96012709 611 c 2,44,-1
 242.596947842 611 l 1,45,46
 262.242548562 609.614257812 262.242548562 609.614257812 280.272669214 596.895507812 c 2,47,-1
 283.609056197 594.541992188 l 1,48,49
 306.746521876 546.25390625 306.746521876 546.25390625 324.320857775 497.051757812 c 128,-1,50
 341.895193675 447.848632812 341.895193675 447.848632812 366.31907987 371.962890625 c 128,-1,51
 390.744030982 296.076171875 390.744030982 296.076171875 396.603207866 276.12109375 c 128,-1,52
 402.461319833 256.166015625 402.461319833 256.166015625 406.954207378 227.967773438 c 1,53,54
 443.644879928 359.075195312 443.644879928 359.075195312 499.009948306 575.830078125 c 1,55,56
 510.862304688 600.584960938 510.862304688 600.584960938 527.381835938 613.29296875 c 128,-1,0
 543.901367188 626 543.901367188 626 562.181640625 626 c 128,-1,1
EndSplineSet
EndChar

StartChar: O
Encoding: 79 79 46
Width: 500
Flags: W
LayerCount: 2
Fore
SplineSet
429.686637805 276.538085938 m 1,0,1
 436.740417772 297.572265625 436.740417772 297.572265625 444.114079729 316.8515625 c 0,2,3
 464.791775532 370.918945312 464.791775532 370.918945312 464.791775532 419.217773438 c 0,4,5
 464.791775532 434.6640625 464.791775532 434.6640625 459.96734376 451.208007812 c 0,6,7
 448.189572782 492.389648438 448.189572782 492.389648438 433.604919233 515.686523438 c 0,8,9
 424.442975031 530.321289062 424.442975031 530.321289062 405.146339692 530.321289062 c 0,10,11
 402.849303157 530.321289062 402.849303157 530.321289062 400.381954028 530.135742188 c 0,12,13
 371.828392463 524.71484375 371.828392463 524.71484375 335.960123302 485.946289062 c 0,14,15
 296.858098334 443.682617188 296.858098334 443.682617188 267.388560699 392.9140625 c 128,-1,16
 237.919023064 342.146484375 237.919023064 342.146484375 231.432951746 324.741210938 c 128,-1,17
 224.946880427 307.3359375 224.946880427 307.3359375 206.256164897 260.119140625 c 1,18,19
 197.237239605 215.744140625 197.237239605 215.744140625 197.237239605 181.030273438 c 0,20,21
 197.237239605 143.197265625 197.237239605 143.197265625 206.719065796 121.770507812 c 128,-1,22
 216.200891986 100.344726562 216.200891986 100.344726562 222.792862802 91.041015625 c 0,23,24
 232.101101156 84.158203125 232.101101156 84.158203125 239.434368458 84.158203125 c 0,25,26
 241.172430323 84.158203125 241.172430323 84.158203125 244.937867114 85 c 2,27,-1
 247.015462421 85 l 2,28,29
 265.809893955 85 265.809893955 85 273.710869907 86.1162109375 c 128,-1,30
 281.611845859 87.2314453125 281.611845859 87.2314453125 300.553663292 99.9150390625 c 0,31,32
 324.626693517 116.787109375 324.626693517 116.787109375 341.570613203 135.731445312 c 128,-1,33
 358.513441142 154.67578125 358.513441142 154.67578125 374.976991972 178.23828125 c 128,-1,34
 391.439451054 201.80078125 391.439451054 201.80078125 402.713926479 218.715820312 c 128,-1,35
 413.987310157 235.631835938 413.987310157 235.631835938 418.072628937 243.65234375 c 0,36,37
 426.167935927 259.544921875 426.167935927 259.544921875 429.686637805 276.538085938 c 1,0,1
565.61328125 486.989257812 m 0,38,39
 572.74609375 460.845703125 572.74609375 460.845703125 572.74609375 432.060546875 c 0,40,41
 572.74609375 354.506835938 572.74609375 354.506835938 533.200195312 257.953125 c 0,42,43
 521.747070312 221.491210938 521.747070312 221.491210938 499.211914062 182.436523438 c 128,-1,44
 476.677734375 143.381835938 476.677734375 143.381835938 448.117517454 109.946289062 c 0,45,46
 419.283376807 76.5107421875 419.283376807 76.5107421875 384.185881312 50.5751953125 c 128,-1,47
 349.088385817 24.640625 349.088385817 24.640625 313.975605858 10.1875 c 1,48,49
 295.156064134 3.875 295.156064134 3.875 275.368142464 -2.193359375 c 1,50,-1
 232.523607401 -11.11328125 l 1,51,52
 202.408847051 -7.880859375 202.408847051 -7.880859375 183.977539062 -5.59765625 c 1,53,54
 142.08984375 2.3662109375 142.08984375 2.3662109375 123.6171875 18.5 c 0,55,56
 91.599609375 81.5576171875 91.599609375 81.5576171875 91.599609375 152.008789062 c 0,57,58
 91.599609375 198.772460938 91.599609375 198.772460938 103.326171875 250.995117188 c 0,59,60
 106.517578125 266.89453125 106.517578125 266.89453125 111.678710938 281.869140625 c 0,61,62
 118.87890625 302.754882812 118.87890625 302.754882812 126.516601562 323.232421875 c 128,-1,63
 134.155273438 343.708984375 134.155273438 343.708984375 152.452148438 382.859375 c 0,64,65
 190.562295986 464.275390625 190.562295986 464.275390625 247.245821123 528.734375 c 0,66,67
 275.862704037 561.278320312 275.862704037 561.278320312 304.305999114 583.3828125 c 0,68,69
 322.316556013 597.197265625 322.316556013 597.197265625 356.227322081 608.034179688 c 128,-1,70
 390.13808815 618.8671875 390.13808815 618.8671875 437.905312251 621.05859375 c 1,71,72
 502.211914062 612.359375 502.211914062 612.359375 527.404296875 581.086914062 c 0,73,74
 547.586914062 556.03125 547.586914062 556.03125 565.61328125 486.989257812 c 0,38,39
EndSplineSet
EndChar

StartChar: P
Encoding: 80 80 47
Width: 500
Flags: W
LayerCount: 2
Fore
SplineSet
208.285675837 583.385742188 m 128,-1,1
 225.888216141 595 225.888216141 595 245.703536955 595 c 0,2,3
 252.136038436 595 252.136038436 595 256.993649138 594.026367188 c 0,4,5
 318.064890286 617.6953125 318.064890286 617.6953125 373.343663849 627.422851562 c 0,6,7
 387.988325555 630 387.988325555 630 398.29962543 630 c 0,8,9
 428.757519944 630 428.757519944 630 456.926516015 623.994140625 c 0,10,11
 488.727539062 617.131835938 488.727539062 617.131835938 516.765625 595.903320312 c 0,12,13
 535.109375 582.48046875 535.109375 582.48046875 550.42578125 561.46875 c 0,14,15
 583.125 516.612304688 583.125 516.612304688 583.125 446.670898438 c 0,16,17
 583.125 419.622070312 583.125 419.622070312 576.637695312 392.749023438 c 0,18,19
 556.549804688 306.130859375 556.549804688 306.130859375 473.248988524 237.181640625 c 0,20,21
 388.517934844 172.505859375 388.517934844 172.505859375 287.829989156 164.993164062 c 0,22,23
 262.927631755 163 262.927631755 163 240.531805764 163 c 128,-1,24
 218.135979773 163 218.135979773 163 204.400444943 166.575195312 c 0,25,26
 200.495916543 167.590820312 200.495916543 167.590820312 196.385548097 168.610351562 c 1,27,-1
 157.346696606 22.9287109375 l 1,28,29
 148.587773756 -2.7861328125 148.587773756 -2.7861328125 130.809570312 -16.2578125 c 0,30,31
 112.22265625 -31 112.22265625 -31 92.53515625 -31 c 128,-1,32
 72.8466796875 -31 72.8466796875 -31 59.8359375 -14.927734375 c 0,33,34
 49.619140625 -2.8984375 49.619140625 -2.8984375 49.619140625 17.4443359375 c 0,35,36
 49.619140625 21.697265625 49.619140625 21.697265625 50.1533203125 27.294921875 c 2,37,-1
 113.384765625 291.326171875 l 1,38,-1
 178.42278771 548.1171875 l 1,39,0
 190.683135534 571.770507812 190.683135534 571.770507812 208.285675837 583.385742188 c 128,-1,1
281.981773226 505.83984375 m 1,40,-1
 224.792546722 281.015625 l 1,41,42
 255.286892078 275 255.286892078 275 289.616080401 275 c 0,43,44
 308.784934815 275 308.784934815 275 345.696772482 286.674804688 c 0,45,46
 382.079000861 298.181640625 382.079000861 298.181640625 408.145641031 319.149414062 c 0,47,48
 432.536614565 339.541015625 432.536614565 339.541015625 447.69909264 363.479492188 c 0,49,50
 473.365845634 404.005859375 473.365845634 404.005859375 473.365845634 443.908203125 c 0,51,52
 473.365845634 495.068359375 473.365845634 495.068359375 433.115539698 520.494140625 c 0,53,54
 409.954246031 533.900390625 409.954246031 533.900390625 376.842944655 533.999023438 c 0,55,56
 343.856004975 532.12890625 343.856004975 532.12890625 326.329582606 525.224609375 c 128,-1,57
 308.758132726 518.303710938 308.758132726 518.303710938 281.981773226 505.83984375 c 1,40,-1
EndSplineSet
EndChar

StartChar: Q
Encoding: 81 81 48
Width: 500
Flags: W
LayerCount: 2
Fore
SplineSet
437.166202772 -65 m 2,0,1
 416.329702903 -65 416.329702903 -65 402.643292904 -58.0029296875 c 2,2,-1
 400.681850807 -56.4677734375 l 1,3,4
 367.734865741 -7.064453125 367.734865741 -7.064453125 341.743573724 23.029296875 c 1,5,6
 329.13289895 16.1982421875 329.13289895 16.1982421875 305.621804596 3.3310546875 c 0,7,8
 271.592531602 -11.220703125 271.592531602 -11.220703125 266.57316196 -12.732421875 c 0,9,10
 261.553792318 -14.0419921875 261.553792318 -14.0419921875 257.595960381 -14.7607421875 c 128,-1,11
 253.638128444 -15.4736328125 253.638128444 -15.4736328125 249.387609156 -15.953125 c 0,12,13
 241.14321807 -16.9228515625 241.14321807 -16.9228515625 231.793604601 -16.994140625 c 0,14,15
 226.343940868 -17.9091796875 226.343940868 -17.9091796875 223.133116946 -17.9091796875 c 128,-1,16
 219.922293023 -17.9091796875 219.922293023 -17.9091796875 215.6051546 -17.904296875 c 0,17,18
 203.437879321 -17.8935546875 203.437879321 -17.8935546875 187.084960938 -12.8701171875 c 0,19,20
 160.013671875 -5.3818359375 160.013671875 -5.3818359375 133.178710938 23.6396484375 c 0,21,22
 106.344726562 53.462890625 106.344726562 53.462890625 98.9052734375 78.541015625 c 0,23,24
 91.466796875 104.705078125 91.466796875 104.705078125 91.466796875 148.133789062 c 0,25,26
 91.466796875 228.788085938 91.466796875 228.788085938 105.170898438 272.946289062 c 0,27,28
 109.47265625 286.807617188 109.47265625 286.807617188 112.418945312 300.5546875 c 0,29,30
 121.754882812 334.787109375 121.754882812 334.787109375 138.578125 376.590820312 c 0,31,32
 168.579101562 446.572265625 168.579101562 446.572265625 238.492650159 521.490234375 c 0,33,34
 272.217222515 556.80859375 272.217222515 556.80859375 308.071422983 578.008789062 c 0,35,36
 334.207966559 593.123046875 334.207966559 593.123046875 373.950103477 606.505859375 c 0,37,38
 391.79420282 611.782226562 391.79420282 611.782226562 409.782461605 611.782226562 c 0,39,40
 442.674840822 611.782226562 442.674840822 611.782226562 478.000976562 599.006835938 c 0,41,42
 531.821289062 577.595703125 531.821289062 577.595703125 558.049804688 513.993164062 c 0,43,44
 571.80078125 478.057617188 571.80078125 478.057617188 571.799804688 432.919921875 c 0,45,46
 571.799804688 403.508789062 571.799804688 403.508789062 566.849609375 372.853515625 c 0,47,48
 560.649414062 323.477539062 560.649414062 323.477539062 544.204101562 275.168945312 c 0,49,50
 537.294921875 256.213867188 537.294921875 256.213867188 523.950195312 225.81640625 c 0,51,52
 510.604492188 199.098632812 510.604492188 199.098632812 498.453125 177.514648438 c 0,53,54
 475.631835938 133.346679688 475.631835938 133.346679688 428.529741691 91.55078125 c 1,55,56
 441.131679528 74.2783203125 441.131679528 74.2783203125 451.279630511 62.3125 c 0,57,58
 469.159769714 43.6826171875 469.159769714 43.6826171875 476.66015625 35.3603515625 c 0,59,60
 496 15.0498046875 496 15.0498046875 496.041992188 -16.03515625 c 0,61,62
 496.041992188 -36.7841796875 496.041992188 -36.7841796875 477.349609375 -51.99609375 c 0,63,64
 461.99657444 -62.9169921875 461.99657444 -62.9169921875 438.292175379 -65 c 1,65,-1
 437.166202772 -65 l 2,0,1
438.152384406 291.153320312 m 1,66,67
 453.031386147 335.68359375 453.031386147 335.68359375 457.512342118 363.079101562 c 128,-1,68
 461.993298089 390.474609375 461.993298089 390.474609375 461.993298089 402.9921875 c 0,69,70
 461.993298089 415.095703125 461.993298089 415.095703125 461.782519512 419.837890625 c 0,71,72
 459.799235075 461.005859375 459.799235075 461.005859375 437.340941489 486.715820312 c 0,73,74
 428.539570744 494.6015625 428.539570744 494.6015625 419.784068912 497.520507812 c 0,75,76
 416.275097054 497.428710938 416.275097054 497.428710938 408.986308326 497.428710938 c 128,-1,77
 401.697519599 497.428710938 401.697519599 497.428710938 387.015098914 493.609375 c 0,78,79
 372.333770346 489.278320312 372.333770346 489.278320312 353.701162542 480.486328125 c 0,80,81
 321.91400571 460.458007812 321.91400571 460.458007812 301.944646722 435.666015625 c 0,82,83
 220.305626084 327.841796875 220.305626084 327.841796875 207.786689137 239.1796875 c 0,84,-1
 207.583555378 238.046875 l 1,85,86
 198.882659395 199.146484375 198.882659395 199.146484375 198.884843629 156.036132812 c 0,87,88
 198.884843629 126.025390625 198.884843629 126.025390625 210.474389026 111.674804688 c 0,89,90
 223.489147082 95.693359375 223.489147082 95.693359375 245.270328139 85.4814453125 c 0,91,92
 247.865198085 86.3017578125 247.865198085 86.3017578125 251.084758943 86.3017578125 c 0,93,94
 263.331758762 86.3017578125 263.331758762 86.3017578125 285.368495193 99.5615234375 c 1,95,-1
 273.002454624 114.666015625 l 1,96,97
 267.432658024 127.6015625 267.432658024 127.6015625 255.430292409 140.504882812 c 0,98,99
 234.941085738 156.001953125 234.941085738 156.001953125 232.276320306 170.317382812 c 0,100,101
 231.617773767 173.806640625 231.617773767 173.806640625 231.617773767 176.921875 c 0,102,103
 231.617773767 185.004882812 231.617773767 185.004882812 232.659653366 192.98046875 c 0,104,105
 235.659698712 213.295898438 235.659698712 213.295898438 255.483806141 228.213867188 c 0,106,107
 271.570689262 241 271.570689262 241 285.807526219 241 c 0,108,109
 289.702015372 241 289.702015372 241 293.454529316 240.048828125 c 0,110,111
 316.238273762 239.576171875 316.238273762 239.576171875 332.625489054 218.262695312 c 0,112,113
 348.858715851 199.900390625 348.858715851 199.900390625 355.941094469 189.97265625 c 0,114,115
 363.023473087 180.291992188 363.023473087 180.291992188 366.110887791 176.552734375 c 1,116,117
 393.7545528 196.094726562 393.7545528 196.094726562 402.950177775 213.638671875 c 0,118,119
 415.868829537 245.279296875 415.868829537 245.279296875 438.152384406 291.153320312 c 1,66,67
EndSplineSet
EndChar

StartChar: R
Encoding: 82 82 49
Width: 500
Flags: W
LayerCount: 2
Fore
SplineSet
164.955157581 23.66796875 m 0,0,1
 157.333007812 7.673828125 157.333007812 7.673828125 144.809570312 -2.2578125 c 0,2,3
 126.22265625 -17 126.22265625 -17 106.53515625 -17 c 128,-1,4
 86.8466796875 -17 86.8466796875 -17 73.8359375 -0.927734375 c 0,5,6
 63.619140625 11.0947265625 63.619140625 11.0947265625 63.619140625 31.4248046875 c 0,7,8
 63.619140625 39.126953125 63.619140625 39.126953125 64.3955078125 42.2802734375 c 0,9,10
 171.196507216 472.634765625 171.196507216 472.634765625 188.977897108 547.568359375 c 1,11,12
 199.480582012 574.805664062 199.480582012 574.805664062 212.668123354 585.065429688 c 0,13,14
 227.171728592 596.348632812 227.171728592 596.348632812 236.766189514 601.188476562 c 0,15,16
 289.729421644 627.310546875 289.729421644 627.310546875 327.531554634 633.743164062 c 0,17,18
 355.488496621 638.5 355.488496621 638.5 372.947058083 638.5 c 0,19,20
 378.679414895 638.5 378.679414895 638.5 383.430373281 637.998046875 c 0,21,22
 431.204676455 637.544921875 431.204676455 637.544921875 472.59450939 624.7578125 c 0,23,24
 511.428710938 611.98046875 511.428710938 611.98046875 538.943359375 582.287109375 c 0,25,26
 571.818359375 547.248046875 571.818359375 547.248046875 580.678710938 505.193359375 c 0,27,28
 584.764648438 485.798828125 584.764648438 485.798828125 584.764648438 472.131835938 c 128,-1,29
 584.764648438 458.463867188 584.764648438 458.463867188 584.1953125 450.985351562 c 0,30,31
 578.071289062 370.490234375 578.071289062 370.490234375 510.3046875 292.900390625 c 0,32,33
 460.012809401 238.110351562 460.012809401 238.110351562 393.756578643 208.611328125 c 1,34,35
 417.459718026 172.251953125 417.459718026 172.251953125 439.852173985 140.295898438 c 0,36,37
 479.116719759 84.26171875 479.116719759 84.26171875 505.1796875 41.634765625 c 1,38,39
 511.454101562 29.0947265625 511.454101562 29.0947265625 511.454101562 18.5 c 0,40,41
 511.454101562 2.888671875 511.454101562 2.888671875 488.138671875 -5.990234375 c 0,42,43
 469.940859701 -20 469.940859701 -20 447.395598285 -20 c 0,44,45
 436.219278059 -20 436.219278059 -20 423.605295227 -14.9921875 c 128,-1,46
 410.991312395 -9.9833984375 410.991312395 -9.9833984375 401.361340346 3.125 c 0,47,48
 387.55396842 25.0517578125 387.55396842 25.0517578125 366.90263379 54.60546875 c 128,-1,49
 346.25129916 84.1591796875 346.25129916 84.1591796875 330.786741297 107.715820312 c 0,50,51
 294.781686564 162.564453125 294.781686564 162.564453125 282.45394494 179.612304688 c 128,-1,52
 270.126203315 196.66015625 270.126203315 196.66015625 266.4911552 202.282226562 c 1,53,54
 242.989245539 198.685546875 242.989245539 198.685546875 229.099014316 197.715820312 c 128,-1,55
 215.208783093 196.74609375 215.208783093 196.74609375 211.021698364 196.380859375 c 1,56,57
 171.494585466 40.625 171.494585466 40.625 170.158075768 35.962890625 c 128,-1,58
 168.821566071 31.30078125 168.821566071 31.30078125 164.955157581 23.66796875 c 0,0,1
473.149774289 466.666992188 m 0,59,60
 468.799123155 484.041992188 468.799123155 484.041992188 450.670154654 498.848632812 c 0,61,62
 418.21944093 526 418.21944093 526 356.755060159 526 c 0,63,64
 315.435173383 526 315.435173383 526 307.207352812 521.625976562 c 0,65,66
 303.448553799 519.627929688 303.448553799 519.627929688 299.610123774 515.428710938 c 1,67,-1
 239.30146878 277.354492188 l 1,68,69
 262.363255683 279.116210938 262.363255683 279.116210938 279.898219874 282.298828125 c 128,-1,70
 297.434260159 285.481445312 297.434260159 285.481445312 338.107413981 299.080078125 c 0,71,72
 382.389789644 313.693359375 382.389789644 313.693359375 423.984080584 352.4609375 c 0,73,74
 475.494584781 400.470703125 475.494584781 400.470703125 475.494584781 447.75 c 0,75,76
 475.494584781 457.3046875 475.494584781 457.3046875 473.149774289 466.666992188 c 0,59,60
EndSplineSet
EndChar

StartChar: S
Encoding: 83 83 50
Width: 500
Flags: W
LayerCount: 2
Fore
SplineSet
97.76171875 40.037109375 m 128,-1,1
 76.16796875 59.47265625 76.16796875 59.47265625 61.5537109375 85.046875 c 1,2,3
 60.2001953125 94.5224609375 60.2001953125 94.5224609375 60.2001953125 102.5625 c 128,-1,4
 60.2001953125 110.602539062 60.2001953125 110.602539062 62.421875 119.543945312 c 0,5,6
 67.53515625 141.145507812 67.53515625 141.145507812 83.1298828125 154.791992188 c 0,7,8
 99.3681640625 169 99.3681640625 169 120.288085938 169 c 128,-1,9
 141.208984375 169 141.208984375 169 156.604492188 153.604492188 c 2,10,-1
 158.122070312 152.086914062 l 1,11,12
 179.292288726 117.19921875 179.292288726 117.19921875 226.326450451 102.702148438 c 0,13,14
 249.522755479 95.5517578125 249.522755479 95.5517578125 263.114146385 93.275390625 c 128,-1,15
 276.706617343 91 276.706617343 91 301.713091726 91 c 2,16,-1
 302.59441523 91 l 2,17,18
 308.598431604 90.4287109375 308.598431604 90.4287109375 313.477032424 90.4287109375 c 128,-1,19
 318.35455319 90.4287109375 318.35455319 90.4287109375 321.030925303 91.28515625 c 0,20,21
 330.00508829 96.7412109375 330.00508829 96.7412109375 334.923651083 98.60546875 c 128,-1,22
 339.841133822 100.469726562 339.841133822 100.469726562 343.73472602 102.885742188 c 0,23,24
 350.527181313 107.099609375 350.527181313 107.099609375 365.812095814 115.807617188 c 1,25,26
 382.200824803 132.354492188 382.200824803 132.354492188 388.786989913 138.067382812 c 1,27,-1
 402.330858473 160.34765625 l 1,28,29
 406.395099094 172.719726562 406.395099094 172.719726562 407.878012294 182.383789062 c 0,30,31
 407.781887549 186.90234375 407.781887549 186.90234375 406.482583412 191.702148438 c 128,-1,32
 405.184359329 196.502929688 405.184359329 196.502929688 404.116186601 202.241210938 c 0,33,34
 400.741019994 207.147460938 400.741019994 207.147460938 398.063567828 210.573242188 c 0,35,36
 393.394497351 216.546875 393.394497351 216.546875 390.172698315 222.2734375 c 0,37,38
 383.787423122 226.2734375 383.787423122 226.2734375 379.420767573 229.25390625 c 128,-1,39
 375.05303197 232.233398438 375.05303197 232.233398438 372.937207528 233.36328125 c 0,40,41
 369.347110312 235.280273438 369.347110312 235.280273438 363.025558264 237.255859375 c 0,42,43
 325.394340692 250.095703125 325.394340692 250.095703125 307.13711947 253.90234375 c 0,44,45
 249.09937458 266.00390625 249.09937458 266.00390625 225.453767373 275.548828125 c 0,46,47
 205.217888479 283.71875 205.217888479 283.71875 188.069882011 296.255859375 c 0,48,49
 161.590214907 315.616210938 161.590214907 315.616210938 144.950195312 356.756835938 c 0,50,51
 141.428710938 365.615234375 141.428710938 365.615234375 141.428710938 369.50390625 c 128,-1,52
 141.428710938 373.392578125 141.428710938 373.392578125 141.760742188 375.901367188 c 0,53,54
 145.286132812 407.415039062 145.286132812 407.415039062 148.451171875 418.029296875 c 0,55,56
 156.399414062 451.458984375 156.399414062 451.458984375 179.372212672 478.545898438 c 0,57,58
 190.639328845 491.698242188 190.639328845 491.698242188 202.344946664 501.682617188 c 0,59,60
 226.553261647 522.33203125 226.553261647 522.33203125 239.652148241 532.512695312 c 0,61,62
 283.084332163 566.266601562 283.084332163 566.266601562 347.607797204 581.490234375 c 0,63,64
 374.510845207 587.837890625 374.510845207 587.837890625 393.313493353 590.34375 c 128,-1,65
 412.115061446 593 412.115061446 593 437.74796675 593 c 2,66,-1
 452.678623765 593 l 2,67,68
 460.939951565 593 460.939951565 593 468.661252708 591.881835938 c 0,69,70
 492.599609375 589.538085938 492.599609375 589.538085938 512.002929688 579.265625 c 0,71,72
 527.805664062 570.899414062 527.805664062 570.899414062 548.559570312 564.345703125 c 1,73,-1
 550.958984375 562.213867188 l 2,74,75
 570.086914062 545.2109375 570.086914062 545.2109375 570.086914062 521.668945312 c 0,76,77
 570.086914062 493.26953125 570.086914062 493.26953125 546.51171875 473.904296875 c 0,78,79
 528.3671875 459 528.3671875 459 504 459 c 0,80,81
 500.141601562 459 500.141601562 459 496.35546875 459.946289062 c 0,82,83
 493.303710938 460 493.303710938 460 488.7578125 461.68359375 c 128,-1,84
 484.211914062 463.3671875 484.211914062 463.3671875 477.932617188 465.53125 c 128,-1,85
 471.648680175 467.6953125 471.648680175 467.6953125 465.090596452 469.5703125 c 0,86,87
 437.649681899 477.416015625 437.649681899 477.416015625 423.130525197 479.158203125 c 128,-1,88
 408.610288441 480.900390625 408.610288441 480.900390625 398.443746595 480.9921875 c 0,89,90
 357.355278365 473.553710938 357.355278365 473.553710938 354.777191104 472.6953125 c 128,-1,91
 352.200183896 471.837890625 352.200183896 471.837890625 349.484929864 470.74609375 c 128,-1,92
 346.770755886 469.653320312 346.770755886 469.653320312 343.493874131 468.200195312 c 128,-1,93
 340.218072429 466.748046875 340.218072429 466.748046875 336.125750422 464.778320312 c 128,-1,94
 332.034508468 462.809570312 332.034508468 462.809570312 327.5641678 460.532226562 c 0,95,96
 317.985174957 455.9140625 317.985174957 455.9140625 307.016153498 450.03515625 c 0,97,98
 299.280811663 442.7265625 299.280811663 442.7265625 293.337278275 438.358398438 c 0,99,100
 283.786366818 431.338867188 283.786366818 431.338867188 277.013352485 425.661132812 c 0,101,102
 273.375732922 420.969726562 273.375732922 420.969726562 270.15501394 416.2890625 c 128,-1,103
 266.906213571 411.56640625 266.906213571 411.56640625 263.310716088 406.868164062 c 1,104,105
 261.190571432 396.077148438 261.190571432 396.077148438 260.970240556 393.87109375 c 0,106,107
 263.525646697 389.573242188 263.525646697 389.573242188 264.671583264 386.333984375 c 128,-1,108
 265.818599883 383.09375 265.818599883 383.09375 266.698843334 380.970703125 c 1,109,-1
 296.887413518 363.904296875 l 1,110,111
 357.716016172 346.7109375 357.716016172 346.7109375 371.943558479 342.885742188 c 128,-1,112
 386.17218084 339.059570312 386.17218084 339.059570312 392.033630176 337.321289062 c 128,-1,113
 397.895079511 335.583984375 397.895079511 335.583984375 403.716566875 333.694335938 c 0,114,115
 415.358461548 329.916015625 415.358461548 329.916015625 432.90824785 323.21875 c 128,-1,116
 450.458034151 316.522460938 450.458034151 316.522460938 474.809570312 301.572265625 c 0,117,118
 488.682617188 292.109375 488.682617188 292.109375 495.965820312 278.973632812 c 0,119,120
 499.823242188 272.017578125 499.823242188 272.017578125 510.258789062 253.571289062 c 0,121,122
 523.5 230.166992188 523.5 230.166992188 523.5 197.223632812 c 0,123,124
 523.5 178.379882812 523.5 178.379882812 518.643554688 158.642578125 c 0,125,126
 510.09765625 122.577148438 510.09765625 122.577148438 487.708007812 88.580078125 c 0,127,128
 464.64345438 54.5830078125 464.64345438 54.5830078125 429.025456185 32.359375 c 0,129,130
 417.310117887 24.4345703125 417.310117887 24.4345703125 405.46193303 18.21484375 c 128,-1,131
 393.613748174 11.9951171875 393.613748174 11.9951171875 383.608134272 6.3388671875 c 0,132,133
 328.484373224 -24 328.484373224 -24 261.898006353 -24 c 0,134,135
 224.444997578 -23.69921875 224.444997578 -23.69921875 199.456884102 -15.734375 c 128,-1,136
 174.468770625 -7.76953125 174.468770625 -7.76953125 146.15234375 6.4169921875 c 0,137,0
 119.356445312 20.6025390625 119.356445312 20.6025390625 97.76171875 40.037109375 c 128,-1,1
EndSplineSet
EndChar

StartChar: T
Encoding: 84 84 51
Width: 500
Flags: W
LayerCount: 2
Fore
SplineSet
483.64065925 593.961914062 m 0,0,1
 526.821941924 592.375 526.821941924 592.375 545.8125 592.375 c 2,2,-1
 590 593 l 1,3,-1
 592.895507812 593 l 1,4,5
 624.020507812 590.057617188 624.020507812 590.057617188 628.162109375 583.5 c 0,6,7
 628.684570312 579.994140625 628.684570312 579.994140625 628.684570312 576.3359375 c 0,8,9
 628.684570312 556.903320312 628.684570312 556.903320312 615.17578125 539.359375 c 0,10,11
 598.793945312 518.083984375 598.793945312 518.083984375 566.381835938 511.59375 c 1,12,-1
 437.06380767 513.43359375 l 1,13,-1
 315.879459295 36.486328125 l 2,14,15
 307.691430962 8.38671875 307.691430962 8.38671875 287.063540989 -6.2578125 c 128,-1,16
 266.276193614 -21 266.276193614 -21 244.663085938 -21 c 0,17,18
 225.104492188 -21 225.104492188 -21 211.607421875 -5.25390625 c 0,19,20
 201.25 6.2587890625 201.25 6.2587890625 201.25 25.2060546875 c 0,21,22
 201.25 30.7421875 201.25 30.7421875 202.227539062 37.5732421875 c 0,23,-1
 317.824621155 489.00390625 l 1,24,-1
 189.899414062 492.603515625 l 1,25,26
 163.965820312 497.805664062 163.965820312 497.805664062 154.182617188 515.729492188 c 0,27,28
 148.4765625 526.184570312 148.4765625 526.184570312 148.4765625 535.3046875 c 0,29,30
 148.4765625 563.903320312 148.4765625 563.903320312 173.24609375 584.130859375 c 0,31,32
 191.455078125 599 191.455078125 599 218 599 c 2,33,-1
 258.757667931 599 l 2,34,35
 290.932021228 599 290.932021228 599 316.201650619 598.247070312 c 128,-1,36
 341.47128001 597.493164062 341.47128001 597.493164062 361.982307368 596.994140625 c 128,-1,37
 382.493334725 596.495117188 382.493334725 596.495117188 406.776731011 595.99609375 c 0,38,39
 455.580525338 594.993164062 455.580525338 594.993164062 483.64065925 593.961914062 c 0,0,1
EndSplineSet
EndChar

StartChar: U
Encoding: 85 85 52
Width: 500
Flags: W
LayerCount: 2
Fore
SplineSet
532.770507812 602.223632812 m 0,0,1
 548.7421875 615 548.7421875 615 567 615 c 128,-1,2
 585.208984375 615 585.208984375 615 598.604492188 601.604492188 c 0,3,4
 612 588.840820312 612 588.840820312 612 564.8203125 c 2,5,-1
 612 563.131835938 l 1,6,7
 573.671875 409.744140625 573.671875 409.744140625 537.755859375 305.48046875 c 0,8,9
 516.07421875 242.54296875 516.07421875 242.54296875 489.388183861 186.84375 c 0,10,11
 462.445186346 131.145507812 462.445186346 131.145507812 431.354623652 91.40234375 c 1,12,13
 408.980849659 67.017578125 408.980849659 67.017578125 384.117026784 48.6279296875 c 128,-1,14
 359.253203909 30.2392578125 359.253203909 30.2392578125 323.839295191 18.216796875 c 0,15,16
 256.922871128 -4.5 256.922871128 -4.5 229.514000457 -4.5 c 0,17,18
 190.487304688 -3.1220703125 190.487304688 -3.1220703125 177.24609375 -0.6240234375 c 128,-1,19
 164.004882812 1.875 164.004882812 1.875 155.749023438 7.8193359375 c 0,20,21
 129.047851562 26.109375 129.047851562 26.109375 118.54296875 43.552734375 c 0,22,23
 98.900390625 76.16796875 98.900390625 76.16796875 98.900390625 114.021484375 c 0,24,25
 98.900390625 116.474609375 98.900390625 116.474609375 98.4501953125 125.977539062 c 128,-1,26
 98 135.48046875 98 135.48046875 97.5458984375 153.713867188 c 0,27,28
 97.5458984375 253.491210938 97.5458984375 253.491210938 149.446289062 451.009765625 c 0,29,30
 164.40625 507.94140625 164.40625 507.94140625 176.700195312 559.598632812 c 1,31,32
 187.799804688 583.067382812 187.799804688 583.067382812 204.586551387 595.223632812 c 0,33,34
 222.223948295 608 222.223948295 608 242.498057857 608 c 128,-1,35
 262.773245828 608 262.773245828 608 276.703068871 594.643554688 c 0,36,37
 290.632891914 582.061523438 290.632891914 582.061523438 292.185802434 556.892578125 c 1,38,-1
 247.444724908 400.887695312 l 2,39,40
 203.149030746 244.5859375 203.149030746 244.5859375 203.151187566 168.696289062 c 0,41,42
 203.151187566 145.72265625 203.151187566 145.72265625 210.004483644 127.21484375 c 1,43,44
 223.646371195 109.19921875 223.646371195 109.19921875 225.954168773 108.59765625 c 0,45,46
 232.447275883 107 232.447275883 107 249.011654758 107 c 0,47,48
 275.608482637 107 275.608482637 107 299.624675186 118.483398438 c 128,-1,49
 323.640867736 129.966796875 323.640867736 129.966796875 342.468829376 153.657226562 c 0,50,51
 378.782132103 198.756835938 378.782132103 198.756835938 404.537800116 261.5859375 c 0,52,53
 430.721596933 325.461914062 430.721596933 325.461914062 462.721259328 425.647460938 c 0,54,55
 475.914528284 466.94921875 475.914528284 466.94921875 483.762118458 494.458984375 c 0,56,57
 503.91221086 565.090820312 503.91221086 565.090820312 505.553551006 568.204101562 c 0,58,59
 516.799804688 590.17578125 516.799804688 590.17578125 532.770507812 602.223632812 c 0,0,1
EndSplineSet
EndChar

StartChar: V
Encoding: 86 86 53
Width: 500
Flags: W
LayerCount: 2
Fore
SplineSet
581.470703125 611 m 128,-1,1
 606.10546875 611 606.10546875 611 619.614257812 594.48828125 c 0,2,3
 628.786132812 583.815429688 628.786132812 583.815429688 628.786132812 569.233398438 c 0,4,5
 628.786132812 552.396484375 628.786132812 552.396484375 616.27734375 530.245117188 c 0,6,7
 539.045898438 387.952148438 539.045898438 387.952148438 464.129961141 283.374023438 c 0,8,9
 388.187696297 178.795898438 388.187696297 178.795898438 306.680155088 27.6689453125 c 1,10,11
 294.297824786 8.9296875 294.297824786 8.9296875 273.731971316 -2.7421875 c 0,12,13
 253.166117847 -15 253.166117847 -15 237 -15 c 0,14,15
 221.622070312 -15 221.622070312 -15 208.973632812 -4.583984375 c 0,16,17
 195.495117188 5.98828125 195.495117188 5.98828125 192.127929688 24.572265625 c 0,18,19
 158.3359375 269.516601562 158.3359375 269.516601562 152.966796875 334.616210938 c 0,20,21
 148.857421875 384.451171875 148.857421875 384.451171875 148.857421875 437.125976562 c 128,-1,22
 148.857421875 489.80078125 148.857421875 489.80078125 154.008789062 545.268554688 c 0,23,24
 154.034179688 546.2890625 154.034179688 546.2890625 155 553.1015625 c 2,25,-1
 155 554.053710938 l 1,26,-1
 155.407226562 556.41796875 l 1,27,28
 161.538085938 580.943359375 161.538085938 580.943359375 179.009765625 595.1171875 c 0,29,30
 196.481445312 610 196.481445312 610 216 610 c 0,31,32
 246.836914062 610 246.836914062 610 262.364389148 577.969726562 c 2,33,-1
 263.288476255 576.069335938 l 1,34,35
 269.706840127 533.3515625 269.706840127 533.3515625 269.787670441 496.099609375 c 0,36,37
 269.787670441 471.466796875 269.787670441 471.466796875 266.834087066 447.486328125 c 128,-1,38
 263.881595993 423.506835938 263.881595993 423.506835938 263.881595993 397.373046875 c 128,-1,39
 263.881595993 371.23828125 263.881595993 371.23828125 269.373688156 330.822265625 c 128,-1,40
 274.865780319 290.405273438 274.865780319 290.405273438 277.875071073 248.908203125 c 128,-1,41
 280.883269525 207.411132812 280.883269525 207.411132812 284.062959319 177.10546875 c 1,42,43
 288.940085713 185.787109375 288.940085713 185.787109375 299.692702111 203.41015625 c 2,44,-1
 326.249829549 248.271484375 l 1,45,-1
 434.765618735 422.802734375 l 2,46,47
 485.040981898 503.2109375 485.040981898 503.2109375 530.453125 578.334960938 c 1,48,0
 556.836914062 611 556.836914062 611 581.470703125 611 c 128,-1,1
EndSplineSet
EndChar

StartChar: W
Encoding: 87 87 54
Width: 500
Flags: W
LayerCount: 2
Fore
SplineSet
570.163085938 616.618164062 m 0,0,1
 587.106445312 629 587.106445312 629 605 629 c 0,2,3
 626.563476562 629 626.563476562 629 639.5703125 611.403320312 c 0,4,5
 647.482421875 601.205078125 647.482421875 601.205078125 647.482421875 585.987304688 c 0,6,7
 647.482421875 576.796875 647.482421875 576.796875 643.350585938 561.051757812 c 1,8,9
 615.173828125 489.16015625 615.173828125 489.16015625 605.2109375 459.799804688 c 128,-1,10
 595.248046875 430.438476562 595.248046875 430.438476562 589.536132812 414.206054688 c 128,-1,11
 583.825195312 397.974609375 583.825195312 397.974609375 576.427734375 377.375976562 c 0,12,13
 561.661132812 336.252929688 561.661132812 336.252929688 537.22160142 273.260742188 c 0,14,15
 511.554277454 210.26953125 511.554277454 210.26953125 474.080155964 140.921875 c 128,-1,16
 436.609250126 71.5810546875 436.609250126 71.5810546875 403.474113328 9.1103515625 c 1,17,18
 388.026127317 -4.2236328125 388.026127317 -4.2236328125 377.290141481 -9.599609375 c 128,-1,19
 366.503777116 -15 366.503777116 -15 356.910419165 -15 c 2,20,-1
 355.18254285 -15 l 1,21,22
 340.208329378 -12.1279296875 340.208329378 -12.1279296875 331.948394588 -5.0615234375 c 0,23,24
 320.634663507 4.6171875 320.634663507 4.6171875 320.634663507 20.2353515625 c 0,25,26
 320.634663507 20.7607421875 320.634663507 20.7607421875 320.64752611 21.28515625 c 0,27,28
 313.664204651 69.533203125 313.664204651 69.533203125 313.664204651 110.3203125 c 0,29,30
 313.664204651 120.717773438 313.664204651 120.717773438 314.438104589 137.627929688 c 0,31,32
 316.304253884 178.427734375 316.304253884 178.427734375 316.631178373 198.970703125 c 128,-1,33
 316.957030978 219.513671875 316.957030978 219.513671875 317.250727076 226.7890625 c 1,34,35
 302.293663741 198.255859375 302.293663741 198.255859375 272.727899231 138.201171875 c 128,-1,36
 243.163206604 78.146484375 243.163206604 78.146484375 196.985351562 3.7763671875 c 1,37,38
 180.624023438 -12.5849609375 180.624023438 -12.5849609375 175.404296875 -15.8876953125 c 128,-1,39
 170.184570312 -19.1904296875 170.184570312 -19.1904296875 167.241210938 -19.1904296875 c 128,-1,40
 164.297851562 -19.1904296875 164.297851562 -19.1904296875 160.831054688 -18.9609375 c 128,-1,41
 157.36328125 -18.7314453125 157.36328125 -18.7314453125 152.045898438 -17.1650390625 c 0,42,43
 128.059570312 -10.419921875 128.059570312 -10.419921875 120.203125 19.572265625 c 1,44,45
 113.333007812 78.5810546875 113.333007812 78.5810546875 113.333007812 135.796875 c 0,46,47
 113.333007812 164.3046875 113.333007812 164.3046875 115.01171875 192.6015625 c 0,48,49
 116.01953125 228.999023438 116.01953125 228.999023438 118.518554688 270.509765625 c 128,-1,50
 121.018554688 312.021484375 121.018554688 312.021484375 122.520507812 344.982421875 c 0,51,52
 127.39453125 451.962890625 127.39453125 451.962890625 140.110351562 543.05078125 c 0,53,54
 142.302734375 561.774414062 142.302734375 561.774414062 148.075195312 570.970703125 c 0,55,56
 155.66015625 597.176757812 155.66015625 597.176757812 180.581054688 610.260742188 c 0,57,58
 192.830078125 617 192.830078125 617 206 617 c 0,59,60
 219.802576081 617 219.802576081 617 233.43371944 609.694335938 c 128,-1,61
 247.065934683 602.388671875 247.065934683 602.388671875 254.670948611 585.758789062 c 2,62,-1
 256.347374515 582.094726562 l 1,63,64
 249.249361515 530.36328125 249.249361515 530.36328125 245.239445079 490.8359375 c 128,-1,65
 241.228456761 451.30859375 241.228456761 451.30859375 239.403039041 433.89453125 c 0,66,67
 235.748987951 399.043945312 235.748987951 399.043945312 232.818458271 373.666015625 c 0,68,69
 227.306832954 303.405273438 227.306832954 303.405273438 224.6485617 285.241210938 c 0,70,71
 221.05132044 260.66015625 221.05132044 260.66015625 221.05132044 244.571289062 c 128,-1,72
 221.05132044 228.482421875 221.05132044 228.482421875 221.311788147 218.165039062 c 1,73,74
 225.165209581 224.723632812 225.165209581 224.723632812 228.954318001 230.849609375 c 0,75,76
 245.41094645 257.44921875 245.41094645 257.44921875 259.314348236 289.603515625 c 0,77,78
 280.575158847 336.500976562 280.575158847 336.500976562 295.174213069 360.54296875 c 128,-1,79
 309.772195409 384.5859375 309.772195409 384.5859375 322.240345095 400.1953125 c 0,80,81
 330.380228925 412.576171875 330.380228925 412.576171875 371.530911059 432.571289062 c 1,82,-1
 376.931060485 431.833984375 l 2,83,84
 406.284592048 427.822265625 406.284592048 427.822265625 418.155702585 406.0390625 c 0,85,86
 428.141369923 392.481445312 428.141369923 392.481445312 428.141369923 358.5703125 c 0,87,88
 428.141369923 343.689453125 428.141369923 343.689453125 426.598929466 324.32421875 c 0,89,90
 423.55263636 286.083984375 423.55263636 286.083984375 422.140965698 267.161132812 c 1,91,92
 427.638656529 279.5546875 427.638656529 279.5546875 435.042156346 294.849609375 c 0,93,94
 468.662856402 369.971679688 468.662856402 369.971679688 490.03407102 438.869140625 c 128,-1,95
 511.406357521 507.766601562 511.406357521 507.766601562 542.421308618 580.428710938 c 1,96,-1
 545.509405183 586.728515625 l 2,97,98
 548.443150514 592.66796875 548.443150514 592.66796875 555.151367188 601.588867188 c 128,-1,99
 561.802734375 610.508789062 561.802734375 610.508789062 570.163085938 616.618164062 c 0,0,1
EndSplineSet
EndChar

StartChar: X
Encoding: 88 88 55
Width: 500
Flags: W
LayerCount: 2
Fore
SplineSet
525.193359375 596.594726562 m 1,0,1
 546.606445312 613.25 546.606445312 613.25 565.203125 613.25 c 0,2,3
 567.6171875 613.25 567.6171875 613.25 569.9921875 612.990234375 c 0,4,5
 592.239257812 612.540039062 592.239257812 612.540039062 603.90234375 595.435546875 c 0,6,7
 611.391601562 592.29296875 611.391601562 592.29296875 611.391601562 588.186523438 c 0,8,9
 611.391601562 586.212890625 611.391601562 586.212890625 609.229492188 583.5 c 0,10,11
 606.778320312 572.7578125 606.778320312 572.7578125 597.369140625 558.307617188 c 0,12,13
 553.15625 494.021484375 553.15625 494.021484375 506.548751207 433.73828125 c 0,14,15
 456.418926823 373.456054688 456.418926823 373.456054688 401.513315977 305.002929688 c 1,16,17
 419.386399382 250.25390625 419.386399382 250.25390625 448.849475239 179.662109375 c 0,18,19
 492.392410869 75.3349609375 492.392410869 75.3349609375 493.320799963 67.6494140625 c 0,20,21
 493.78393228 63.8193359375 493.78393228 63.8193359375 493.78393228 58.072265625 c 128,-1,22
 493.78393228 52.32421875 493.78393228 52.32421875 491.946274234 44.72265625 c 0,23,24
 486.406744342 21.814453125 486.406744342 21.814453125 467.882513896 7.41015625 c 128,-1,25
 449.35828345 -7 449.35828345 -7 427.070571814 -7 c 0,26,27
 413.387986094 -7 413.387986094 -7 401.726824225 -1.0859375 c 128,-1,28
 390.065662355 4.828125 390.065662355 4.828125 380.942168158 17.0283203125 c 1,29,30
 353.878670062 83.3779296875 353.878670062 83.3779296875 341.173336019 126.03515625 c 0,31,32
 331.072590145 159.951171875 331.072590145 159.951171875 312.597222282 210.0234375 c 1,33,34
 260.195287747 159.591796875 260.195287747 159.591796875 225.808775447 116.356445312 c 128,-1,35
 191.422263147 73.12109375 191.422263147 73.12109375 122.03125 9.869140625 c 1,36,37
 102.155273438 -1.310546875 102.155273438 -1.310546875 87.3642578125 -4 c 1,38,-1
 86 -4 l 2,39,40
 62.2822265625 -4 62.2822265625 -4 50.2861328125 12.794921875 c 0,41,42
 42.6083984375 23.021484375 42.6083984375 23.021484375 42.6083984375 36.7373046875 c 0,43,44
 42.6083984375 60.33984375 42.6083984375 60.33984375 62.296875 83.75390625 c 0,45,46
 123.576171875 156.391601562 123.576171875 156.391601562 172.084364456 204.764648438 c 0,47,48
 222.121774823 253.137695312 222.121774823 253.137695312 265.915396753 300.841796875 c 1,49,50
 237.487995227 363.862304688 237.487995227 363.862304688 222.644392025 407.594726562 c 0,51,52
 197.795643655 480.806640625 197.795643655 480.806640625 181.888748137 523.624023438 c 1,53,54
 171.89103858 535.099609375 171.89103858 535.099609375 171.89103858 550.758789062 c 0,55,56
 171.89103858 580.462890625 171.89103858 580.462890625 196.331890598 600.05859375 c 0,57,58
 214.061572941 615 214.061572941 615 237.806664253 615 c 0,59,60
 261.61867606 614.318359375 261.61867606 614.318359375 277.622234515 599.604492188 c 2,61,-1
 280.018625586 597.401367188 l 1,62,63
 306.54994641 535.890625 306.54994641 535.890625 322.689470317 485.534179688 c 128,-1,64
 338.827931992 435.177734375 338.827931992 435.177734375 358.075541126 386.046875 c 1,65,66
 402.053991091 440.022460938 402.053991091 440.022460938 424.541401982 469.032226562 c 0,67,68
 463.91508453 519.827148438 463.91508453 519.827148438 525.193359375 596.594726562 c 1,0,1
EndSplineSet
EndChar

StartChar: Y
Encoding: 89 89 56
Width: 500
Flags: W
LayerCount: 2
Fore
SplineSet
284.290259119 5.9873046875 m 0,0,1
 263.358102615 -9 263.358102615 -9 241.549716303 -9 c 0,2,3
 221.846679688 -9 221.846679688 -9 208.8359375 7.072265625 c 0,4,5
 198.619140625 19.7041015625 198.619140625 19.7041015625 198.619140625 41.0654296875 c 0,6,7
 198.619140625 49.087890625 198.619140625 49.087890625 199.379882812 52.4033203125 c 0,8,9
 213.369140625 113.413085938 213.369140625 113.413085938 226.588867188 172.706054688 c 128,-1,10
 239.807617188 232 239.807617188 232 255.502323775 291.446289062 c 1,11,12
 220.413085938 359.07421875 220.413085938 359.07421875 189.512695312 424.919921875 c 128,-1,13
 158.612304688 490.764648438 158.612304688 490.764648438 144 568.068359375 c 1,14,-1
 144 569.48828125 l 1,15,-1
 143 583.5 l 1,16,-1
 143 584.111328125 l 1,17,-1
 143.407226562 584.564453125 l 2,18,19
 149.538085938 592.43359375 149.538085938 592.43359375 166.78125 596.922851562 c 0,20,21
 184.481445312 612 184.481445312 612 203 612 c 0,22,-1
 203.723632812 611.982421875 l 2,23,24
 218.41015625 611.283203125 218.41015625 611.283203125 229.818359375 602.819335938 c 0,25,26
 242.4821979 593.501953125 242.4821979 593.501953125 248.929518457 578.850585938 c 2,27,-1
 292.672857608 463.3828125 l 2,28,29
 311.335470735 414.481445312 311.335470735 414.481445312 337.238338306 363.811523438 c 1,30,-1
 437.383832909 464.500976562 l 2,31,32
 494.115926744 521.682617188 494.115926744 521.682617188 550.268554688 584.344726562 c 0,33,34
 575.1796875 616 575.1796875 616 605 616 c 0,35,36
 626.36328125 616 626.36328125 616 639.375976562 599.16015625 c 0,37,38
 648.280273438 587.630859375 648.280273438 587.630859375 648.280273438 571.788085938 c 1,39,-1
 646.643554688 557.713867188 l 1,40,41
 644.100585938 546.264648438 644.100585938 546.264648438 634.219726562 530.19921875 c 1,42,43
 568.328125 451.086914062 568.328125 451.086914062 505.861733221 386.84765625 c 2,44,-1
 373.130225679 253.862304688 l 1,45,-1
 371.040255324 252.3515625 l 1,46,47
 337.48281724 122.303710938 337.48281724 122.303710938 312.582746004 18.5 c 0,48,49
 305.223497389 10.3662109375 305.223497389 10.3662109375 284.290259119 5.9873046875 c 0,0,1
EndSplineSet
EndChar

